<svg width="144" height="113" viewBox="0 0 144 113" fill="none" xmlns="http://www.w3.org/2000/svg">
<path d="M34.2773 11.2549C33.6296 11.857 33.1735 12.5909 32.9525 13.3864C32.4734 12.8339 31.7742 12.4502 30.9866 12.3077C30.199 12.1652 29.3776 12.2739 28.6773 12.6131C28.5463 11.293 27.8635 10.0572 26.7537 9.13162C25.6438 8.206 24.181 7.65232 22.6325 7.57174C21.0841 7.49117 19.5534 7.88909 18.3201 8.69278C17.0869 9.49648 16.2334 10.6523 15.9158 11.949C15.1579 11.311 14.1448 10.9424 13.0811 10.9176C12.0173 10.8927 10.9821 11.2135 10.1846 11.8151" stroke="#263238" stroke-width="0.850746" stroke-miterlimit="10"/>
<path d="M51.883 5.43738C49.7337 5.14979 47.5369 5.57485 45.7426 6.6255C43.9484 7.67615 42.6924 9.27288 42.2319 11.0887C41.3567 10.3523 40.2197 9.88525 38.9997 9.76108C37.7797 9.6369 36.546 9.86263 35.4927 10.4028" stroke="#263238" stroke-width="0.850746" stroke-miterlimit="10"/>
<path d="M56.6741 7.56062C56.0774 7.03079 55.3901 6.58117 54.6357 6.22705" stroke="#263238" stroke-width="0.850746" stroke-miterlimit="10"/>
<path d="M53.605 14.6414H69.3553C69.1544 14.3571 68.8854 14.1123 68.566 13.923C68.2465 13.7336 67.8839 13.604 67.5018 13.5426C67.1196 13.4812 66.7266 13.4894 66.3485 13.5667C65.9703 13.644 65.6155 13.7886 65.3073 13.991C65.099 13.4754 64.7604 13.0053 64.3156 12.6139C63.8707 12.2225 63.3306 11.9195 62.7333 11.7262C62.136 11.533 61.4963 11.4543 60.8595 11.4958C60.2226 11.5372 59.6042 11.6978 59.0482 11.9661C58.9115 10.6465 58.3524 9.38436 57.4322 8.31787" stroke="#263238" stroke-width="0.850746" stroke-miterlimit="10"/>
<path d="M9.53433 12.4551C9.03638 13.06 8.76929 13.7816 8.76953 14.521C8.76953 14.5675 8.76953 14.6112 8.76953 14.6549H50.5038" stroke="#263238" stroke-width="0.850746" stroke-miterlimit="10"/>
<path d="M65.4061 17.0351C64.9076 16.6715 64.307 16.4248 63.6632 16.319C63.0194 16.2132 62.3544 16.252 61.7335 16.4316C61.1125 16.6112 60.5568 16.9255 60.1208 17.3436C59.6848 17.7617 59.3834 18.2694 59.2462 18.8168C58.9344 18.5547 58.5465 18.3681 58.1224 18.2763C57.6982 18.1845 57.2531 18.1909 56.8328 18.2947C56.4125 18.3985 56.0321 18.596 55.7307 18.8669C55.4294 19.1378 55.218 19.4723 55.1182 19.8362C54.9819 19.6791 54.8044 19.5515 54.5998 19.4637C54.3953 19.3758 54.1695 19.3303 53.9406 19.3306C53.6874 19.3312 53.4386 19.3866 53.2174 19.4918C53.146 18.9132 52.8366 18.3749 52.3443 17.9726C51.852 17.5703 51.2086 17.3301 50.5285 17.2947C49.8483 17.2593 49.1756 17.431 48.6297 17.7792C48.0838 18.1275 47.7002 18.6297 47.547 19.1967C47.284 18.976 46.9504 18.8265 46.5883 18.7671C46.2262 18.7077 45.8515 18.7409 45.5114 18.8626C45.1713 18.9843 44.8809 19.1891 44.6766 19.4513C44.4723 19.7135 44.3632 20.0213 44.363 20.3362C44.3614 20.3553 44.3614 20.3745 44.363 20.3936H71.3069C71.2159 20.2683 71.095 20.1608 70.9521 20.0781C70.8092 19.9954 70.6475 19.9393 70.4776 19.9135C70.3076 19.8877 70.1332 19.8928 69.9656 19.9285C69.7981 19.9641 69.6413 20.0295 69.5053 20.1204C69.3762 19.7938 69.1298 19.5103 68.8012 19.3102C68.4726 19.11 68.0785 19.0034 67.6749 19.0054C67.3388 19.005 67.0083 19.0784 66.7149 19.2186C66.69 18.977 66.6331 18.7387 66.5453 18.508" stroke="#263238" stroke-width="0.850746" stroke-miterlimit="10"/>
<path d="M114.696 58.6378C114.21 59.0854 113.869 59.6337 113.707 60.2283C113.477 59.9641 113.178 59.7496 112.834 59.6021C112.489 59.4545 112.109 59.3779 111.723 59.3784C111.298 59.3774 110.88 59.4716 110.511 59.6517C110.404 58.6707 109.89 57.7546 109.062 57.069C108.234 56.3834 107.145 55.9735 105.994 55.9134C104.842 55.8534 103.704 56.1471 102.784 56.7415C101.864 57.3359 101.223 58.1917 100.978 59.1543C100.411 58.6782 99.6548 58.4031 98.8604 58.3843C98.0659 58.3655 97.2926 58.6046 96.6963 59.0532" stroke="#263238" stroke-width="0.850746" stroke-miterlimit="10"/>
<path d="M127.854 54.2902C127.527 54.2476 127.197 54.2256 126.866 54.2246C125.41 54.2249 123.998 54.6511 122.865 55.4322C121.733 56.2134 120.948 57.3024 120.642 58.5177C119.987 57.9671 119.136 57.618 118.224 57.5255C117.312 57.433 116.389 57.6023 115.602 58.0067" stroke="#263238" stroke-width="0.850746" stroke-miterlimit="10"/>
<path d="M131.435 55.8783C130.986 55.4812 130.468 55.1449 129.899 54.8809" stroke="#263238" stroke-width="0.850746" stroke-miterlimit="10"/>
<path d="M129.141 61.1688H140.907C140.756 60.9569 140.555 60.7744 140.317 60.6332C140.078 60.492 139.807 60.3953 139.522 60.3494C139.237 60.3035 138.943 60.3095 138.661 60.3668C138.379 60.4242 138.114 60.5317 137.883 60.6824C137.725 60.2983 137.471 59.9485 137.138 59.6577C136.804 59.3668 136.4 59.142 135.954 58.9992C135.508 58.8563 135.03 58.7989 134.555 58.831C134.08 58.8631 133.619 58.9839 133.205 59.1849C133.103 58.1965 132.684 57.251 131.995 56.4521" stroke="#263238" stroke-width="0.850746" stroke-miterlimit="10"/>
<path d="M96.2029 59.5259C95.8316 59.9783 95.6327 60.5174 95.6333 61.0699C95.6333 61.1027 95.6333 61.1355 95.6333 61.1683H126.817" stroke="#263238" stroke-width="0.850746" stroke-miterlimit="10"/>
<path d="M137.959 62.9585C137.449 62.5847 136.798 62.38 136.126 62.3818C135.477 62.382 134.849 62.572 134.344 62.9201C133.84 63.2682 133.491 63.7534 133.355 64.2948C133.122 64.0992 132.832 63.9601 132.515 63.8918C132.199 63.8234 131.866 63.8283 131.553 63.906C131.239 63.9836 130.955 64.1311 130.73 64.3335C130.505 64.5358 130.347 64.7856 130.273 65.0572C130.17 64.9399 130.037 64.8448 129.884 64.7793C129.73 64.7138 129.561 64.6799 129.39 64.6801C129.201 64.6796 129.016 64.721 128.852 64.8003C128.807 64.3624 128.58 63.9528 128.211 63.6462C127.842 63.3396 127.356 63.1563 126.843 63.1298C126.329 63.1033 125.821 63.2353 125.411 63.5018C125.002 63.7683 124.718 64.1516 124.612 64.5817C124.416 64.4158 124.167 64.3033 123.897 64.2582C123.626 64.2132 123.346 64.2377 123.091 64.3286C122.837 64.4196 122.619 64.5729 122.467 64.7692C122.315 64.9655 122.234 65.196 122.235 65.4316C122.233 65.4461 122.233 65.4608 122.235 65.4753H142.366C142.3 65.3804 142.21 65.2986 142.104 65.2354C141.998 65.1721 141.878 65.1288 141.751 65.1084C141.624 65.088 141.493 65.0909 141.367 65.1169C141.242 65.143 141.124 65.1915 141.022 65.2594C140.92 65.0191 140.734 64.8115 140.489 64.6648C140.243 64.5181 139.951 64.4395 139.652 64.4396C139.403 64.4397 139.158 64.4953 138.942 64.6008C138.923 64.4197 138.88 64.2409 138.814 64.0679" stroke="#263238" stroke-width="0.850746" stroke-miterlimit="10"/>
<path d="M66.568 32.2812H22.8945V87.3513H66.568V32.2812Z" fill="#263238" stroke="#263238" stroke-width="0.850746" stroke-linecap="round" stroke-linejoin="round"/>
<path d="M63.7584 34.9507H25.7041V84.7411H63.7584V34.9507Z" fill="white" stroke="#263238" stroke-width="0.850746" stroke-linecap="round" stroke-linejoin="round"/>
<path d="M37.2369 30.5786H52.2256C52.7883 30.5786 53.328 30.7695 53.7258 31.1093C54.1237 31.4491 54.3472 31.9099 54.3472 32.3904V36.2463H35.1153V32.4041C35.1132 32.165 35.1665 31.9279 35.2722 31.7065C35.3778 31.4851 35.5338 31.2838 35.731 31.1141C35.9282 30.9444 36.1628 30.8097 36.4213 30.7178C36.6797 30.6259 36.9569 30.5786 37.2369 30.5786Z" fill="#7D7D7D" stroke="#263238" stroke-width="0.850746" stroke-linecap="round" stroke-linejoin="round"/>
<path d="M43.4358 28.2614H45.9958C46.2982 28.2584 46.5983 28.307 46.8786 28.4042C47.1588 28.5013 47.4136 28.6452 47.628 28.8273C47.8425 29.0094 48.0123 29.2262 48.1277 29.465C48.243 29.7037 48.3015 29.9597 48.2998 30.218V30.5732H41.167V30.218C41.1653 29.9622 41.2227 29.7087 41.3359 29.4719C41.449 29.2351 41.6157 29.0197 41.8264 28.838C42.0371 28.6563 42.2877 28.5118 42.5639 28.4129C42.8401 28.3139 43.1363 28.2624 43.4358 28.2614Z" fill="#7D7D7D" stroke="#263238" stroke-width="0.850746" stroke-linecap="round" stroke-linejoin="round"/>
<path d="M54.3443 48.0927C57.7446 48.0927 60.5011 45.7387 60.5011 42.8349C60.5011 39.9311 57.7446 37.5771 54.3443 37.5771C50.944 37.5771 48.1875 39.9311 48.1875 42.8349C48.1875 45.7387 50.944 48.0927 54.3443 48.0927Z" fill="#263238" stroke="#263238" stroke-width="0.850746" stroke-linecap="round" stroke-linejoin="round"/>
<path d="M58.6001 41.5206H55.9729V39.2798H52.8945V41.5206H50.2705V44.1495H52.8945V46.3931H55.9729V44.1495H58.6001V41.5206Z" fill="#3C8C30" stroke="#263238" stroke-width="0.850746" stroke-linecap="round" stroke-linejoin="round"/>
<path d="M28.9937 42.6821H43.8416" stroke="#263238" stroke-width="0.850746" stroke-linecap="round" stroke-linejoin="round"/>
<path d="M28.9937 45.311H43.8416" stroke="#263238" stroke-width="0.850746" stroke-linecap="round" stroke-linejoin="round"/>
<path d="M28.9937 53.9707H60.3184" stroke="#263238" stroke-width="0.850746" stroke-linecap="round" stroke-linejoin="round"/>
<path d="M32.7987 56.4438H29.1763V59.6903H32.7987V56.4438Z" stroke="#263238" stroke-width="0.850746" stroke-linecap="round" stroke-linejoin="round"/>
<path d="M49.6366 56.4438H46.0142V59.6903H49.6366V56.4438Z" stroke="#263238" stroke-width="0.850746" stroke-linecap="round" stroke-linejoin="round"/>
<path d="M34.2446 59.6904H43.1182" stroke="#263238" stroke-width="0.850746" stroke-linecap="round" stroke-linejoin="round"/>
<path d="M51.083 59.6904H59.9566" stroke="#263238" stroke-width="0.850746" stroke-linecap="round" stroke-linejoin="round"/>
<path d="M32.7987 62.7837H29.1763V66.0302H32.7987V62.7837Z" stroke="#263238" stroke-width="0.850746" stroke-linecap="round" stroke-linejoin="round"/>
<path d="M49.6366 62.7837H46.0142V66.0302H49.6366V62.7837Z" stroke="#263238" stroke-width="0.850746" stroke-linecap="round" stroke-linejoin="round"/>
<path d="M34.2446 66.0303H43.1182" stroke="#263238" stroke-width="0.850746" stroke-linecap="round" stroke-linejoin="round"/>
<path d="M51.083 66.0303H59.9566" stroke="#263238" stroke-width="0.850746" stroke-linecap="round" stroke-linejoin="round"/>
<path d="M32.7987 69.124H29.1763V72.3705H32.7987V69.124Z" stroke="#263238" stroke-width="0.850746" stroke-linecap="round" stroke-linejoin="round"/>
<path d="M49.6366 69.124H46.0142V72.3705H49.6366V69.124Z" stroke="#263238" stroke-width="0.850746" stroke-linecap="round" stroke-linejoin="round"/>
<path d="M34.2446 72.3701H43.1182" stroke="#263238" stroke-width="0.850746" stroke-linecap="round" stroke-linejoin="round"/>
<path d="M51.083 72.3701H59.9566" stroke="#263238" stroke-width="0.850746" stroke-linecap="round" stroke-linejoin="round"/>
<path d="M32.7987 75.4639H29.1763V78.7104H32.7987V75.4639Z" stroke="#263238" stroke-width="0.850746" stroke-linecap="round" stroke-linejoin="round"/>
<path d="M49.6366 75.4639H46.0142V78.7104H49.6366V75.4639Z" stroke="#263238" stroke-width="0.850746" stroke-linecap="round" stroke-linejoin="round"/>
<path d="M34.2446 78.7104H43.1182" stroke="#263238" stroke-width="0.850746" stroke-linecap="round" stroke-linejoin="round"/>
<path d="M51.083 78.7104H59.9566" stroke="#263238" stroke-width="0.850746" stroke-linecap="round" stroke-linejoin="round"/>
<path d="M105.784 17.0264H72.3472V70.659H105.784V17.0264Z" fill="#3C8C30" stroke="#263238" stroke-width="0.850746" stroke-linecap="round" stroke-linejoin="round"/>
<path d="M102.356 23.4349C101.503 23.4349 100.685 23.1455 100.082 22.6305C99.4789 22.1154 99.14 21.4169 99.14 20.6885H78.7785C78.7785 21.4169 78.4397 22.1154 77.8365 22.6305C77.2334 23.1455 76.4154 23.4349 75.5625 23.4349V64.0706C76.4154 64.0706 77.2334 64.3599 77.8365 64.875C78.4397 65.39 78.7785 66.0886 78.7785 66.817C78.7785 66.8798 78.7785 66.94 78.7785 67.0001H99.1656C99.1656 66.94 99.1656 66.8798 99.1656 66.817C99.1656 66.0886 99.5045 65.39 100.108 64.875C100.711 64.3599 101.529 64.0706 102.382 64.0706C102.455 64.0706 102.526 64.0706 102.596 64.0706V23.4239C102.5 23.4294 102.43 23.4349 102.356 23.4349ZM89.0665 52.1723C87.1374 52.1723 85.2516 51.6838 83.6477 50.7685C82.0437 49.8533 80.7936 48.5524 80.0553 47.0304C79.3171 45.5084 79.124 43.8337 79.5003 42.2179C79.8766 40.6022 80.8056 39.118 82.1696 37.9532C83.5337 36.7883 85.2716 35.995 87.1636 35.6736C89.0556 35.3522 91.0168 35.5172 92.799 36.1476C94.5812 36.778 96.1045 37.8456 97.1763 39.2154C98.248 40.5851 98.82 42.1955 98.82 43.8429C98.82 46.052 97.7924 48.1706 95.9633 49.7327C94.1341 51.2947 91.6533 52.1723 89.0665 52.1723Z" fill="white" stroke="#263238" stroke-width="0.850746" stroke-linecap="round" stroke-linejoin="round"/>
<path d="M114.982 22.0196L81.9448 17.6167L72.261 70.6079L105.298 75.0108L114.982 22.0196Z" fill="#3C8C30" stroke="#263238" stroke-width="0.850746" stroke-linecap="round" stroke-linejoin="round"/>
<path d="M110.433 27.9029C110.016 27.8487 109.615 27.7244 109.254 27.5372C108.893 27.35 108.579 27.1035 108.33 26.8122C108.081 26.5208 107.902 26.1902 107.803 25.8394C107.704 25.4886 107.688 25.1247 107.755 24.7685L87.6367 22.085C87.5044 22.8043 87.0432 23.4495 86.3545 23.8788C85.6658 24.3082 84.8057 24.4866 83.9631 24.375L76.6191 64.5243C77.4606 64.6367 78.2155 65.0295 78.7182 65.6166C79.221 66.2037 79.4304 66.9372 79.3007 67.656C79.3007 67.7161 79.2719 67.7762 79.2559 67.8336L99.3967 70.5199C99.3967 70.4598 99.3967 70.3997 99.4191 70.3395C99.4822 69.9824 99.6276 69.6395 99.8469 69.3306C100.066 69.0218 100.355 68.7531 100.697 68.5402C101.038 68.3272 101.426 68.1742 101.837 68.09C102.248 68.0058 102.675 67.992 103.093 68.0495C103.163 68.0495 103.233 68.0741 103.304 68.085L110.664 27.9139C110.577 27.9166 110.504 27.9139 110.433 27.9029ZM92.1103 54.5389C90.2043 54.2846 88.4295 53.5533 87.0102 52.4376C85.5909 51.3219 84.5909 49.8718 84.1367 48.2708C83.6824 46.6697 83.7943 44.9896 84.4582 43.4428C85.1221 41.8961 86.3082 40.5522 87.8664 39.5811C89.4247 38.6099 91.2852 38.0553 93.2126 37.9871C95.14 37.919 97.0478 38.3405 98.6947 39.1983C100.342 40.0561 101.654 41.3117 102.465 42.8063C103.276 44.3009 103.55 45.9674 103.253 47.595C103.055 48.6759 102.611 49.713 101.944 50.647C101.277 51.5811 100.401 52.3937 99.3663 53.0386C98.3315 53.6835 97.1581 54.1479 95.9131 54.4053C94.6681 54.6627 93.3759 54.7081 92.1103 54.5389Z" fill="white" stroke="#263238" stroke-width="0.850746" stroke-linecap="round" stroke-linejoin="round"/>
<path d="M126.37 31.1766L95.2856 20.6558L72.1459 70.5152L103.23 81.036L126.37 31.1766Z" fill="#3C8C30" stroke="#263238" stroke-width="0.850746" stroke-linecap="round" stroke-linejoin="round"/>
<path d="M120.411 36.0627C119.622 35.7942 118.989 35.2699 118.651 34.6043C118.312 33.9386 118.296 33.1858 118.606 32.5101L99.6749 26.0991C99.521 26.434 99.2911 26.7397 98.9985 26.9986C98.7059 27.2574 98.3563 27.4644 97.9698 27.6076C97.5833 27.7508 97.1675 27.8274 96.7462 27.8331C96.3249 27.8387 95.9065 27.7732 95.5149 27.6404L77.979 65.4177C78.3712 65.5491 78.7291 65.7454 79.0323 65.9953C79.3354 66.2452 79.5777 66.5438 79.7454 66.8738C79.9131 67.2039 80.0028 67.559 80.0094 67.9188C80.016 68.2785 79.9393 68.6358 79.7838 68.9702C79.755 69.0276 79.7262 69.0823 79.6942 69.1369L98.6445 75.5534C98.6669 75.496 98.6861 75.4359 98.7117 75.3785C99.0273 74.702 99.6442 74.1601 100.427 73.8717C101.21 73.5832 102.095 73.5718 102.888 73.8399C102.955 73.8618 103.019 73.8891 103.083 73.9137L120.625 36.1201C120.551 36.1037 120.479 36.0845 120.411 36.0627ZM95.6557 58.5968C93.8622 57.9899 92.3196 56.9425 91.2232 55.5869C90.1267 54.2313 89.5256 52.6285 89.496 50.9812C89.4663 49.3339 90.0093 47.716 91.0564 46.3323C92.1035 44.9485 93.6075 43.8611 95.3784 43.2074C97.1493 42.5537 99.1074 42.3631 101.005 42.6599C102.903 42.9566 104.655 43.7273 106.039 44.8744C107.424 46.0215 108.38 47.4935 108.785 49.1043C109.19 50.7151 109.026 52.3923 108.315 53.9238C107.361 55.9763 105.491 57.6214 103.118 58.4977C100.744 59.3739 98.0602 59.4095 95.6557 58.5968Z" fill="white" stroke="#263238" stroke-width="0.850746" stroke-linecap="round" stroke-linejoin="round"/>
<path d="M135.68 43.2325L108.428 26.6875L72.0387 70.3995L99.2905 86.9445L135.68 43.2325Z" fill="#3C8C30" stroke="#263238" stroke-width="0.850746" stroke-linecap="round" stroke-linejoin="round"/>
<path d="M128.536 46.7588C128.191 46.5509 127.897 46.2867 127.672 45.9814C127.447 45.6761 127.295 45.3359 127.225 44.9802C127.155 44.6246 127.168 44.2606 127.263 43.9092C127.359 43.5578 127.534 43.2261 127.781 42.933L111.182 32.8574C110.688 33.4501 109.939 33.8511 109.099 33.9725C108.259 34.094 107.397 33.9258 106.702 33.5051L79.1279 66.6203C79.473 66.8283 79.7665 67.0925 79.9914 67.3977C80.2164 67.703 80.3683 68.0433 80.4385 68.3989C80.5087 68.7546 80.4958 69.1186 80.4005 69.47C80.3051 69.8213 80.1293 70.1531 79.8831 70.4461C79.8415 70.4981 79.7967 70.5418 79.7519 70.591L96.3631 80.6775C96.4015 80.6256 96.4367 80.5737 96.4815 80.5217C96.725 80.227 97.0344 79.9764 97.3918 79.7843C97.7493 79.5922 98.1477 79.4625 98.5642 79.4025C98.9807 79.3426 99.4069 79.3536 99.8183 79.435C100.23 79.5164 100.618 79.6666 100.961 79.8768C101.019 79.9123 101.073 79.9506 101.128 79.9888L128.715 46.8545C128.657 46.8271 128.598 46.7953 128.536 46.7588ZM98.2063 63.6061C96.6339 62.6516 95.4283 61.3204 94.7419 59.7807C94.0556 58.2411 93.9193 56.5622 94.3502 54.9564C94.7812 53.3506 95.7601 51.89 97.1631 50.7593C98.5662 49.6286 100.33 48.8787 102.233 48.6042C104.135 48.3298 106.089 48.5432 107.85 49.2176C109.61 49.8919 111.096 50.9968 112.121 52.3926C113.146 53.7884 113.663 55.4123 113.607 57.0591C113.551 58.7058 112.924 60.3014 111.806 61.644C110.307 63.4442 108.032 64.6622 105.482 65.0302C102.932 65.3982 100.314 64.8859 98.2063 63.6061Z" fill="white" stroke="#263238" stroke-width="0.850746" stroke-linecap="round" stroke-linejoin="round"/>
<path d="M80.1773 73.7631C91.6613 73.7631 100.971 65.8129 100.971 56.0058C100.971 46.1987 91.6613 38.2485 80.1773 38.2485C68.6934 38.2485 59.3838 46.1987 59.3838 56.0058C59.3838 65.8129 68.6934 73.7631 80.1773 73.7631Z" fill="white" stroke="#263238" stroke-width="0.850746" stroke-linecap="round" stroke-linejoin="round"/>
<path d="M63.5854 45.4771H65.8222" stroke="#263238" stroke-width="0.850746" stroke-linecap="round" stroke-linejoin="round"/>
<path d="M64.6348 44.3159H66.7276" stroke="#263238" stroke-width="0.850746" stroke-linecap="round" stroke-linejoin="round"/>
<path d="M65.6328 43.4141H67.7096" stroke="#263238" stroke-width="0.850746" stroke-linecap="round" stroke-linejoin="round"/>
<path d="M66.9199 42.457H68.7503" stroke="#263238" stroke-width="0.850746" stroke-linecap="round" stroke-linejoin="round"/>
<path d="M62.2222 47.2178H64.3118" stroke="#263238" stroke-width="0.850746" stroke-linecap="round" stroke-linejoin="round"/>
<path d="M60.7021 49.9888H62.8013" stroke="#263238" stroke-width="0.850746" stroke-linecap="round" stroke-linejoin="round"/>
<path d="M59.6592 53.3418H61.896" stroke="#263238" stroke-width="0.850746" stroke-linecap="round" stroke-linejoin="round"/>
<path d="M59.5088 57.083H61.7456" stroke="#263238" stroke-width="0.850746" stroke-linecap="round" stroke-linejoin="round"/>
<path d="M82.1427 73.7631C93.6266 73.7631 102.936 65.8129 102.936 56.0058C102.936 46.1987 93.6266 38.2485 82.1427 38.2485C70.6587 38.2485 61.3491 46.1987 61.3491 56.0058C61.3491 65.8129 70.6587 73.7631 82.1427 73.7631Z" fill="white" stroke="#263238" stroke-width="0.850746" stroke-linecap="round" stroke-linejoin="round"/>
<path d="M98.2803 59.1841C100.336 51.5736 94.7783 43.9809 85.8665 42.2253C76.9548 40.4697 68.0638 45.216 66.008 52.8265C63.9522 60.4369 69.5101 68.0297 78.4218 69.7853C87.3336 71.5409 96.2245 66.7946 98.2803 59.1841Z" fill="white" stroke="#263238" stroke-width="0.850746" stroke-linecap="round" stroke-linejoin="round"/>
<path d="M82.1554 41.8643H81.8354C86.1854 41.916 90.3368 43.428 93.3915 46.0732C96.4463 48.7184 98.1588 52.2842 98.1588 55.9994C98.1588 59.7146 96.4463 63.2804 93.3915 65.9256C90.3368 68.5709 86.1854 70.0828 81.8354 70.1345H82.1554C84.3493 70.1605 86.5273 69.814 88.563 69.115C90.5987 68.4161 92.4514 67.3787 94.0136 66.063C95.5758 64.7474 96.8163 63.1797 97.6629 61.4512C98.5096 59.7226 98.9456 57.8676 98.9456 55.9939C98.9456 54.1203 98.5096 52.2653 97.6629 50.5367C96.8163 48.8081 95.5758 47.2405 94.0136 45.9249C92.4514 44.6092 90.5987 43.5718 88.563 42.8728C86.5273 42.1739 84.3493 41.8274 82.1554 41.8534V41.8643Z" fill="white" stroke="#263238" stroke-width="0.850746" stroke-linecap="round" stroke-linejoin="round"/>
<path d="M82.9165 64.8247C82.8681 64.8333 82.8245 64.8554 82.7926 64.8876C82.7607 64.9198 82.7423 64.9602 82.7405 65.0023L82.7693 66.1474C82.7803 66.2062 82.7748 66.2664 82.7532 66.3231C82.7317 66.3797 82.6948 66.4313 82.6454 66.4734C82.5961 66.5155 82.5358 66.547 82.4694 66.5654C82.4031 66.5838 82.3326 66.5885 82.2637 66.5791H80.5069C80.438 66.5885 80.3675 66.5838 80.3011 66.5654C80.2348 66.547 80.1744 66.5155 80.1251 66.4734C80.0758 66.4313 80.0388 66.3797 80.0173 66.3231C79.9958 66.2664 79.9903 66.2062 80.0013 66.1474L80.0589 64.9778C80.0581 64.9349 80.0397 64.8937 80.0069 64.8612C79.9742 64.8288 79.9292 64.8071 79.8797 64.8001C76.4877 64.4449 74.5197 62.6905 74.5197 60.2501V59.157C74.512 59.0985 74.5199 59.0392 74.5427 58.9836C74.5656 58.9281 74.6029 58.8776 74.6519 58.8361C74.7008 58.7946 74.7601 58.763 74.8253 58.7438C74.8905 58.7247 74.96 58.7183 75.0285 58.7253H78.1229C78.4429 58.7253 78.6317 58.8537 78.6317 59.0559V59.4112C78.6317 60.7092 79.6141 61.8269 81.6365 61.8269C83.5565 61.8269 84.3469 60.8349 84.3469 59.8184C84.3469 58.0148 80.4749 57.7333 77.6269 56.1565C75.7805 55.1918 74.5005 53.9457 74.5005 51.7841C74.5005 49.1142 76.4365 47.2314 79.8605 46.7996C79.9097 46.7921 79.9544 46.7703 79.987 46.738C80.0197 46.7056 80.0383 46.6647 80.0397 46.622L79.9789 45.2556C79.9681 45.1967 79.9736 45.1364 79.9951 45.0797C80.0167 45.0229 80.0536 44.9713 80.1028 44.929C80.152 44.8867 80.2122 44.8549 80.2785 44.8361C80.3449 44.8174 80.4154 44.8122 80.4845 44.8211H82.1837C82.2522 44.8145 82.3216 44.8213 82.3867 44.8408C82.4518 44.8604 82.5108 44.8922 82.5595 44.934C82.6081 44.9758 82.645 45.0264 82.6675 45.0821C82.69 45.1378 82.6974 45.1971 82.6893 45.2556L82.6605 46.6029C82.6613 46.6457 82.6797 46.6869 82.7124 46.7194C82.7451 46.7518 82.7902 46.7735 82.8397 46.7805C86.4109 47.1112 88.4365 48.9667 88.4365 51.5874V52.4263C88.4447 52.4847 88.4373 52.5439 88.4148 52.5995C88.3923 52.6551 88.3553 52.7056 88.3066 52.7472C88.2579 52.7888 88.1988 52.8204 88.1337 52.8396C88.0686 52.8588 87.9992 52.8651 87.9308 52.8581H84.8045C84.4845 52.8581 84.2957 52.757 84.2957 52.6039V52.3525C84.2957 51.0053 83.4029 49.7838 81.3197 49.7838C79.6525 49.7838 78.6413 50.5216 78.6413 51.6639C78.6413 53.3172 81.3485 53.5768 84.1485 54.6152C87.2141 55.7848 88.5548 57.4108 88.5548 59.6489C88.5548 62.4363 86.5517 64.4175 82.9165 64.8247Z" fill="white" stroke="#263238" stroke-width="0.850746" stroke-linecap="round" stroke-linejoin="round"/>
<path d="M83.5537 64.8247C83.505 64.8332 83.4609 64.8552 83.4285 64.8873C83.396 64.9195 83.377 64.96 83.3745 65.0023L83.4033 66.1474C83.4142 66.2062 83.4087 66.2664 83.3872 66.3231C83.3657 66.3797 83.3288 66.4313 83.2794 66.4734C83.2301 66.5155 83.1698 66.547 83.1034 66.5654C83.0371 66.5838 82.9666 66.5885 82.8977 66.5791H81.1409C81.072 66.5885 81.0015 66.5838 80.9351 66.5654C80.8688 66.547 80.8084 66.5155 80.7591 66.4734C80.7098 66.4313 80.6728 66.3797 80.6513 66.3231C80.6298 66.2664 80.6243 66.2062 80.6353 66.1474L80.6961 64.9778C80.6947 64.9351 80.6761 64.8941 80.6434 64.8618C80.6108 64.8294 80.5661 64.8076 80.5169 64.8001C77.1217 64.4449 75.1569 62.6905 75.1569 60.2501V59.157C75.1486 59.0986 75.156 59.0394 75.1785 58.9838C75.201 58.9282 75.238 58.8777 75.2867 58.8361C75.3354 58.7945 75.3945 58.7629 75.4596 58.7437C75.5247 58.7245 75.5941 58.7182 75.6625 58.7253H78.7601C79.0801 58.7253 79.2657 58.8537 79.2657 59.0559V59.4112C79.2657 60.7092 80.2481 61.8269 82.2737 61.8269C84.1777 61.8269 84.9841 60.8349 84.9841 59.8184C84.9841 58.0148 81.1121 57.7333 78.2641 56.1565C76.4177 55.1918 75.1377 53.9457 75.1377 51.7841C75.1377 49.1142 77.0577 47.2314 80.4945 46.7996C80.544 46.7926 80.589 46.771 80.6217 46.7385C80.6545 46.7061 80.6729 46.6648 80.6737 46.622L80.6161 45.2556C80.6052 45.1967 80.6108 45.1364 80.6324 45.0797C80.6539 45.0229 80.6907 44.9713 80.74 44.929C80.7892 44.8867 80.8494 44.8549 80.9157 44.8361C80.9821 44.8174 81.0526 44.8122 81.1217 44.8211H82.7953C82.8639 44.814 82.9336 44.8203 82.999 44.8397C83.0644 44.859 83.1237 44.8909 83.1725 44.9328C83.2212 44.9747 83.2582 45.0256 83.2804 45.0815C83.3027 45.1375 83.3097 45.197 83.3009 45.2556L83.2721 46.6029C83.2735 46.6455 83.2921 46.6865 83.3247 46.7189C83.3574 46.7512 83.402 46.773 83.4513 46.7805C87.0225 47.1112 89.0481 48.9667 89.0481 51.5874V52.4263C89.0563 52.4847 89.0489 52.5439 89.0264 52.5995C89.0039 52.6551 88.9669 52.7056 88.9182 52.7472C88.8695 52.7888 88.8104 52.8204 88.7453 52.8396C88.6802 52.8588 88.6108 52.8651 88.5424 52.8581H85.4161C85.0961 52.8581 84.9105 52.757 84.9105 52.6039V52.3525C84.9105 51.0053 84.0177 49.7838 81.9313 49.7838C80.2641 49.7838 79.2529 50.5216 79.2529 51.6639C79.2529 53.3172 81.9633 53.5768 84.7601 54.6152C87.8289 55.7848 89.1697 57.4108 89.1697 59.6489C89.1953 62.4363 87.1857 64.4175 83.5537 64.8247Z" fill="#263238"/>
<path d="M30.021 111.306H10.3379V93.0542L19.5859 84.8833L30.021 93.0542V111.306Z" fill="#999999" stroke="#263238" stroke-width="0.850746" stroke-linecap="round" stroke-linejoin="round"/>
<path d="M94.5741 111.306H47.4062V72.2858L74.6286 62.5791L94.5741 72.2858V111.306Z" fill="#999999" stroke="#263238" stroke-width="0.850746" stroke-linecap="round" stroke-linejoin="round"/>
<path d="M53.7 89.6133H29.1465V111.33H53.7V89.6133Z" fill="white" stroke="#263238" stroke-width="0.850746" stroke-linecap="round" stroke-linejoin="round"/>
<path d="M82.0431 93.0542H68.5552V111.331H82.0431V93.0542Z" fill="#C2C2C2" stroke="#263238" stroke-width="0.850746" stroke-linecap="round" stroke-linejoin="round"/>
<path d="M77.764 95.6338H71.5752V111.331H77.764V95.6338Z" fill="white" stroke="#263238" stroke-width="0.850746" stroke-linecap="round" stroke-linejoin="round"/>
<path d="M76.7885 95.6338H72.5518V111.331H76.7885V95.6338Z" fill="#263238" stroke="#263238" stroke-width="0.850746" stroke-linecap="round" stroke-linejoin="round"/>
<path d="M76.7887 109.664H65.1919V110.672H76.7887V109.664Z" fill="white" stroke="#263238" stroke-width="0.850746" stroke-linecap="round" stroke-linejoin="round"/>
<path d="M77.764 95.6338H71.5752V96.9236H77.764V95.6338Z" fill="white" stroke="#263238" stroke-width="0.850746" stroke-linecap="round" stroke-linejoin="round"/>
<path d="M25.3712 95.6338H15.4448V111.331H25.3712V95.6338Z" fill="white" stroke="#263238" stroke-width="0.850746" stroke-linecap="round" stroke-linejoin="round"/>
<path d="M23.8031 95.6338H17.0063V111.331H23.8031V95.6338Z" fill="#263238" stroke="#263238" stroke-width="0.850746" stroke-linecap="round" stroke-linejoin="round"/>
<path d="M25.3712 95.6338H15.4448V96.9236H25.3712V95.6338Z" fill="white" stroke="#263238" stroke-width="0.850746" stroke-linecap="round" stroke-linejoin="round"/>
<path d="M60.5804 92.6851H52.6924V104.879H60.5804V92.6851Z" fill="#C2C2C2" stroke="#263238" stroke-width="0.850746" stroke-linecap="round" stroke-linejoin="round"/>
<path d="M119.412 111.306H85.5083V72.2858L102.26 62.5791L119.412 72.2858V111.306Z" fill="white" stroke="#263238" stroke-width="0.850746" stroke-linecap="round" stroke-linejoin="round"/>
<path d="M119.838 72.4136L102.228 62.6577L85.3677 72.4983V73.4493L102.35 63.6087L119.838 73.3646V72.4136Z" fill="white" stroke="#263238" stroke-width="0.850746" stroke-linecap="round" stroke-linejoin="round"/>
<path d="M97.9309 65.0871L83.5405 84.7382L85.5085 84.9541L100.488 63.9858L119.412 87.8289L120.42 87.7934L101.54 62.9966L97.9309 65.0871Z" fill="#263238" stroke="#263238" stroke-width="0.850746" stroke-linecap="round" stroke-linejoin="round"/>
<path d="M85.5089 72.2858H45.3906L61.2498 62.5791L102.229 62.7759L85.5089 72.2858Z" fill="#263238" stroke="#263238" stroke-width="0.850746" stroke-linecap="round" stroke-linejoin="round"/>
<path d="M110.462 89.1216H91.4409V111.306H110.462V89.1216Z" fill="#BABABA" stroke="#263238" stroke-width="0.850746" stroke-linecap="round" stroke-linejoin="round"/>
<path d="M111.973 89.1216H92.9521V111.306H111.973V89.1216Z" fill="white" stroke="#263238" stroke-width="0.850746" stroke-linecap="round" stroke-linejoin="round"/>
<path d="M109.084 92.4883H95.8389V104.173H109.084V92.4883Z" fill="white" stroke="#263238" stroke-width="1.70149" stroke-linecap="round" stroke-linejoin="round"/>
<path d="M105.246 92.4883H99.6777V104.173H105.246V92.4883Z" fill="white" stroke="#263238" stroke-width="1.70149" stroke-linecap="round" stroke-linejoin="round"/>
<path d="M112.549 88.1294H89.3555V90.1106H112.549V88.1294Z" fill="#BABABA" stroke="#263238" stroke-width="0.850746" stroke-linecap="round" stroke-linejoin="round"/>
<path d="M114.059 88.1294H90.8652V90.1106H114.059V88.1294Z" fill="white" stroke="#263238" stroke-width="0.850746" stroke-linecap="round" stroke-linejoin="round"/>
<path d="M78.3758 92.6851H77.1982V103.381H78.3758V92.6851Z" fill="white" stroke="#263238" stroke-width="0.850746" stroke-linecap="round" stroke-linejoin="round"/>
<path d="M81.6556 92.6851H80.478V103.381H81.6556V92.6851Z" fill="white" stroke="#263238" stroke-width="0.850746" stroke-linecap="round" stroke-linejoin="round"/>
<path d="M78.7379 103.233H76.7891V104.433H78.7379V103.233Z" fill="white" stroke="#263238" stroke-width="0.850746" stroke-linecap="round" stroke-linejoin="round"/>
<path d="M82.0396 103.233H80.0908V104.433H82.0396V103.233Z" fill="white" stroke="#263238" stroke-width="0.850746" stroke-linecap="round" stroke-linejoin="round"/>
<path d="M78.7379 93.7539H76.7891V94.4289H78.7379V93.7539Z" fill="white" stroke="#263238" stroke-width="0.850746" stroke-linecap="round" stroke-linejoin="round"/>
<path d="M82.0396 93.7539H80.0908V94.4289H82.0396V93.7539Z" fill="white" stroke="#263238" stroke-width="0.850746" stroke-linecap="round" stroke-linejoin="round"/>
<path d="M82.7436 104.332H75.854V111.306H82.7436V104.332Z" fill="white" stroke="#263238" stroke-width="0.850746" stroke-linecap="round" stroke-linejoin="round"/>
<path d="M61.7582 92.6851H60.5806V103.381H61.7582V92.6851Z" fill="white" stroke="#263238" stroke-width="0.850746" stroke-linecap="round" stroke-linejoin="round"/>
<path d="M65.0379 92.6851H63.8604V103.381H65.0379V92.6851Z" fill="white" stroke="#263238" stroke-width="0.850746" stroke-linecap="round" stroke-linejoin="round"/>
<path d="M62.1197 103.233H60.1709V104.433H62.1197V103.233Z" fill="white" stroke="#263238" stroke-width="0.850746" stroke-linecap="round" stroke-linejoin="round"/>
<path d="M65.4219 103.233H63.4731V104.433H65.4219V103.233Z" fill="white" stroke="#263238" stroke-width="0.850746" stroke-linecap="round" stroke-linejoin="round"/>
<path d="M62.1197 93.7539H60.1709V94.4289H62.1197V93.7539Z" fill="white" stroke="#263238" stroke-width="0.850746" stroke-linecap="round" stroke-linejoin="round"/>
<path d="M65.4219 93.7539H63.4731V94.4289H65.4219V93.7539Z" fill="white" stroke="#263238" stroke-width="0.850746" stroke-linecap="round" stroke-linejoin="round"/>
<path d="M66.1293 104.332H59.2397V111.306H66.1293V104.332Z" fill="white" stroke="#263238" stroke-width="0.850746" stroke-linecap="round" stroke-linejoin="round"/>
<path d="M59.4093 104.332H51.0093V111.306H59.4093V104.332Z" fill="#999999" stroke="#263238" stroke-width="0.850746" stroke-linecap="round" stroke-linejoin="round"/>
<path d="M82.7466 93.677H56.769L61.1754 91.6958H82.7466V93.677Z" fill="white" stroke="#263238" stroke-width="0.850746" stroke-linecap="round" stroke-linejoin="round"/>
<path d="M95.9658 95.459H108.955" stroke="#263238" stroke-width="0.850746" stroke-linecap="round" stroke-linejoin="round"/>
<path d="M95.9658 98.2324H108.955" stroke="#263238" stroke-width="0.850746" stroke-linecap="round" stroke-linejoin="round"/>
<path d="M95.9658 101.006H108.955" stroke="#263238" stroke-width="0.850746" stroke-linecap="round" stroke-linejoin="round"/>
<path d="M18.4368 84.5059L9.02246 93.226H9.80966L19.0544 84.883L18.4368 84.5059Z" fill="#263238" stroke="#263238" stroke-width="0.850746" stroke-linecap="round" stroke-linejoin="round"/>
<path d="M28.3912 92.838H54.2023L73.5399 84.5059H18.436L28.3912 92.838Z" fill="#263238" stroke="#263238" stroke-width="0.850746" stroke-linecap="round" stroke-linejoin="round"/>
<path d="M86.9777 84.5059H72.0305L45.3906 92.838H58.7346L86.9777 84.5059Z" fill="#263238" stroke="#263238" stroke-width="0.850746" stroke-linecap="round" stroke-linejoin="round"/>
<path d="M120.421 85.4322L102.862 62.4254C102.793 62.333 102.698 62.2572 102.585 62.2052C102.472 62.1533 102.345 62.1268 102.217 62.1285C102.089 62.1301 101.963 62.1598 101.852 62.2146C101.741 62.2694 101.648 62.3476 101.582 62.4418L85.7841 84.7245L55.2114 93.1249V94.4721L86.5009 85.8886C86.6769 85.8447 86.8282 85.7475 86.9265 85.6153L102.251 63.994L120.421 87.8015V85.4322Z" fill="white" stroke="#263238" stroke-width="0.850746" stroke-linecap="round" stroke-linejoin="round"/>
<path d="M80.8139 73.7363H75.4795V81.2623H80.8139V73.7363Z" stroke="#263238" stroke-width="1.70149" stroke-linecap="round" stroke-linejoin="round"/>
<path d="M78.1455 73.936V81.0657" stroke="#263238" stroke-width="0.850746" stroke-linecap="round" stroke-linejoin="round"/>
<path d="M80.696 77.4995H75.5952" stroke="#263238" stroke-width="0.850746" stroke-linecap="round" stroke-linejoin="round"/>
<path d="M43.2753 95.7402H37.9409V103.266H43.2753V95.7402Z" stroke="#263238" stroke-width="1.70149" stroke-linecap="round" stroke-linejoin="round"/>
<path d="M40.6064 95.937V103.069" stroke="#263238" stroke-width="0.850746" stroke-linecap="round" stroke-linejoin="round"/>
<path d="M43.1601 99.5034H38.0562" stroke="#263238" stroke-width="0.850746" stroke-linecap="round" stroke-linejoin="round"/>
<path d="M104.709 73.5942H99.3745V81.1202H104.709V73.5942Z" stroke="#263238" stroke-width="1.70149" stroke-linecap="round" stroke-linejoin="round"/>
<path d="M102.04 73.791V80.9234" stroke="#263238" stroke-width="0.850746" stroke-linecap="round" stroke-linejoin="round"/>
<path d="M104.59 77.3574H99.4893" stroke="#263238" stroke-width="0.850746" stroke-linecap="round" stroke-linejoin="round"/>
<path d="M69.4091 73.7363H64.0747V81.2623H69.4091V73.7363Z" stroke="#263238" stroke-width="1.70149" stroke-linecap="round" stroke-linejoin="round"/>
<path d="M66.7402 73.936V81.0657" stroke="#263238" stroke-width="0.850746" stroke-linecap="round" stroke-linejoin="round"/>
<path d="M69.2944 77.4995H64.1904" stroke="#263238" stroke-width="0.850746" stroke-linecap="round" stroke-linejoin="round"/>
<path d="M58.0043 73.7363H52.6699V81.2623H58.0043V73.7363Z" stroke="#263238" stroke-width="1.70149" stroke-linecap="round" stroke-linejoin="round"/>
<path d="M55.3389 73.936V81.0657" stroke="#263238" stroke-width="0.850746" stroke-linecap="round" stroke-linejoin="round"/>
<path d="M57.8891 77.4995H52.7852" stroke="#263238" stroke-width="0.850746" stroke-linecap="round" stroke-linejoin="round"/>
<path d="M34.3116 89.8293H31.2908L27.7676 86.8179H30.7884L34.3116 89.8293Z" fill="#6E6E6E"/>
<path d="M43.627 89.8293H40.6062L37.083 86.8179H40.1038L43.627 89.8293Z" fill="#6E6E6E"/>
<path d="M18.4464 97.9976H17.3521V101.009H18.4464V97.9976Z" fill="#B5B5B5" stroke="#263238" stroke-width="0.850746" stroke-linecap="round" stroke-linejoin="round"/>
<path d="M19.6623 97.9976H18.5679V101.009H19.6623V97.9976Z" fill="#B5B5B5" stroke="#263238" stroke-width="0.850746" stroke-linecap="round" stroke-linejoin="round"/>
<path d="M20.8818 97.9976H19.7842V101.009H20.8818V97.9976Z" fill="#B5B5B5" stroke="#263238" stroke-width="0.850746" stroke-linecap="round" stroke-linejoin="round"/>
<path d="M22.1005 97.9976H21.0029V101.009H22.1005V97.9976Z" fill="#B5B5B5" stroke="#263238" stroke-width="0.850746" stroke-linecap="round" stroke-linejoin="round"/>
<path d="M23.3136 97.9976H22.2192V101.009H23.3136V97.9976Z" fill="#B5B5B5" stroke="#263238" stroke-width="0.850746" stroke-linecap="round" stroke-linejoin="round"/>
<path d="M55.2106 92.9556H28.1387V94.4722H55.2106V92.9556Z" fill="white" stroke="#263238" stroke-width="0.850746" stroke-linecap="round" stroke-linejoin="round"/>
<path d="M55.2112 92.9556H45.0513V94.4722H55.2112V92.9556Z" fill="#BABABA" stroke="#263238" stroke-width="0.850746" stroke-linecap="round" stroke-linejoin="round"/>
<path d="M28.1392 92.9555L18.4368 84.5059L9.02246 93.226H10.3377L18.472 85.8203L28.1392 94.4721V92.9555Z" fill="#BABABA" stroke="#263238" stroke-width="0.850746" stroke-linecap="round" stroke-linejoin="round"/>
<path d="M76.7887 110.388H65.1919V111.33H76.7887V110.388Z" fill="white" stroke="#263238" stroke-width="0.850746" stroke-linecap="round" stroke-linejoin="round"/>
<path d="M85.3679 72.4985H45.2368V73.4468H85.3679V72.4985Z" fill="#BABABA" stroke="#263238" stroke-width="0.850746" stroke-linecap="round" stroke-linejoin="round"/>
<path d="M40.8144 101.921H39.4832C39.0661 101.921 38.728 102.21 38.728 102.566V102.793C38.728 103.149 39.0661 103.438 39.4832 103.438H40.8144C41.2315 103.438 41.5696 103.149 41.5696 102.793V102.566C41.5696 102.21 41.2315 101.921 40.8144 101.921Z" fill="#263238" stroke="#263238" stroke-width="0.850746" stroke-linecap="round" stroke-linejoin="round"/>
<path d="M48.533 98.1777H60.1681L66.0913 101.922L76.2769 103.438V107.991H30.6738L27.2402 106.677V104.955L41.4546 102.427L47.5186 98.4701C47.8102 98.2806 48.1665 98.1779 48.533 98.1777Z" fill="#3C8C30" stroke="#263238" stroke-width="0.850746" stroke-linecap="round" stroke-linejoin="round"/>
<path d="M50.5743 102.427H41.3359L47.3999 98.4701C47.6915 98.2806 48.0479 98.1779 48.4143 98.1777H57.0895L50.5743 102.427Z" fill="white" stroke="#263238" stroke-width="0.850746" stroke-linecap="round" stroke-linejoin="round"/>
<path d="M47.1968 110.468C48.5377 109.323 48.5377 107.467 47.1968 106.322C45.8559 105.177 43.6819 105.177 42.341 106.322C41.0001 107.467 41.0001 109.323 42.341 110.468C43.6819 111.614 45.8559 111.614 47.1968 110.468Z" fill="white" stroke="#263238" stroke-width="0.850746" stroke-linecap="round" stroke-linejoin="round"/>
<path d="M47.1478 111.099C48.9017 110.484 49.7389 108.77 49.0178 107.272C48.2967 105.775 46.2904 105.06 44.5365 105.676C42.7826 106.291 41.9454 108.005 42.6665 109.502C43.3876 111 45.394 111.715 47.1478 111.099Z" fill="#263238" stroke="#263238" stroke-width="0.850746" stroke-linecap="round" stroke-linejoin="round"/>
<path d="M47.6111 108.396C47.6111 108.696 47.5069 108.989 47.3118 109.238C47.1166 109.488 46.8392 109.682 46.5147 109.797C46.1902 109.912 45.8331 109.942 45.4886 109.883C45.1441 109.825 44.8276 109.68 44.5793 109.468C44.3309 109.256 44.1617 108.986 44.0932 108.691C44.0247 108.397 44.0599 108.092 44.1943 107.815C44.3287 107.538 44.5563 107.301 44.8484 107.135C45.1404 106.968 45.4838 106.879 45.8351 106.879C46.0684 106.879 46.2996 106.918 46.5152 106.994C46.7309 107.07 46.9268 107.181 47.0918 107.322C47.2568 107.463 47.3876 107.631 47.4767 107.815C47.5658 107.999 47.6115 108.196 47.6111 108.396Z" fill="white" stroke="#263238" stroke-width="0.850746" stroke-linecap="round" stroke-linejoin="round"/>
<path d="M36.9525 105.463C36.7734 105.464 36.5947 105.476 36.4181 105.502C36.2426 105.476 36.0649 105.463 35.8869 105.463C35.4269 105.451 34.9689 105.518 34.5398 105.66C34.1108 105.802 33.7195 106.017 33.3892 106.29C33.0589 106.564 32.7963 106.891 32.617 107.253C32.4376 107.615 32.3452 108.004 32.3452 108.397C32.3452 108.79 32.4376 109.179 32.617 109.541C32.7963 109.903 33.0589 110.23 33.3892 110.504C33.7195 110.777 34.1108 110.991 34.5398 111.133C34.9689 111.275 35.4269 111.342 35.8869 111.33C36.065 111.329 36.2426 111.316 36.4181 111.289C36.5946 111.316 36.7733 111.329 36.9525 111.33C37.8454 111.307 38.6926 110.988 39.3146 110.44C39.9365 109.893 40.2844 109.16 40.2844 108.397C40.2844 107.634 39.9365 106.901 39.3146 106.353C38.6926 105.806 37.8454 105.487 36.9525 105.463Z" fill="#263238" stroke="#263238" stroke-width="0.850746" stroke-linecap="round" stroke-linejoin="round"/>
<path d="M63.1317 105.463C62.9526 105.463 62.7739 105.476 62.5973 105.501C62.4207 105.476 62.242 105.463 62.0629 105.463C61.17 105.486 60.3227 105.805 59.7008 106.353C59.0788 106.901 58.731 107.634 58.731 108.396C58.731 109.159 59.0788 109.892 59.7008 110.44C60.3227 110.988 61.17 111.307 62.0629 111.33C62.242 111.329 62.4208 111.315 62.5973 111.289C62.7738 111.315 62.9525 111.329 63.1317 111.33C64.0246 111.307 64.8718 110.988 65.4938 110.44C66.1158 109.892 66.4636 109.159 66.4636 108.396C66.4636 107.634 66.1158 106.901 65.4938 106.353C64.8718 105.805 64.0246 105.486 63.1317 105.463Z" fill="#263238" stroke="#263238" stroke-width="0.850746" stroke-linecap="round" stroke-linejoin="round"/>
<path d="M73.699 109.084C74.1369 107.508 72.9961 105.928 71.151 105.554C69.306 105.18 67.4553 106.154 67.0174 107.73C66.5796 109.305 67.7203 110.886 69.5654 111.26C71.4105 111.633 73.2612 110.659 73.699 109.084Z" fill="white" stroke="#263238" stroke-width="0.850746" stroke-linecap="round" stroke-linejoin="round"/>
<path d="M72.7362 111.098C74.4901 110.482 75.3273 108.769 74.6062 107.271C73.8851 105.773 71.8787 105.058 70.1249 105.674C68.371 106.29 67.5338 108.003 68.2549 109.501C68.976 110.999 70.9823 111.714 72.7362 111.098Z" fill="#263238" stroke="#263238" stroke-width="0.850746" stroke-linecap="round" stroke-linejoin="round"/>
<path d="M73.1956 108.396C73.1962 108.696 73.0923 108.99 72.8971 109.241C72.7018 109.491 72.424 109.686 72.0987 109.802C71.7735 109.917 71.4155 109.947 71.0701 109.889C70.7247 109.83 70.4073 109.685 70.1583 109.473C69.9093 109.26 69.7398 108.989 69.6712 108.694C69.6027 108.399 69.6382 108.093 69.7733 107.816C69.9083 107.538 70.1369 107.301 70.4299 107.134C70.723 106.967 71.0674 106.878 71.4196 106.879C71.6528 106.879 71.8838 106.918 72.0992 106.994C72.3147 107.071 72.5105 107.182 72.6754 107.323C72.8403 107.464 72.9712 107.631 73.0604 107.815C73.1497 107.999 73.1956 108.196 73.1956 108.396Z" fill="white" stroke="#263238" stroke-width="0.850746" stroke-linecap="round" stroke-linejoin="round"/>
<path d="M75.2109 101.922L69.9694 98.6068C69.5277 98.3276 68.9925 98.1771 68.443 98.1777H57.0894L50.5742 102.427L36.3599 104.955V106.677L39.7935 107.991H42.1006C42.0645 107.841 42.0463 107.688 42.0462 107.535V107.433C42.0505 106.856 42.322 106.304 42.8017 105.896C43.2813 105.489 43.93 105.261 44.6062 105.261H47.2142C47.8904 105.261 48.5391 105.489 49.0188 105.896C49.4984 106.304 49.77 106.856 49.7742 107.433V107.535C49.7742 107.693 49.7518 107.843 49.7166 109.103H67.627C67.5918 107.843 67.5726 107.693 67.5726 107.535V107.433C67.5768 106.858 67.8461 106.308 68.3223 105.901C68.7985 105.495 69.4431 105.265 70.1166 105.261H72.7246C73.4007 105.261 74.0495 105.489 74.5291 105.896C75.0087 106.304 75.2803 106.856 75.2845 107.433V107.535C75.2835 107.688 75.2642 107.841 75.2269 107.991H79.0157V104.613C79.0157 104.262 78.8986 103.919 78.6782 103.623C78.4577 103.326 78.143 103.09 77.7709 102.941L75.2109 101.922Z" fill="#3C8C30" stroke="#263238" stroke-width="0.850746" stroke-linecap="round" stroke-linejoin="round"/>
<path d="M62.6545 98.8882H57.365L51.9346 102.427H62.6545V98.8882Z" fill="white" stroke="#263238" stroke-width="0.850746" stroke-linecap="round" stroke-linejoin="round"/>
<path d="M63.5444 98.8882H67.8516C68.4136 98.8878 68.9601 99.0452 69.4068 99.3363L74.1556 102.427H63.5444V98.8882Z" fill="white" stroke="#263238" stroke-width="0.850746" stroke-linecap="round" stroke-linejoin="round"/>
<path d="M36.3602 104.955H27.2402V106.674H36.3602V104.955Z" fill="white" stroke="#263238" stroke-width="0.850746" stroke-linecap="round" stroke-linejoin="round"/>
<path d="M79.7105 106.98H76.7505V108.396H79.7105V106.98Z" fill="#263238" stroke="#263238" stroke-width="0.850746" stroke-linecap="round" stroke-linejoin="round"/>
<path d="M39.5599 106.676H26.8848V108.395H39.5599V106.676Z" fill="#263238" stroke="#263238" stroke-width="0.850746" stroke-linecap="round" stroke-linejoin="round"/>
<path d="M54.3188 101.921H52.9876C52.5705 101.921 52.2324 102.21 52.2324 102.566V102.793C52.2324 103.149 52.5705 103.438 52.9876 103.438H54.3188C54.7359 103.438 55.074 103.149 55.074 102.793V102.566C55.074 102.21 54.7359 101.921 54.3188 101.921Z" fill="#263238" stroke="#263238" stroke-width="0.850746" stroke-linecap="round" stroke-linejoin="round"/>
<path d="M35.8831 105.059H33.752V106.474H35.8831V105.059Z" fill="white" stroke="#263238" stroke-width="0.850746" stroke-linecap="round" stroke-linejoin="round"/>
<path d="M29.7269 105.059H27.5957V106.474H29.7269V105.059Z" fill="white" stroke="#263238" stroke-width="0.850746" stroke-linecap="round" stroke-linejoin="round"/>
<path d="M29.7266 105.564H33.6337" stroke="#263238" stroke-width="0.850746" stroke-linecap="round" stroke-linejoin="round"/>
<path d="M29.7266 106.081H33.6337" stroke="#263238" stroke-width="0.850746" stroke-linecap="round" stroke-linejoin="round"/>
<path d="M51.1338 107.382H66.6729" stroke="#263238" stroke-width="1.70149" stroke-linecap="round" stroke-linejoin="round"/>
<path d="M63.0128 98.519V108.33H50.8529V107.163C50.8528 106.47 50.6159 105.793 50.1713 105.214L49.7969 104.728L51.9057 103.116" stroke="#263238" stroke-width="0.850746" stroke-linecap="round" stroke-linejoin="round"/>
<path d="M74.2766 102.635V104.862H69.675C69.0651 104.863 68.4804 105.07 68.0494 105.439L67.787 105.663C67.3565 106.031 67.1149 106.53 67.115 107.051V108.226H63.6782" stroke="#263238" stroke-width="0.850746" stroke-linecap="round" stroke-linejoin="round"/>
<path d="M62.6356 103.496H61.1924V104.201H62.6356V103.496Z" fill="#263238" stroke="#263238" stroke-width="0.850746" stroke-linecap="round" stroke-linejoin="round"/>
<path d="M73.8348 103.496H72.3916V104.201H73.8348V103.496Z" fill="#263238" stroke="#263238" stroke-width="0.850746" stroke-linecap="round" stroke-linejoin="round"/>
<path d="M122.404 111.276C122.404 111.276 119.646 108.92 120.42 107.128C121.195 105.335 123.3 107.977 123.3 107.977C123.3 107.977 123.521 103.829 125.067 103.829C126.612 103.829 126.283 107.316 126.283 107.316C126.283 107.316 127.163 106.373 128.158 106.939C129.153 107.505 128.267 110.426 128.267 110.426C128.267 110.426 128.929 107.882 130.366 107.882C131.803 107.882 130.475 111.18 130.475 111.18" fill="#3C8C30"/>
<path d="M121.745 111.181C121.745 111.181 119.979 109.109 120.529 108.721C121.08 108.333 121.854 109.475 121.854 109.475C121.854 109.475 121.304 106.743 123.067 106.647C124.83 106.551 124.171 109.945 124.171 109.945C124.171 109.945 125.054 107.871 125.937 108.437C126.82 109.003 126.491 110.7 126.491 110.7C126.491 110.7 126.6 109.287 127.704 109.287C128.808 109.287 129.47 110.415 129.47 110.415C129.47 110.415 130.462 109.003 131.236 109.475C132.011 109.948 131.236 111.265 131.236 111.265" stroke="#263238" stroke-width="0.850746" stroke-linecap="round" stroke-linejoin="round"/>
<path d="M87.4412 111.276C87.4412 111.276 85.486 109.607 86.0332 108.339C86.5804 107.071 88.0652 108.94 88.0652 108.94C88.0652 108.94 88.222 106 89.3164 106C90.4107 106 90.1771 108.473 90.1771 108.473C90.1771 108.473 90.8171 107.803 91.5083 108.199C92.1995 108.596 91.5851 110.659 91.5851 110.659C91.5851 110.659 92.0555 108.855 93.0699 108.855C94.0843 108.855 93.1499 111.192 93.1499 111.192" fill="#3C8C30"/>
<path d="M86.9703 111.208C86.9703 111.208 85.7191 109.74 86.1127 109.473C86.5063 109.205 87.0503 110.019 87.0503 110.019C87.0503 110.019 86.6599 108.082 87.9111 108.016C89.1623 107.95 88.6919 110.352 88.6919 110.352C88.6919 110.352 89.3159 108.882 89.9431 109.284C90.5703 109.686 90.3335 110.885 90.3335 110.885C90.3335 110.885 90.4135 109.885 91.1943 109.885C91.9751 109.885 92.4455 110.686 92.4455 110.686C92.4455 110.686 93.1495 109.683 93.6967 110.019C94.2439 110.355 93.6967 111.287 93.6967 111.287" stroke="#263238" stroke-width="0.850746" stroke-linecap="round" stroke-linejoin="round"/>
<path d="M3.02259 111.276C3.02259 111.276 0.974592 109.527 1.54739 108.196C2.12019 106.865 3.67858 108.825 3.67858 108.825C3.67858 108.825 3.84498 105.748 4.99058 105.748C6.13618 105.748 5.89298 108.335 5.89298 108.335C5.89298 108.335 6.53297 107.636 7.28497 108.062C8.03697 108.488 7.36817 110.65 7.36817 110.65C7.36817 110.65 7.85777 108.762 8.92337 108.762C9.98897 108.762 9.00657 111.221 9.00657 111.221" fill="#3C8C30"/>
<path d="M2.5324 111.205C2.5324 111.205 1.22041 109.667 1.63 109.385C2.0396 109.104 2.6124 109.945 2.6124 109.945C2.6124 109.945 2.2028 107.918 3.5148 107.847C4.82679 107.776 4.334 110.306 4.334 110.306C4.334 110.306 4.97399 108.768 5.64599 109.186C6.31799 109.604 6.05559 110.866 6.05559 110.866C6.05559 110.866 6.13879 109.817 6.95799 109.817C7.77718 109.817 8.26998 110.656 8.26998 110.656C8.26998 110.656 9.00598 109.607 9.57878 109.956C10.1516 110.306 9.57878 111.287 9.57878 111.287" stroke="#263238" stroke-width="0.850746" stroke-linecap="round" stroke-linejoin="round"/>
<path d="M0.874512 111.331H132.394" stroke="#263238" stroke-width="0.850746" stroke-linecap="round" stroke-linejoin="round"/>
</svg>
