<svg width="134" height="112" viewBox="0 0 134 112" fill="none" xmlns="http://www.w3.org/2000/svg">
<path d="M76.9733 52.6893C75.4062 53.2196 71.6766 52.9442 71.6738 52.9442C71.6711 52.9442 72.6235 50.7363 72.7038 50.6037C73.6258 49.074 76.3891 46.6086 78.4795 46.9885C79.9885 47.2613 80.7416 48.7094 80.3125 50.0071C79.8833 51.3049 78.3079 52.238 76.9733 52.6893Z" fill="#7DB275"/>
<path d="M28.8126 38.2667C30.9418 38.1749 33.2814 40.9845 33.9515 42.6239C34.0069 42.7666 34.6354 45.0816 34.5966 45.0791H34.5495C34.9233 45.5201 35.3193 45.9969 35.7374 46.5272C36.5043 47.5088 37.3599 48.6255 38.2016 49.8977C39.1274 51.2592 39.965 52.6699 40.7101 54.1223C41.5547 55.7438 42.2404 57.4316 42.759 59.1654L42.7757 59.2291C42.8006 58.6554 42.9335 57.0518 42.9584 56.9345C43.3183 55.2136 45.107 52.0904 47.2223 51.8354C48.748 51.662 49.9524 52.8195 49.9911 54.1759C50.0299 55.5322 48.8476 56.881 47.7318 57.6943C46.4748 58.6096 43.0968 59.3744 42.8283 59.4356C43.3093 61.212 43.6608 63.016 43.8804 64.8356C44.0161 65.8962 44.1158 66.967 44.1988 68.0429C44.2403 67.533 44.2791 67.1021 44.293 67.0409C44.6501 65.32 46.4415 62.1968 48.5569 61.9418C50.0825 61.7685 51.2869 62.9285 51.3257 64.2849C51.3645 65.6412 50.1822 66.9874 49.0691 67.8007C47.9561 68.614 45.0738 69.3304 44.3123 69.5089C44.34 69.9219 44.3732 70.3324 44.3982 70.7454C44.5255 72.7264 44.6418 74.7049 44.8218 76.64C44.8855 77.3207 44.9741 77.9913 45.0599 78.6618C45.0959 78.2207 45.1319 77.851 45.143 77.795C45.5002 76.074 47.2916 72.9508 49.4069 72.6958C50.9298 72.5225 52.137 73.68 52.1757 75.0363C52.2145 76.3927 51.0322 77.7414 49.9164 78.5547C48.8006 79.368 46.2007 80.0156 45.298 80.2298C45.4088 80.9131 45.5195 81.5989 45.6607 82.2567C45.766 82.7054 45.8379 83.1414 45.9708 83.5875C46.1038 84.0337 46.2173 84.4671 46.3391 84.9006C46.616 85.7266 46.8762 86.5807 47.1559 87.3813C47.3497 87.9396 47.5435 88.4674 47.7373 89.0003C47.6654 88.3221 47.5574 86.9912 47.5601 86.879C47.6854 85.3417 48.2353 83.8594 49.1577 82.5728C49.1642 82.4013 49.1874 82.2306 49.227 82.0629C49.5481 80.7371 50.9768 79.8193 52.436 80.2655C54.46 80.885 55.5454 84.281 55.5287 86.0326C55.5287 86.1371 55.3792 87.2564 55.274 87.9626C55.4069 87.5572 55.526 87.162 55.6672 86.7439C55.9441 85.9178 56.2209 85.102 56.5477 84.2224L57.0599 82.9476C57.2205 82.5193 57.4475 82.0884 57.6441 81.6524C58.1176 80.6505 58.6492 79.6561 59.2112 78.6669C58.4249 78.4476 55.6533 77.6292 54.5735 76.7675C53.4937 75.9057 52.3917 74.5417 52.4914 73.1599C52.5911 71.778 53.8536 70.6995 55.3682 70.9367C57.4697 71.2655 59.1033 74.4703 59.3746 76.204C59.3912 76.3137 59.4328 77.5782 59.4438 78.2743C59.7844 77.6802 60.1222 77.0887 60.4904 76.4896C61.5509 74.7865 62.6806 73.0961 63.813 71.4032C64.1563 70.8933 64.4914 70.3656 64.8291 69.848C64.5523 69.7715 61.2297 68.8664 60.0225 67.9001C58.9482 67.0409 57.8379 65.6744 57.9404 64.2925C58.0428 62.9107 59.2999 61.8322 60.8144 62.0693C62.9159 62.3982 64.5495 65.603 64.8208 67.3367C64.843 67.4693 64.9011 69.2896 64.8901 69.7511C65.6349 68.6089 66.3631 67.4565 67.0331 66.3041C67.9465 64.746 68.7484 63.1347 69.4337 61.4804C69.3035 61.4447 65.8342 60.5141 64.5966 59.5248C63.5223 58.6682 62.4148 57.2991 62.5144 55.9172C62.6141 54.5354 63.8767 53.4569 65.3912 53.694C67.4927 54.0229 69.1236 57.2277 69.3977 58.964C69.417 59.0991 69.4807 61.0571 69.4641 61.4141C69.5029 61.3172 69.5555 61.2229 69.5942 61.126C70.2314 59.4495 70.7058 57.7244 71.0119 55.9708C71.1946 55.0045 71.3081 54.0714 71.3995 53.1663C70.735 53.0541 67.7004 52.5085 66.4793 51.7309C65.3081 50.9864 64.0428 49.7397 63.9874 48.3553C63.9321 46.9708 65.0479 45.7726 66.579 45.8541C68.7082 45.9689 70.7128 48.9901 71.1891 50.6983C71.2168 50.7901 71.3663 51.7538 71.466 52.46C71.4992 52.047 71.5435 51.6238 71.5684 51.2286C71.6625 49.7473 71.6487 48.3858 71.6265 47.1774C71.6072 46.4915 71.5767 45.872 71.5407 45.2932C70.951 44.8675 68.5947 43.1312 67.9108 41.9482C67.2269 40.7652 66.7479 39.1437 67.382 37.8893C68.016 36.6349 69.6164 36.0486 70.9343 36.7701C72.7673 37.7899 73.0359 41.3083 72.6095 43.0165C72.5707 43.1644 71.7096 45.4105 71.6764 45.3901L71.6404 45.3646C71.6875 45.9204 71.7318 46.5196 71.765 47.1748C71.8148 48.3833 71.8619 49.7473 71.801 51.2362C71.7561 52.8421 71.6101 54.4442 71.3635 56.0345C71.0951 57.8168 70.655 59.5736 70.0483 61.284C70.0417 61.3042 70.0334 61.3238 70.0234 61.3427C70.3889 60.8787 71.4632 59.6064 71.5573 59.5172C72.8863 58.2654 76.2643 56.5597 78.1637 57.4342C79.5481 58.0665 79.8527 59.6447 79.0635 60.792C78.2744 61.9393 76.4913 62.467 75.0737 62.5767C73.4761 62.7016 70.2006 61.6257 69.9403 61.539C69.2651 63.2673 68.465 64.9521 67.5453 66.582C67.0248 67.533 66.4655 68.4763 65.8841 69.4171C66.2135 69.0245 66.5153 68.6752 66.5624 68.6293C67.8914 67.3749 71.2694 65.6718 73.1688 66.5463C74.5532 67.1761 74.855 68.7542 74.0714 69.9041C73.2878 71.0539 71.4964 71.5791 70.0788 71.6888C68.6612 71.7984 65.8287 70.9367 65.0949 70.697C64.8707 71.0565 64.6519 71.416 64.4249 71.7755C63.3451 73.4913 62.2569 75.1995 61.2463 76.9052C60.8919 77.5043 60.5652 78.1086 60.2329 78.7128C60.5292 78.3635 60.7867 78.0729 60.8227 78.0295C62.1517 76.7777 65.5297 75.072 67.4318 75.9465C68.8162 76.5788 69.118 78.157 68.3317 79.3043C67.5453 80.4516 65.7567 80.9794 64.3418 81.089C62.9574 81.1961 60.3658 80.4184 59.4826 80.1405C59.167 80.7677 58.8485 81.3949 58.5717 82.0145C58.3917 82.4428 58.1868 82.8431 58.0345 83.2892C57.8822 83.7354 57.7133 84.1484 57.5555 84.564C57.2786 85.3901 57.0017 86.2391 56.7498 87.0498C56.5754 87.6133 56.4203 88.1538 56.2625 88.6969C56.6086 88.0926 57.3174 86.9275 57.3866 86.8382C58.4941 85.413 61.5398 83.2688 63.5776 83.8552C65.0396 84.2887 65.6072 85.8031 65.0174 87.0473C64.4277 88.2915 62.7498 89.064 61.3681 89.3699C59.8453 89.7065 56.5615 89.1405 56.1517 89.0665C55.8942 89.9665 55.6533 90.8512 55.4401 91.6722C55.3931 91.8506 55.3543 92.0113 55.31 92.1821H53.9782C54.0502 91.9271 54.1222 91.6569 54.1997 91.3866C54.4572 90.4713 54.7535 89.5 55.0664 88.5056C54.0954 88.0813 53.1516 87.6063 52.2394 87.083C51.0793 88.1028 48.2053 89.2246 47.8342 89.3776C48.1582 90.2572 48.4822 91.1113 48.8006 91.9118L48.9141 92.1923H47.5823C47.2611 91.328 46.9399 90.4076 46.6187 89.4566C46.2117 89.5102 42.8975 89.941 41.3913 89.5408C40.0262 89.1762 38.3954 88.3603 37.8583 87.0651C37.3211 85.77 37.9773 84.3065 39.4586 83.9394C41.5158 83.4295 44.4563 85.7062 45.4946 87.1773C45.5555 87.264 46.1038 88.2736 46.4388 88.9161C46.3031 88.5107 46.1619 88.1181 46.0345 87.7C45.7577 86.8739 45.5251 86.0428 45.262 85.1504C45.1485 84.7144 45.0378 84.2734 44.9242 83.8298C44.8107 83.3861 44.7332 82.9145 44.6335 82.4504C44.4286 81.3745 44.2791 80.2757 44.1517 79.1666C43.3682 79.3808 40.5523 80.1074 39.1485 79.9315C37.7447 79.7556 35.9949 79.1845 35.2501 77.9785C34.5052 76.7726 34.9123 75.2352 36.316 74.6641C38.2542 73.8712 41.5491 75.7145 42.8144 77.025C42.8947 77.1066 43.6866 78.1391 44.1102 78.7153C44.041 78.0474 43.969 77.3794 43.9219 76.7012C43.7863 74.7457 43.717 72.7596 43.6451 70.7786C43.6229 70.1718 43.5897 69.5675 43.562 68.9633C43.2851 69.0423 39.9626 69.9831 38.3843 69.7817C36.975 69.6134 35.2307 69.0347 34.4859 67.8287C33.7411 66.6228 34.1481 65.0854 35.5519 64.5143C37.5039 63.7214 40.7849 65.5647 42.0502 66.8752C42.1471 66.9746 43.2851 68.461 43.5565 68.8537C43.49 67.5203 43.4125 66.1945 43.2796 64.8891C43.1082 63.1258 42.8113 61.3747 42.3908 59.6472C42.2634 59.6855 38.8107 60.667 37.1854 60.4733C35.7761 60.3025 34.0318 59.7263 33.2897 58.5203C32.5477 57.3144 32.9492 55.777 34.3557 55.2059C36.2939 54.413 39.586 56.2563 40.8541 57.5668C40.951 57.6688 42.1776 59.2699 42.3769 59.5758C42.352 59.4764 42.3382 59.3693 42.3105 59.2699C41.8396 57.5475 41.2021 55.8674 40.4056 54.2498C39.9792 53.3524 39.5168 52.5136 39.0461 51.7003C38.4231 51.9552 35.5657 53.0337 34.0844 53.0056C32.6612 52.9776 30.8587 52.5799 29.9755 51.4581C29.0922 50.3363 29.3137 48.7657 30.64 48.057C32.484 47.0703 35.9672 48.5669 37.382 49.7448C37.4568 49.8085 38.1628 50.5377 38.6668 51.0731C38.448 50.7136 38.2293 50.3388 38.0133 49.9972C37.2048 48.7224 36.377 47.5827 35.6377 46.5884C35.2113 46.025 34.807 45.5252 34.4333 45.0587C33.6885 45.0051 30.6843 44.7527 29.4023 44.1128C28.1204 43.4729 26.7554 42.3663 26.5311 40.9972C26.3068 39.6281 27.2787 38.3253 28.8126 38.2667Z" fill="#7DB275"/>
<path d="M39.146 51.3485C39.1128 51.3664 38.6171 49.0259 38.5922 48.8755C38.4427 47.1265 39.2734 43.6693 41.2447 42.9248C42.6651 42.3869 44.1603 43.2104 44.5673 44.5106C44.9743 45.8109 44.2406 47.3993 43.3989 48.4522C42.4298 49.6913 39.1488 51.346 39.146 51.3485Z" fill="#7DB275"/>
<path d="M37.9662 87.9192C37.9662 87.9192 29.5712 87.8223 27.6081 84.9312H5.6792C5.6792 84.9312 7.46231 87.8937 10.2311 87.9192H37.9662Z" fill="white" stroke="#263238" stroke-miterlimit="10"/>
<path d="M26.9713 85.8848H9.107C9.107 85.8848 9.43926 86.5527 8.52832 86.9199C9.10257 87.4085 9.82329 87.7265 10.5966 87.8326H33.3395C33.3395 87.8326 30.4434 87.5777 28.8735 86.7363C28.8735 86.7363 27.0544 86.9811 26.9713 85.8848Z" fill="white" stroke="#263238" stroke-miterlimit="10"/>
<path d="M34.6545 111.031H85.0522V105.289H34.6545V111.031Z" fill="#263238" stroke="#263238" stroke-miterlimit="10"/>
<path d="M6.91968 111.031H57.3174V105.289H6.91968V111.031Z" fill="white" stroke="#263238" stroke-miterlimit="10"/>
<path d="M56.968 106.822H44.6606" stroke="#263238" stroke-miterlimit="10"/>
<path d="M54.5397 108.099H36.6865" stroke="#263238" stroke-miterlimit="10"/>
<path d="M47.4326 109.246H50.5531" stroke="#263238" stroke-miterlimit="10"/>
<path d="M51.7686 109.246H56.7939" stroke="#263238" stroke-miterlimit="10"/>
<path d="M7.21582 108.991H22.9897" stroke="#263238" stroke-miterlimit="10"/>
<path d="M8.60303 108.227H10.6824" stroke="#263238" stroke-miterlimit="10"/>
<path d="M20.3896 108.099H13.4565" stroke="#263238" stroke-miterlimit="10"/>
<path d="M7.21582 106.566H13.2823" stroke="#263238" stroke-miterlimit="10"/>
<path d="M84.3573 107.714H81.2368" stroke="#8A8A8A" stroke-miterlimit="10"/>
<path d="M85.0521 108.991H75.3447" stroke="#8A8A8A" stroke-miterlimit="10"/>
<path d="M57.835 109.756H62.517" stroke="#8A8A8A" stroke-miterlimit="10"/>
<path d="M57.3149 107.714H69.9711" stroke="#8A8A8A" stroke-miterlimit="10"/>
<path d="M80.8905 106.057H73.6113" stroke="#8A8A8A" stroke-miterlimit="10"/>
<path d="M29.9226 110.903H35.8174V105.289H29.9226V110.903Z" fill="white" stroke="#263238" stroke-miterlimit="10"/>
<path d="M34.0071 105.243H84.4048V99.5016H34.0071V105.243Z" fill="#263238" stroke="#263238" stroke-miterlimit="10"/>
<path d="M6.27173 105.243H56.6694V99.5016H6.27173V105.243Z" fill="white" stroke="#263238" stroke-miterlimit="10"/>
<path d="M56.32 101.032H44.0127" stroke="#263238" stroke-miterlimit="10"/>
<path d="M53.8951 102.306H36.0391" stroke="#263238" stroke-miterlimit="10"/>
<path d="M46.7871 103.456H49.9075" stroke="#263238" stroke-miterlimit="10"/>
<path d="M51.1206 103.456H56.1487" stroke="#263238" stroke-miterlimit="10"/>
<path d="M6.56787 103.201H22.3445" stroke="#263238" stroke-miterlimit="10"/>
<path d="M7.95508 102.434H10.0344" stroke="#263238" stroke-miterlimit="10"/>
<path d="M19.7444 102.306H12.8086" stroke="#263238" stroke-miterlimit="10"/>
<path d="M6.56787 100.776H12.6371" stroke="#263238" stroke-miterlimit="10"/>
<path d="M83.7122 101.924H80.5918" stroke="#8A8A8A" stroke-miterlimit="10"/>
<path d="M84.4042 103.201H74.6968" stroke="#8A8A8A" stroke-miterlimit="10"/>
<path d="M57.1899 103.966H61.8692" stroke="#8A8A8A" stroke-miterlimit="10"/>
<path d="M56.6694 101.924H69.3229" stroke="#8A8A8A" stroke-miterlimit="10"/>
<path d="M80.2453 100.267H72.9634" stroke="#8A8A8A" stroke-miterlimit="10"/>
<path d="M29.2776 105.116H35.1724V99.5016H29.2776V105.116Z" fill="white" stroke="#263238" stroke-miterlimit="10"/>
<path d="M36.0554 99.4531H86.4531V93.7115H36.0554V99.4531Z" fill="#263238" stroke="#263238" stroke-miterlimit="10"/>
<path d="M8.32056 99.4531H58.7183V93.7115H8.32056V99.4531Z" fill="white" stroke="#263238" stroke-miterlimit="10"/>
<path d="M58.3693 95.2417H46.062" stroke="#263238" stroke-miterlimit="10"/>
<path d="M55.9416 96.5161H38.0884" stroke="#263238" stroke-miterlimit="10"/>
<path d="M48.8335 97.666H51.9539" stroke="#263238" stroke-miterlimit="10"/>
<path d="M53.1694 97.666H58.1948" stroke="#263238" stroke-miterlimit="10"/>
<path d="M8.6167 97.4111H24.3906" stroke="#263238" stroke-miterlimit="10"/>
<path d="M10.0039 96.6436H12.0833" stroke="#263238" stroke-miterlimit="10"/>
<path d="M21.7905 96.5161H14.8574" stroke="#263238" stroke-miterlimit="10"/>
<path d="M8.6167 94.9863H14.6831" stroke="#263238" stroke-miterlimit="10"/>
<path d="M85.7581 96.1338H82.6377" stroke="#8A8A8A" stroke-miterlimit="10"/>
<path d="M86.4535 97.4111H76.7461" stroke="#8A8A8A" stroke-miterlimit="10"/>
<path d="M59.2358 98.1758H63.9179" stroke="#8A8A8A" stroke-miterlimit="10"/>
<path d="M58.7158 96.1338H71.372" stroke="#8A8A8A" stroke-miterlimit="10"/>
<path d="M82.2919 94.4766H75.0127" stroke="#8A8A8A" stroke-miterlimit="10"/>
<path d="M31.324 99.3257H37.2188V93.7116H31.324V99.3257Z" fill="white" stroke="#263238" stroke-miterlimit="10"/>
<path d="M34.491 93.6606H84.8887V87.919H34.491V93.6606Z" fill="#263238" stroke="#263238" stroke-miterlimit="10"/>
<path d="M6.7561 93.6606H57.1538V87.919H6.7561V93.6606Z" fill="white" stroke="#263238" stroke-miterlimit="10"/>
<path d="M56.8076 89.4517H44.4976" stroke="#263238" stroke-miterlimit="10"/>
<path d="M54.3794 90.7261H36.5234" stroke="#263238" stroke-miterlimit="10"/>
<path d="M47.272 91.8735H50.3924" stroke="#263238" stroke-miterlimit="10"/>
<path d="M51.6055 91.8735H56.6336" stroke="#263238" stroke-miterlimit="10"/>
<path d="M7.05273 91.6187H22.8294" stroke="#263238" stroke-miterlimit="10"/>
<path d="M8.43945 90.8535H10.5216" stroke="#263238" stroke-miterlimit="10"/>
<path d="M20.2293 90.7261H13.2935" stroke="#263238" stroke-miterlimit="10"/>
<path d="M7.05273 89.1963H13.1219" stroke="#263238" stroke-miterlimit="10"/>
<path d="M84.1966 90.3438H81.0762" stroke="#8A8A8A" stroke-miterlimit="10"/>
<path d="M84.8891 91.6187H75.1816" stroke="#8A8A8A" stroke-miterlimit="10"/>
<path d="M57.6743 92.3857H62.3536" stroke="#8A8A8A" stroke-miterlimit="10"/>
<path d="M57.1538 90.3438H69.8072" stroke="#8A8A8A" stroke-miterlimit="10"/>
<path d="M80.7302 88.6841H73.4482" stroke="#8A8A8A" stroke-miterlimit="10"/>
<path d="M29.762 93.5332H35.6567V87.9191H29.762V93.5332Z" fill="white" stroke="#263238" stroke-miterlimit="10"/>
<path d="M125.003 23.186H76.7598V111.033H125.003V23.186Z" fill="#263238" stroke="#263238" stroke-miterlimit="10"/>
<path d="M119.787 23.5864V38.7945" stroke="#8A8A8A" stroke-miterlimit="10"/>
<path d="M122.83 27.3877V33.7922" stroke="#8A8A8A" stroke-miterlimit="10"/>
<path d="M121.31 25.9878V48.7987" stroke="#8A8A8A" stroke-miterlimit="10"/>
<path d="M123.918 23.186V53.0031" stroke="#8A8A8A" stroke-miterlimit="10"/>
<path d="M120.222 110.832V95.2236" stroke="#8A8A8A" stroke-miterlimit="10"/>
<path d="M121.96 111.034V107.63" stroke="#8A8A8A" stroke-miterlimit="10"/>
<path d="M122.395 106.429V92.623" stroke="#8A8A8A" stroke-miterlimit="10"/>
<path d="M120.44 93.2224V70.6104" stroke="#8A8A8A" stroke-miterlimit="10"/>
<path d="M118.267 23.186H70.0229V111.033H118.267V23.186Z" fill="#7DB275" stroke="#263238" stroke-miterlimit="10"/>
<path d="M114.138 29.402C113.195 29.4 112.289 29.0658 111.605 28.468C110.921 27.8701 110.512 27.054 110.461 26.187H77.8337C77.784 27.0553 77.3743 27.8729 76.6891 28.4711C76.0038 29.0693 75.0954 29.4026 74.1511 29.402C73.9329 29.4015 73.7151 29.3827 73.5005 29.3459V103.084C73.7153 103.049 73.9329 103.03 74.1511 103.028C74.7891 103.028 75.4161 103.18 75.9712 103.47C76.5263 103.759 76.9905 104.176 77.3187 104.68C77.6469 105.183 77.8278 105.757 77.8438 106.344C77.8598 106.931 77.7103 107.512 77.41 108.03H110.879C110.578 107.512 110.428 106.931 110.444 106.343C110.459 105.756 110.64 105.182 110.968 104.678C111.297 104.174 111.761 103.757 112.317 103.468C112.872 103.179 113.5 103.027 114.138 103.028C114.356 103.03 114.574 103.049 114.789 103.084V29.3332C114.575 29.3743 114.357 29.3973 114.138 29.402ZM93.1673 80.416C85.5448 80.416 79.3676 74.2359 79.3676 66.6102C79.3676 58.9845 85.5448 52.8018 93.1673 52.8018C100.79 52.8018 106.967 58.9845 106.967 66.6102C106.967 74.2359 100.787 80.416 93.1673 80.416Z" fill="white" stroke="#263238" stroke-miterlimit="10"/>
<path d="M124.914 61.8066H70.2388V70.8117H124.914V61.8066Z" fill="white" stroke="#263238" stroke-miterlimit="10"/>
<path d="M124.915 61.8066H118.372V70.8117H124.915V61.8066Z" fill="#3D3D3D" stroke="#8A8A8A" stroke-miterlimit="10"/>
<path d="M17.3411 105.57L15.7297 107.796L12.5815 110.09V111.036H23.3494L22.9812 107.722V106.238C22.9812 106.238 18.5871 104.489 17.3411 105.57Z" fill="#263238" stroke="#263238" stroke-miterlimit="10"/>
<path d="M23.2525 110.157H12.5815V111.034H23.3494L23.2525 110.157Z" fill="white" stroke="#263238" stroke-miterlimit="10"/>
<path d="M35.1222 105.57L36.8388 107.796L40.1974 110.09V111.036H28.7207L29.1111 107.722V106.238C29.1111 106.238 33.7959 104.489 35.1222 105.57Z" fill="#263238" stroke="#263238" stroke-miterlimit="10"/>
<path d="M28.8231 110.157H40.1974V111.034H28.7207L28.8231 110.157Z" fill="white" stroke="#263238" stroke-miterlimit="10"/>
<path d="M12.5376 59.405C12.5376 59.405 15.0517 85.5328 15.2316 90.4942C15.4116 95.4557 17.1172 102.153 17.1172 102.153L16.3225 103.311L17.131 105.873C17.131 105.873 19.0166 105.46 20.0051 105.792C20.9935 106.123 22.7739 106.536 22.7739 106.536C22.7739 106.536 23.6737 104.303 23.7623 103.311C23.8509 102.319 22.6908 99.9199 22.6908 99.9199L22.5108 70.0723H24.1278L28.2533 101.656L28.0733 103.558L28.8818 106.536C28.8818 106.536 33.6414 105.626 33.9986 105.542C34.2714 105.504 34.5503 105.533 34.8071 105.626C34.8071 105.626 35.3608 104.55 35.3608 104.218C35.3608 103.887 34.6409 101.988 34.6409 101.988L34.461 87.1875V59.1577L12.5514 58.7446L12.5376 59.405Z" fill="#7DB275" stroke="#263238" stroke-miterlimit="10"/>
<path d="M33.6887 70.9443L34.1788 80.829L32.0884 81.0023V82.2287L33.6084 82.3154" stroke="#263238" stroke-linecap="round" stroke-linejoin="round"/>
<path d="M33.3228 63.5918L33.6412 69.9759" stroke="#263238" stroke-linecap="round" stroke-linejoin="round"/>
<path d="M32.4092 88.0952C32.4784 89.8621 32.6307 91.3943 32.9436 91.5014C33.705 91.7564 33.8933 92.0266 33.8933 92.0266" stroke="#263238" stroke-linecap="round" stroke-linejoin="round"/>
<path d="M32.381 82.5781C32.381 82.5781 32.3312 84.8115 32.381 87.0449" stroke="#263238" stroke-linecap="round" stroke-linejoin="round"/>
<path d="M20.3066 69.1904L24.1054 69.453" stroke="#263238" stroke-linecap="round" stroke-linejoin="round"/>
<path d="M21.5415 60.792L21.6356 65.6897L23.3468 66.8293" stroke="#263238" stroke-linecap="round" stroke-linejoin="round"/>
<path d="M23.3467 62.541L23.6319 68.5784" stroke="#263238" stroke-linecap="round" stroke-linejoin="round"/>
<path d="M22.1729 90.543L22.3002 96.5778" stroke="#263238" stroke-linecap="round" stroke-linejoin="round"/>
<path d="M21.73 69.5396L22.1425 89.0513" stroke="#263238" stroke-linecap="round" stroke-linejoin="round"/>
<path d="M29.4272 63.3291C29.4272 63.3291 30.759 65.8659 33.2288 65.0781" stroke="#263238" stroke-linecap="round" stroke-linejoin="round"/>
<path d="M16.1259 63.3291C16.1259 63.3291 15.1734 65.254 13.6533 65.5166" stroke="#263238" stroke-linecap="round" stroke-linejoin="round"/>
<path d="M21.7684 30.251L18.9137 31.0464L16.5215 59.2955L29.1389 59.4816L29.8034 30.4345L21.7684 30.251Z" fill="white" stroke="#263238" stroke-miterlimit="10"/>
<path d="M20.7525 29.147H20.0824L19.7446 29.9526L19.8803 36.7727L24.0557 34.2945L28.1618 37.8894L28.7017 29.7665C28.7017 29.7665 28.9038 29.3943 28.2975 29.147C27.6911 28.8997 27.489 28.8359 27.489 28.8359L20.7525 29.147Z" fill="white" stroke="#263238" stroke-miterlimit="10"/>
<path d="M20.351 27.1586L20.5531 29.9631C20.5531 29.9631 22.4912 33.8691 23.7843 34.4274C25.0773 34.9858 28.0288 29.777 28.0288 29.777L27.8267 26.6768H20.2817L20.351 27.1586Z" fill="white" stroke="#263238" stroke-miterlimit="10"/>
<path d="M20.3511 27.1587C20.3511 27.1587 22.7738 32.0028 24.1886 32.1839C25.6035 32.3649 27.8933 27.717 27.8933 27.2836C27.8933 26.8502 20.3511 27.1587 20.3511 27.1587Z" fill="#263238" stroke="#263238" stroke-miterlimit="10"/>
<path d="M19.0716 23.0077C19.0716 23.0077 17.9032 22.1256 17.7426 23.3494C17.582 24.5732 19.2848 25.7001 19.2848 25.7001L19.0716 23.0077Z" fill="white" stroke="#263238" stroke-miterlimit="10"/>
<path d="M28.5688 23.0077C28.5688 23.0077 29.74 22.1256 29.9006 23.3494C30.0612 24.5732 28.3584 25.7001 28.3584 25.7001L28.5688 23.0077Z" fill="white" stroke="#263238" stroke-miterlimit="10"/>
<path d="M18.8584 23.1532C18.8584 23.1532 19.498 26.5824 20.0296 27.2172C20.5612 27.852 22.2086 30.0574 23.7508 30.45C25.2931 30.8427 27.6881 28.0994 28.1643 27.1688C28.6405 26.2382 28.8039 22.1257 28.8039 22.1257L28.7513 19.9229C28.7513 19.9229 28.5907 18.3065 27.8985 17.4244C27.2063 16.5422 24.2298 15.9558 22.264 16.6544C20.2982 17.353 18.6479 20.5093 18.6479 21.1467C18.6479 21.7841 18.8584 23.1532 18.8584 23.1532Z" fill="white" stroke="#263238" stroke-miterlimit="10"/>
<path d="M22.3696 19.3339C22.3696 19.3339 20.7083 21.0982 19.9773 21.4398C19.6452 21.5808 19.325 21.7444 19.0193 21.9293L19.1245 23.9868L18.2745 21.1823C18.2745 21.1823 17.2113 18.207 17.43 16.8863C17.6488 15.5656 22.4803 14.2909 24.1831 13.8014C25.886 13.3118 26.5228 14.2909 27.6386 15.0761C28.7544 15.8614 29.9256 16.4478 29.7678 17.771C29.6303 18.6914 29.3805 19.5946 29.023 20.4633C29.023 20.4633 28.7461 24.1347 28.7461 24.2877C28.7461 24.4406 28.2671 20.6648 28.2671 20.6648C27.9956 20.599 27.7506 20.4621 27.5619 20.2707C27.3731 20.0793 27.2488 19.8415 27.2039 19.5863C27.0626 18.9403 26.97 18.286 26.927 17.6282C26.927 17.6282 26.2348 18.9515 25.5426 19.5863C24.8504 20.2211 23.1504 20.8101 22.8846 20.7616C22.6188 20.7132 23.1615 19.5378 23.1615 19.5378L22.2035 20.3716L22.3696 19.3339Z" fill="#263238" stroke="#263238" stroke-miterlimit="10"/>
<path d="M22.7959 26.1894C23.0593 26.4051 23.3659 26.5714 23.6985 26.6789C24.1249 26.7758 24.8697 26.1894 25.0829 26.0415" stroke="#263238" stroke-miterlimit="10"/>
<path d="M22.6353 27.5614C22.6353 27.5614 23.8591 28.441 25.5065 27.4136L22.6353 27.5614Z" fill="white"/>
<path d="M22.6353 27.5614C22.6353 27.5614 23.8591 28.441 25.5065 27.4136" stroke="#263238" stroke-miterlimit="10"/>
<path d="M21.8105 24.4255C22.0016 24.4255 22.1566 24.1847 22.1566 23.8876C22.1566 23.5905 22.0016 23.3496 21.8105 23.3496C21.6193 23.3496 21.4644 23.5905 21.4644 23.8876C21.4644 24.1847 21.6193 24.4255 21.8105 24.4255Z" fill="#263238"/>
<path d="M25.8524 24.4255C26.0436 24.4255 26.1985 24.1847 26.1985 23.8876C26.1985 23.5905 26.0436 23.3496 25.8524 23.3496C25.6613 23.3496 25.5063 23.5905 25.5063 23.8876C25.5063 24.1847 25.6613 24.4255 25.8524 24.4255Z" fill="#263238"/>
<path d="M25.0278 22.1743C25.3706 22.0089 25.7617 21.9482 26.1444 22.0009C26.5271 22.0536 26.8818 22.217 27.157 22.4675" stroke="#263238" stroke-miterlimit="10"/>
<path d="M22.2088 22.1258C21.938 21.978 21.6193 21.9226 21.3086 21.9692C20.9978 22.0158 20.7148 22.1615 20.5088 22.3807" stroke="#263238" stroke-miterlimit="10"/>
<path d="M25.9854 24.818L27.1566 24.5732" stroke="#263238" stroke-miterlimit="10"/>
<path d="M20.6143 24.5249L21.5723 24.8181" stroke="#263238" stroke-miterlimit="10"/>
<path d="M19.8114 36.2857L19.205 63.056L12.283 62.7475L11.8649 62.0107C11.8649 62.0107 10.9235 62.0107 10.7879 61.3274C10.6522 60.6441 11.7293 45.64 11.7293 45.64L5.80127 45.1428L9.7745 38.0041C9.7745 38.0041 10.9872 33.0427 11.2558 32.6704C11.5244 32.2982 19.9443 29.6313 19.9443 29.6313L19.8114 36.2857Z" fill="#263238" stroke="#263238" stroke-miterlimit="10"/>
<path d="M28.4333 29.4736L27.4448 63.1278L36.3327 63.0436L36.6926 61.8045L37.5897 61.2258V58.5793C37.5897 57.2561 35.8841 47.6647 35.8841 47.6647C35.8841 47.6647 40.3751 47.086 40.4637 46.2599C40.5523 45.4338 38.5782 32.9487 37.5011 32.0385C36.424 31.1283 28.4333 29.4736 28.4333 29.4736Z" fill="#263238" stroke="#263238" stroke-miterlimit="10"/>
<path d="M30.6616 48.6638L31.8439 51.7997C31.8439 51.7997 32.5278 50.2853 32.4253 49.3318C32.3229 48.3782 32.3201 48.0901 32.01 48.0417C31.6999 47.9933 30.7198 47.8046 30.6616 48.6638Z" fill="white" stroke="#263238" stroke-miterlimit="10"/>
<path d="M18.8472 40.5155L22.6321 47.4401L26.6247 45.6248L23.2551 38.3203L18.8472 40.5155Z" fill="#7DB275" stroke="#263238" stroke-miterlimit="10"/>
<path d="M25.4123 45.3468C25.367 45.2365 25.3706 45.1142 25.4225 45.0064C25.4743 44.8986 25.5701 44.8138 25.6892 44.7706C25.7113 44.7681 25.7336 44.7681 25.7557 44.7706L23.2637 39.3936C23.2411 39.4438 23.2064 39.4887 23.1623 39.5249C23.1182 39.5611 23.0658 39.5876 23.009 39.6026C22.9239 39.6209 22.8347 39.6151 22.7532 39.586C22.6717 39.5568 22.6017 39.5058 22.5522 39.4394L19.9218 40.7423C19.9557 40.7891 19.981 40.8408 19.9965 40.8952C20.0333 40.9928 20.0342 41.0988 19.9992 41.1969C19.9642 41.295 19.8951 41.3798 19.8027 41.4383L22.4303 46.2289C22.4773 46.1809 22.5376 46.1456 22.6048 46.1269C22.7162 46.1075 22.8316 46.1253 22.9301 46.1771C23.0285 46.229 23.1037 46.3116 23.1419 46.4099L25.4206 45.3748L25.4123 45.3468ZM23.1641 44.1077C22.6795 44.2326 22.1562 43.9037 21.9929 43.3709C21.8295 42.838 22.087 42.3026 22.5688 42.1777C23.0505 42.0527 23.5766 42.3816 23.74 42.9145C23.9033 43.4473 23.6458 43.9802 23.1641 44.1077Z" fill="white" stroke="#263238" stroke-miterlimit="10"/>
<path d="M20.4673 39.6639L22.4885 47.1876L26.8189 46.2341L25.2933 38.4248L20.4673 39.6639Z" fill="#7DB275" stroke="#263238" stroke-miterlimit="10"/>
<path d="M25.7034 45.719C25.694 45.6606 25.6972 45.601 25.7129 45.5437C25.7286 45.4864 25.7563 45.4326 25.7947 45.3852C25.833 45.3378 25.8811 45.2979 25.9363 45.2677C25.9914 45.2375 26.0525 45.2176 26.116 45.2091C26.138 45.2067 26.1603 45.2067 26.1824 45.2091L25.0749 39.4599C25.0402 39.504 24.9955 39.5405 24.9438 39.5669C24.8922 39.5934 24.8348 39.609 24.7759 39.6129C24.6879 39.6124 24.602 39.5879 24.5291 39.5425C24.4561 39.4971 24.3994 39.4329 24.3661 39.3579L21.4699 40.11C21.4928 40.1629 21.5059 40.2189 21.5087 40.2757C21.5208 40.3785 21.4959 40.482 21.4379 40.5704C21.3798 40.6589 21.2919 40.7273 21.1875 40.7653L22.5857 45.974C22.6428 45.9373 22.71 45.9161 22.7796 45.9128C22.8927 45.9152 23.001 45.9553 23.0845 46.0256C23.168 46.0959 23.221 46.1917 23.2336 46.2952L25.7062 45.7522L25.7034 45.719ZM23.7985 44.0465C23.2973 44.072 22.8654 43.6437 22.8349 43.0905C22.8045 42.5372 23.1838 42.0706 23.685 42.0451C24.1861 42.0196 24.6153 42.4505 24.6485 43.0038C24.6817 43.557 24.3107 44.0236 23.7985 44.0465Z" fill="white" stroke="#263238" stroke-miterlimit="10"/>
<path d="M22.8621 39.0825L22.397 46.8204L26.8409 47.0805L27.8709 39.1998L22.8621 39.0825Z" fill="#7DB275" stroke="#263238" stroke-miterlimit="10"/>
<path d="M25.9384 46.2828C25.9589 46.1661 26.0285 46.0616 26.1322 45.9919C26.2359 45.9222 26.3653 45.893 26.4922 45.9106C26.5153 45.9156 26.5377 45.9233 26.5586 45.9335L27.3173 40.1308C27.2704 40.1642 27.216 40.1875 27.158 40.199C27.1 40.2105 27.0399 40.2098 26.9823 40.197C26.8982 40.1738 26.8237 40.1278 26.7684 40.0651C26.7131 40.0023 26.6796 39.9257 26.6722 39.8452L23.6791 39.7764C23.6844 39.8321 23.6788 39.8882 23.6625 39.9421C23.6416 40.0437 23.585 40.1362 23.5015 40.2053C23.4179 40.2744 23.312 40.3163 23.2001 40.3245L22.8789 45.6786C22.9468 45.6607 23.0187 45.6607 23.0866 45.6786C23.194 45.7124 23.2846 45.7808 23.3416 45.8712C23.3986 45.9616 23.4181 46.068 23.3967 46.1707L25.9357 46.3185C25.9333 46.3066 25.9342 46.2943 25.9384 46.2828ZM24.6592 44.1743C24.1747 44.0622 23.8978 43.537 24.0446 42.999C24.1913 42.461 24.7035 42.1169 25.1909 42.2341C25.6782 42.3514 25.9495 42.8741 25.8055 43.412C25.6616 43.95 25.1466 44.2865 24.6592 44.1743Z" fill="white" stroke="#263238" stroke-miterlimit="10"/>
<path d="M32.0108 46.6576C31.5213 46.5899 31.0367 46.4945 30.5599 46.372C30.3523 46.2777 28.8488 45.7984 27.6555 45.2273C26.4621 44.6562 25.4792 45.2273 23.7791 45.5128C22.0791 45.7984 21.6001 45.8953 21.6001 46.2777C21.6001 46.6601 22.4833 46.7545 22.4833 46.7545C22.4833 46.7545 21.6527 46.8488 22.068 47.374C22.3127 47.6861 22.6574 47.9197 23.0537 48.042C23.2833 48.3923 23.5819 48.7001 23.9342 48.9496C24.452 49.2836 24.8147 49.5717 24.8147 49.5717C25.1393 49.9441 25.5711 50.225 26.0606 50.3825C26.7861 50.5737 30.8811 49.4264 30.8811 49.4264C30.8811 49.4264 32.1243 49.7604 32.4372 49.1408C32.7501 48.5213 32.0108 46.6576 32.0108 46.6576Z" fill="white" stroke="#263238" stroke-linecap="round" stroke-linejoin="round"/>
<path d="M22.4717 46.7545C22.4717 46.7545 25.581 46.6576 26.5667 46.3721" stroke="#263238" stroke-linecap="round" stroke-linejoin="round"/>
<path d="M23.0425 48.0417C23.8995 48.1681 24.7661 48.232 25.6341 48.2329C26.1452 48.2236 26.645 48.0927 27.0849 47.853" stroke="#263238" stroke-linecap="round" stroke-linejoin="round"/>
<path d="M24.3521 49.2378C24.3521 49.2378 26.1656 49.7477 27.3977 49.3806" stroke="#263238" stroke-linecap="round" stroke-linejoin="round"/>
<path d="M33.5499 38.4863L34.5383 45.597L31.7529 46.3415C31.7529 46.3415 32.2042 48.4908 32.0298 49.4851C31.9127 50.2521 31.8526 51.0256 31.8498 51.8001C31.8498 51.8001 34.8955 50.8899 36.878 50.7242C38.8604 50.5585 40.5605 49.7324 41.0976 48.4092C41.6348 47.086 39.932 42.5452 39.932 42.5452" fill="#263238"/>
<path d="M33.5499 38.4863L34.5383 45.597L31.7529 46.3415C31.7529 46.3415 32.2042 48.4908 32.0298 49.4851C31.9127 50.2521 31.8526 51.0256 31.8498 51.8001C31.8498 51.8001 34.8955 50.8899 36.878 50.7242C38.8604 50.5585 40.5605 49.7324 41.0976 48.4092C41.6348 47.086 39.932 42.5452 39.932 42.5452" stroke="#263238" stroke-miterlimit="10"/>
<path d="M33.1816 46.1325L34.5384 45.597L37.9717 44.748" stroke="#6B6B6B" stroke-miterlimit="10"/>
<path d="M34.5382 45.597L33.4722 37.1987" stroke="#6B6B6B" stroke-miterlimit="10"/>
<path d="M16.981 45.4338C16.981 45.4338 16.3608 42.9046 16.1005 42.4253C15.8402 41.946 14.4392 43.287 14.3368 43.7154C14.2343 44.1437 16.5657 45.4822 16.981 45.4338Z" fill="white" stroke="#263238" stroke-miterlimit="10"/>
<path d="M15.6277 40.1104L14.2876 41.5585C14.2876 41.5585 14.6614 43.6797 14.9604 43.7639C15.2594 43.848 17.397 42.331 17.397 42.331L15.6277 40.1104Z" fill="white" stroke="#263238" stroke-miterlimit="10"/>
<path d="M18.1167 37.2063C18.1167 37.2063 15.7826 39.3071 15.6248 40.1178C15.467 40.9286 17.1283 42.4583 17.3359 42.6011C17.5436 42.7439 19.047 41.645 19.0969 41.4538C19.1467 41.2626 18.114 39.7839 18.114 39.7839C18.5897 39.9985 19.0519 40.2377 19.4984 40.5003C19.6534 40.6431 20.6391 41.9331 21.0018 41.8362C21.3645 41.7394 21.2095 41.1198 21.0018 40.5487C20.7942 39.9776 18.5653 38.0655 18.5653 38.0655L20.0687 38.3994C20.0687 38.3994 21.8325 39.9751 22.2478 39.9751C22.6631 39.9751 22.4554 39.5926 22.1952 39.2586C21.9349 38.9247 20.6917 37.5887 20.3816 37.2547C20.0715 36.9207 18.8782 36.7295 18.7203 36.7295C18.5625 36.7295 18.1167 37.2063 18.1167 37.2063Z" fill="white" stroke="#263238" stroke-linecap="round" stroke-linejoin="round"/>
<path d="M18.1165 39.7837L17.3911 39.1157" stroke="#263238" stroke-linecap="round" stroke-linejoin="round"/>
<path d="M16.458 39.9268L18.3242 42.0276" stroke="#263238" stroke-linecap="round" stroke-linejoin="round"/>
<path d="M14.2349 41.3291C14.2349 41.3291 14.5976 42.4739 14.8052 43.1903C15.0129 43.9067 16.9815 45.4339 16.9815 45.4339C16.9815 45.4339 14.1822 48.1543 11.6931 49.3474C9.20394 50.5406 6.28009 49.9415 5.39961 48.988C4.51913 48.0344 4.88185 45.2656 5.60727 44.692C6.3327 44.1183 10.5524 43.3815 11.5906 42.8563C12.6289 42.3311 14.2349 41.3291 14.2349 41.3291Z" fill="#263238" stroke="#263238" stroke-miterlimit="10"/>
<path d="M14.2349 41.3291L7.4126 44.3988" stroke="#6B6B6B" stroke-miterlimit="10"/>
<path d="M13.3486 41.7318V38.7998" stroke="#6B6B6B" stroke-miterlimit="10"/>
<path d="M58.7517 106.22C58.7517 106.22 57.9211 106.437 55.7061 104.925C53.491 103.413 50.8994 101.254 50.8994 101.254C50.8994 101.254 53.4578 100.938 54.6401 100.364C55.9414 99.7291 57.4642 98.23 57.4642 98.23C57.4642 98.23 62.6225 104.708 69.0738 104.278C68.9619 104.83 68.7001 105.347 68.3129 105.781C67.9256 106.215 67.4254 106.552 66.8588 106.761C64.8486 107.515 58.7517 106.22 58.7517 106.22Z" fill="#7DB275" stroke="#263238" stroke-linejoin="round"/>
<path d="M67.122 105.019C67.122 105.019 61.6453 103.696 58.6855 100.802C58.5429 100.838 58.3934 100.844 58.2479 100.82C58.1024 100.796 57.9644 100.743 57.8441 100.664C57.7238 100.585 57.6241 100.482 57.5522 100.363C57.4803 100.244 57.438 100.112 57.4285 99.9761C56.3937 100.871 55.067 101.425 53.6546 101.554C53.6546 101.554 53.7432 102.133 53.4746 102.299C53.4746 102.299 57.6943 105.69 60.1197 106.103C61.8033 106.413 63.5264 106.499 65.2365 106.358C65.975 106.286 66.6685 105.996 67.2134 105.532C67.2134 105.532 66.3135 105.351 67.122 105.019ZM61.9499 104.833C61.7533 105.279 60.7759 105.343 59.7653 104.955C58.7547 104.568 58.104 103.913 58.2868 103.469C58.4695 103.025 59.4608 102.959 60.4714 103.347C61.482 103.734 62.1437 104.389 61.9499 104.833Z" fill="white" stroke="#263238" stroke-miterlimit="10"/>
<path d="M57.9214 106.085C57.9214 106.085 60.7456 107.156 62.9744 107.156C64.2788 107.162 65.5796 107.03 66.8508 106.761C66.8508 106.761 66.0893 107.143 64.8517 106.411C64.1456 105.993 63.6916 105.062 63.6916 105.062C61.8289 105.648 59.8869 105.992 57.9214 106.085Z" fill="#7DB275" stroke="#263238" stroke-linejoin="round"/>
<path d="M89.6465 95.1958C89.6465 95.1958 94.7881 93.638 97.7951 91.7896L100.993 96.6337C100.993 96.6337 93.3456 102.118 91.3382 100.675L89.6465 95.1958Z" fill="#7DB275" stroke="#263238" stroke-linejoin="round"/>
<path d="M98.8 96.351C98.8066 96.2113 98.8622 96.0773 98.9586 95.9693C99.055 95.8612 99.1869 95.7849 99.3344 95.7519L97.914 93.5822C97.7955 93.6194 97.671 93.6383 97.5458 93.6383C97.3936 93.6458 97.2417 93.6191 97.1033 93.5605C96.9648 93.5018 96.844 93.413 96.7511 93.3018C94.0959 95.0125 90.0229 95.8896 90.0229 95.8896L90.837 98.8343C90.837 98.8343 90.7124 100.451 92.9053 100.045C94.6053 99.7317 97.8033 97.7507 99.1628 96.8864C99.0559 96.8351 98.966 96.7584 98.9022 96.6642C98.8384 96.5701 98.8032 96.4619 98.8 96.351ZM93.3206 98.5181C92.3598 98.7196 91.4655 98.4187 91.3215 97.8451C91.1775 97.2714 91.8421 96.6391 92.8028 96.4352C93.7636 96.2312 94.6607 96.5346 94.8047 97.1082C94.9486 97.6819 94.2841 98.3142 93.3206 98.5181Z" fill="white" stroke="#263238" stroke-miterlimit="10"/>
<path d="M88.8932 93.0034L92.404 99.4104C92.404 99.4104 91.2134 99.9866 91.338 100.685L87.9546 94.5663C87.9546 94.5663 87.5143 93.5796 88.8932 93.0034Z" fill="#7DB275" stroke="#263238" stroke-linejoin="round"/>
<path d="M88.2534 95.1041L90.8616 99.8156C90.9726 99.5892 91.1695 99.4079 91.4154 99.3057L88.5164 94.6196L88.2534 95.1041Z" fill="white" stroke="#263238" stroke-miterlimit="10"/>
<path d="M50.792 59.4332L50.8474 71.7144L57.8081 71.6863L57.8303 59.1553L50.792 59.4332Z" fill="#7DB275" stroke="#263238" stroke-miterlimit="10"/>
<path d="M56.2824 70.5086C56.2884 70.4169 56.3141 70.3272 56.3582 70.2447C56.4022 70.1623 56.4637 70.0888 56.539 70.0285C56.6142 69.9682 56.7018 69.9223 56.7966 69.8935C56.8914 69.8648 56.9914 69.8537 57.0909 69.861C57.1259 69.8676 57.1601 69.877 57.1933 69.889L57.1795 60.5398C57.1179 60.591 57.0447 60.6288 56.9651 60.6504C56.8856 60.6721 56.8018 60.677 56.7199 60.6648C56.5979 60.6371 56.4873 60.5773 56.4017 60.4926C56.3161 60.4079 56.2593 60.302 56.2381 60.188L52.0406 60.3537C52.0543 60.4331 52.0543 60.514 52.0406 60.5934C52.0266 60.7385 51.9605 60.8752 51.8527 60.9819C51.7449 61.0885 51.6015 61.1591 51.4453 61.1823V69.8508C51.5471 69.8131 51.6581 69.8016 51.7665 69.8177C51.9391 69.8638 52.0888 69.9639 52.1899 70.1007C52.2909 70.2375 52.337 70.4025 52.3203 70.5672L56.2962 70.5519C56.2824 70.5315 56.2796 70.5188 56.2824 70.5086ZM53.9788 67.2809C53.2063 67.1508 52.6968 66.3426 52.8408 65.4732C52.9848 64.6038 53.7351 64.0047 54.5021 64.1372C55.269 64.2698 55.7868 65.0755 55.64 65.9449C55.4933 66.8143 54.743 67.4134 53.9788 67.2809Z" fill="white" stroke="#263238" stroke-miterlimit="10"/>
<path d="M115.878 7.46826L106.17 16.407L111.237 21.0727L121.199 12.0065L115.878 7.46826Z" fill="#7DB275" stroke="#263238" stroke-miterlimit="10"/>
<path d="M111.066 19.2036C111.143 19.1401 111.233 19.0914 111.331 19.0606C111.429 19.0298 111.533 19.0175 111.637 19.0244C111.74 19.0313 111.841 19.0573 111.933 19.1008C112.025 19.1443 112.107 19.2044 112.173 19.2776C112.194 19.3064 112.212 19.3372 112.226 19.3694L119.632 12.5748C119.547 12.5707 119.463 12.5489 119.388 12.5109C119.313 12.473 119.248 12.4198 119.198 12.3555C119.131 12.2532 119.099 12.1352 119.104 12.0161C119.11 11.897 119.153 11.7819 119.228 11.685L116.05 8.96973C115.995 9.03636 115.931 9.09558 115.859 9.14565C115.733 9.2418 115.576 9.29633 115.413 9.30049C115.25 9.30466 115.09 9.2582 114.959 9.16859L108.073 15.4405C108.176 15.48 108.265 15.5453 108.33 15.6292C108.421 15.7785 108.452 15.9526 108.418 16.1209C108.383 16.2892 108.286 16.4409 108.142 16.5496L111.035 19.2164L111.066 19.2036ZM111.952 15.3079C111.492 14.6935 111.766 13.7629 112.561 13.23C113.356 12.6972 114.375 12.7686 114.831 13.383C115.288 13.9974 115.014 14.9306 114.219 15.4609C113.425 15.9912 112.4 15.9122 111.952 15.2952V15.3079Z" fill="white" stroke="#263238" stroke-miterlimit="10"/>
<path d="M48.9944 44.939L62.5006 40.0209L59.7125 33.5298L45.8989 38.4734L48.9944 44.939Z" fill="#7DB275" stroke="#263238" stroke-miterlimit="10"/>
<path d="M59.0176 35.4218C58.5275 35.5212 58.0651 35.2994 57.9848 34.9119C57.982 34.8754 57.982 34.8387 57.9848 34.8022L47.6877 38.5195C47.769 38.5569 47.8402 38.6107 47.8958 38.6769C47.9514 38.7431 47.9901 38.82 48.0089 38.9019C48.0262 39.0267 48.0038 39.1533 47.9443 39.2665C47.8848 39.3797 47.7908 39.4745 47.6738 39.5393L49.5151 43.4248C49.6019 43.3812 49.6952 43.3494 49.792 43.3305C49.9573 43.2856 50.1342 43.2931 50.2944 43.3518C50.4545 43.4105 50.5886 43.5171 50.6752 43.6543L60.2248 40.2328C60.1419 40.1549 60.0851 40.0567 60.0614 39.9498C60.0398 39.7692 60.0886 39.5875 60.1992 39.4371C60.3098 39.2867 60.4749 39.1774 60.665 39.1288L59.0702 35.4192L59.0176 35.4218ZM56.3817 38.8611C56.5451 39.626 55.8556 40.4342 54.8395 40.6458C53.8233 40.8574 52.8709 40.3909 52.7075 39.626C52.5441 38.8611 53.2336 38.0555 54.2497 37.8413C55.2659 37.6272 56.2183 38.0861 56.3817 38.8611Z" fill="white" stroke="#263238" stroke-miterlimit="10"/>
<path d="M96.6653 7.42743C96.6653 7.42743 97.4959 7.62885 98.5647 9.97699C99.6334 12.3251 100.658 15.3948 100.658 15.3948C100.658 15.3948 98.2822 14.4617 96.9477 14.3979C95.4747 14.3291 93.3344 14.9078 93.3344 14.9078C93.3344 14.9078 92.5038 6.90987 86.7197 4.24559C87.1222 3.81937 87.6357 3.49441 88.2121 3.30129C88.7885 3.10817 89.4088 3.05322 90.0146 3.14163C92.1466 3.44248 96.6653 7.42743 96.6653 7.42743Z" fill="#7DB275" stroke="#263238" stroke-linejoin="round"/>
<path d="M88.8076 4.51574C88.8076 4.51574 92.7781 8.24064 93.7167 12.1134C93.8589 12.1503 93.9905 12.2157 94.1019 12.305C94.2134 12.3943 94.3019 12.5052 94.3612 12.6298C94.4205 12.7544 94.4491 12.8896 94.4449 13.0255C94.4407 13.1615 94.4038 13.295 94.3369 13.4162C95.7228 13.1393 97.1692 13.2916 98.4513 13.8497C98.4513 13.8497 98.695 13.3092 99.019 13.2939C99.019 13.2939 97.2746 8.39361 95.4195 6.89702C94.1425 5.83889 92.7076 4.95457 91.1583 4.27098C90.4835 3.98688 89.7273 3.91001 89.0014 4.05172C89.0014 4.05172 89.6964 4.61262 88.8076 4.51574ZM93.1491 7.11119C93.5616 6.82309 94.4338 7.23611 95.0873 8.03667C95.7407 8.83723 95.9456 9.71938 95.5303 10.01C95.1149 10.3007 94.2455 9.8851 93.5921 9.08454C92.9387 8.28398 92.7421 7.40183 93.1491 7.11119Z" fill="white" stroke="#263238" stroke-miterlimit="10"/>
<path d="M97.3044 7.93476C97.3044 7.93476 95.4715 5.69116 93.5555 4.63309C92.4413 4.01207 91.253 3.51159 90.0142 3.1416C90.0142 3.1416 90.8808 3.1722 91.537 4.38323C91.9108 5.07671 91.7862 6.08889 91.7862 6.08889C93.7094 6.4664 95.5665 7.08761 97.3044 7.93476Z" fill="#7DB275" stroke="#263238" stroke-linejoin="round"/>
<path d="M25.0142 1L26.3515 5.51271C26.3515 5.51271 19.6676 10.0713 9.56982 8.79399L10.1236 3.91669C10.1236 3.91669 14.083 4.64586 17.6963 3.96258C21.3095 3.2793 25.0142 1 25.0142 1Z" fill="#7DB275" stroke="#263238" stroke-miterlimit="10"/>
<path d="M24.2496 5.31387C24.2635 5.20291 24.314 5.09852 24.3941 5.01468C24.4743 4.93084 24.5804 4.87155 24.6981 4.84475L23.909 2.83826C23.7939 2.87375 23.6733 2.89183 23.5519 2.8918C23.343 2.89496 23.1384 2.83693 22.9676 2.72607C21.8601 3.26148 19.7808 4.19462 17.7069 4.5898C15.8179 4.90192 13.8913 4.97398 11.981 4.80396C11.9071 4.87695 11.816 4.93348 11.7148 4.96926C11.6136 5.00504 11.5048 5.01914 11.3968 5.01048L11.1338 7.7436C11.2002 7.7436 11.2695 7.7436 11.3387 7.7436C11.8924 7.7436 12.3271 7.89657 12.3271 8.08524C12.3237 8.11551 12.3126 8.14463 12.2949 8.1703C12.2771 8.19596 12.2531 8.21747 12.2247 8.23311C18.64 8.45747 23.131 6.41528 24.4932 5.7014C24.4209 5.66046 24.3608 5.60361 24.3183 5.53596C24.2758 5.46832 24.2522 5.392 24.2496 5.31387ZM17.9007 6.73907C16.9206 6.92009 16.0623 6.76712 15.982 6.39743C15.9017 6.02775 16.6299 5.58412 17.61 5.40311C18.5902 5.22209 19.4485 5.37506 19.5288 5.74475C19.6091 6.11443 18.8809 6.55805 17.9007 6.73907Z" fill="white" stroke="#263238" stroke-miterlimit="10"/>
<path d="M115.191 101.496L116.525 106.008C116.525 106.008 109.844 110.567 99.7437 109.29L100.297 104.412C100.297 104.412 104.257 105.141 107.873 104.458C111.489 103.775 115.191 101.496 115.191 101.496Z" fill="#7DB275" stroke="#263238" stroke-miterlimit="10"/>
<path d="M114.424 105.812C114.438 105.701 114.488 105.596 114.568 105.512C114.648 105.427 114.755 105.368 114.873 105.341L114.084 103.339C113.968 103.373 113.848 103.39 113.727 103.39C113.514 103.395 113.304 103.338 113.129 103.227C112.046 103.76 109.956 104.693 107.884 105.088C105.995 105.4 104.069 105.472 102.159 105.302C102.085 105.375 101.994 105.432 101.892 105.468C101.791 105.503 101.682 105.518 101.574 105.509L101.325 108.242C101.392 108.242 101.461 108.242 101.533 108.242C102.087 108.242 102.519 108.392 102.519 108.581C102.515 108.611 102.504 108.641 102.486 108.666C102.468 108.692 102.444 108.713 102.416 108.729C108.831 108.956 113.322 106.914 114.687 106.197C114.612 106.159 114.548 106.103 114.502 106.036C114.456 105.969 114.429 105.892 114.424 105.812ZM108.076 107.235C107.095 107.416 106.237 107.263 106.157 106.896C106.076 106.529 106.805 106.08 107.785 105.899C108.765 105.718 109.623 105.873 109.704 106.241C109.784 106.608 109.056 107.056 108.076 107.235Z" fill="white" stroke="#263238" stroke-miterlimit="10"/>
<path d="M45.1846 6.75191C45.1846 6.75191 50.3235 5.19413 53.3331 3.3457L56.5311 8.18986C56.5311 8.18986 48.8837 13.679 46.8763 12.236L45.1846 6.75191Z" fill="#7DB275" stroke="#263238" stroke-linejoin="round"/>
<path d="M54.3354 7.90669C54.3425 7.76676 54.3987 7.63273 54.4955 7.5247C54.5924 7.41668 54.7246 7.34048 54.8725 7.30754L53.4493 5.13787C53.3318 5.17534 53.2082 5.1943 53.0839 5.19396C52.9317 5.20148 52.7798 5.17477 52.6414 5.11613C52.5029 5.0575 52.3821 4.9687 52.2892 4.85742C49.6339 6.56817 45.561 7.44522 45.561 7.44522L46.3751 10.39C46.3751 10.39 46.2505 12.0064 48.4434 11.601C50.1406 11.2874 53.3386 9.30639 54.7008 8.4421C54.5935 8.39109 54.503 8.31451 54.4387 8.22035C54.3744 8.12618 54.3387 8.01787 54.3354 7.90669ZM48.8587 10.0738C47.8979 10.2752 47.0008 9.97438 46.8596 9.40073C46.7184 8.82708 47.3801 8.19479 48.3409 7.99082C49.3017 7.78686 50.1988 8.09026 50.3428 8.66646C50.4867 9.24266 49.825 9.86985 48.8587 10.0738Z" fill="white" stroke="#263238" stroke-miterlimit="10"/>
<path d="M44.4316 4.55908L47.9425 10.9661C47.9425 10.9661 46.7519 11.5423 46.8765 12.2409L43.4902 6.12196C43.4902 6.12196 43.0528 5.13528 44.4316 4.55908Z" fill="#7DB275" stroke="#263238" stroke-linejoin="round"/>
<path d="M43.7925 6.6602L46.3979 11.3718C46.5089 11.1454 46.7058 10.9641 46.9517 10.8619L44.0555 6.17578L43.7925 6.6602Z" fill="white" stroke="#263238" stroke-miterlimit="10"/>
<path d="M88.1762 35.1689L78.4688 44.1077L83.5357 48.7708L93.5006 39.7046L88.1762 35.1689Z" fill="#7DB275" stroke="#263238" stroke-miterlimit="10"/>
<path d="M83.3664 46.8921C83.4437 46.8285 83.534 46.7798 83.6321 46.7491C83.7301 46.7183 83.8339 46.706 83.9372 46.7129C84.0406 46.7198 84.1413 46.7457 84.2335 46.7892C84.3257 46.8327 84.4075 46.8928 84.474 46.966C84.4939 46.995 84.5106 47.0257 84.5238 47.0578L91.9386 40.2709C91.8531 40.2675 91.7696 40.246 91.6947 40.208C91.6198 40.1699 91.5554 40.1164 91.5067 40.0516C91.4399 39.9495 91.4069 39.8317 91.4118 39.7125C91.4168 39.5934 91.4594 39.4782 91.5344 39.3811L88.3558 36.6709C88.3021 36.7373 88.2377 36.7958 88.1648 36.8443C88.0398 36.9412 87.883 36.9965 87.7197 37.0011C87.5563 37.0057 87.3961 36.9595 87.2649 36.8698L80.3789 43.1391C80.4823 43.1798 80.5714 43.2459 80.6364 43.3303C80.7274 43.4797 80.7584 43.6538 80.724 43.822C80.6895 43.9903 80.5919 44.1421 80.4481 44.2507L83.3277 46.915L83.3664 46.8921ZM84.2497 42.9963C83.7928 42.3794 84.0669 41.4513 84.8616 40.9185C85.6562 40.3856 86.6724 40.457 87.1292 41.0714C87.5861 41.6859 87.3147 42.6165 86.5173 43.1493C85.7199 43.6822 84.7121 43.6108 84.2497 42.9963Z" fill="white" stroke="#263238" stroke-miterlimit="10"/>
<path d="M105.921 56.9782L119.187 58.253L119.907 51.8791L106.381 50.5049L105.921 56.9782Z" fill="#7DB275" stroke="#263238" stroke-miterlimit="10"/>
<path d="M118.47 53.1459C118.372 53.1305 118.278 53.0973 118.194 53.0482C118.11 52.9991 118.037 52.9351 117.98 52.8599C117.923 52.7846 117.883 52.6997 117.862 52.6101C117.841 52.5204 117.84 52.4278 117.858 52.3377C117.87 52.306 117.885 52.2753 117.902 52.2459L107.804 51.249C107.853 51.3111 107.887 51.3825 107.901 51.458C107.916 51.5335 107.912 51.6111 107.89 51.685C107.848 51.7919 107.774 51.8854 107.676 51.9541C107.577 52.0229 107.46 52.064 107.336 52.0725L107.06 55.9402C107.147 55.9374 107.235 55.946 107.32 55.9657C107.475 55.9945 107.616 56.0704 107.719 56.1813C107.823 56.2922 107.883 56.4316 107.89 56.5776L117.24 57.5235C117.21 57.4269 117.21 57.3243 117.24 57.2277C117.307 57.073 117.431 56.9447 117.59 56.8655C117.749 56.7862 117.933 56.761 118.11 56.7943L118.52 53.1535L118.47 53.1459ZM114.737 54.9306C114.513 55.6241 113.586 56.0039 112.664 55.777C111.742 55.5501 111.174 54.8006 111.398 54.1071C111.623 53.4136 112.553 53.0337 113.475 53.2606C114.397 53.4875 114.962 54.2218 114.737 54.9178V54.9306Z" fill="white" stroke="#263238" stroke-miterlimit="10"/>
<path d="M121.034 68.52C121.034 68.52 121.864 68.7214 122.933 71.0696C124.002 73.4177 125.023 76.4874 125.023 76.4874C125.023 76.4874 122.651 75.5542 121.313 75.4905C119.843 75.4217 117.714 76.0004 117.714 76.0004C117.714 76.0004 116.883 68.0025 111.099 65.3382C111.503 64.9154 112.017 64.5939 112.593 64.404C113.169 64.214 113.788 64.1617 114.391 64.2521C116.512 64.5351 121.034 68.52 121.034 68.52Z" fill="#7DB275" stroke="#263238" stroke-linejoin="round"/>
<path d="M113.173 65.6055C113.173 65.6055 117.146 69.3228 118.085 73.2057C118.227 73.2419 118.359 73.3068 118.471 73.3958C118.582 73.4847 118.671 73.5955 118.731 73.7201C118.79 73.8446 118.819 73.9798 118.814 74.1157C118.81 74.2517 118.772 74.385 118.705 74.506C120.089 74.2275 121.535 74.3781 122.817 74.9343C122.817 74.9343 123.063 74.3938 123.384 74.3785C123.384 74.3785 121.643 69.4783 119.785 67.9817C118.51 66.9216 117.077 66.0355 115.529 65.3506C114.854 65.0665 114.098 64.9896 113.372 65.1313C113.372 65.1313 114.062 65.705 113.173 65.6055ZM117.514 68.201C117.93 67.9129 118.799 68.3259 119.452 69.1265C120.106 69.927 120.311 70.8092 119.895 71.0998C119.48 71.3905 118.611 70.9749 117.957 70.1743C117.304 69.3738 117.107 68.4942 117.514 68.2035V68.201Z" fill="white" stroke="#263238" stroke-miterlimit="10"/>
<path d="M121.67 69.0271C121.67 69.0271 119.837 66.7758 117.924 65.7254C116.809 65.1076 115.619 64.6105 114.38 64.2441C114.38 64.2441 115.249 64.2747 115.903 65.4858C116.279 66.1793 116.152 67.1914 116.152 67.1914C118.075 67.5653 119.932 68.1831 121.67 69.0271Z" fill="#7DB275" stroke="#263238" stroke-linejoin="round"/>
<path d="M114.615 39.0471C114.615 39.0471 110.133 41.8389 107.785 44.3732L103.263 40.5131C103.263 40.5131 108.992 33.3132 111.351 34.1979L114.615 39.0471Z" fill="#7DB275" stroke="#263238" stroke-linejoin="round"/>
<path d="M105.478 40.2399C105.513 40.3758 105.499 40.5185 105.438 40.6464C105.377 40.7743 105.273 40.8804 105.14 40.9487L107.15 42.6799C107.254 42.6148 107.368 42.5657 107.488 42.5345C107.632 42.4889 107.786 42.4762 107.937 42.4975C108.087 42.5188 108.23 42.5735 108.352 42.6569C110.401 40.3445 114.059 38.4756 114.059 38.4756L112.397 35.8471C112.397 35.8471 112.037 34.2612 110.047 35.202C108.507 35.9312 106.015 38.6312 104.966 39.8167C105.085 39.8383 105.195 39.889 105.285 39.9635C105.375 40.0379 105.442 40.1335 105.478 40.2399ZM110.105 36.7776C110.969 36.3391 111.921 36.4054 112.228 36.9204C112.536 37.4354 112.084 38.213 111.221 38.649C110.357 39.085 109.404 39.0213 109.094 38.5037C108.784 37.9861 109.23 37.2136 110.096 36.7776H110.105Z" fill="white" stroke="#263238" stroke-miterlimit="10"/>
<path d="M116 40.9668L110.723 35.6867C110.723 35.6867 111.697 34.8326 111.371 34.1978L116.443 39.2306C116.443 39.2306 117.146 40.0643 116 40.9668Z" fill="#7DB275" stroke="#263238" stroke-linejoin="round"/>
<path d="M115.983 38.7845L112.079 34.9092C112.043 35.1555 111.913 35.3817 111.711 35.5466L115.864 39.3174L115.983 38.7845Z" fill="white" stroke="#263238" stroke-miterlimit="10"/>
<path d="M1 111.034H133.443" stroke="#263238" stroke-linecap="round" stroke-linejoin="round"/>
</svg>
