<svg width="217" height="136" viewBox="0 0 217 136" fill="none" xmlns="http://www.w3.org/2000/svg">
<g clip-path="url(#clip0_583_270)">
<path d="M206.415 0.890137H10.5854C4.73923 0.890137 0 5.62937 0 11.4755V125.268C0 131.114 4.73923 135.854 10.5854 135.854H206.415C212.261 135.854 217 131.114 217 125.268V11.4755C217 5.62937 212.261 0.890137 206.415 0.890137Z" fill="#D0EFBC"/>
<path d="M10.771 21.399L12.8735 14.7302H14.5083L16.6108 21.399H15.4623L13.5543 15.4156H13.8044L11.9195 21.399H10.771ZM11.9427 19.9541V18.9121H15.4438V19.9541H11.9427ZM17.5407 21.399V14.5913H18.6568V21.399H17.5407ZM22.3179 21.538C21.8116 21.538 21.367 21.4283 20.9842 21.2091C20.6013 20.99 20.3019 20.6858 20.0857 20.2968C19.8727 19.9078 19.7662 19.4601 19.7662 18.9538C19.7662 18.4073 19.8712 17.9334 20.0811 17.5321C20.291 17.1276 20.5828 16.8142 20.9564 16.5919C21.33 16.3697 21.7622 16.2585 22.2531 16.2585C22.7718 16.2585 23.2117 16.3804 23.5729 16.6244C23.9373 16.8652 24.2074 17.2064 24.3834 17.6478C24.5594 18.0893 24.6257 18.6096 24.5825 19.2085H23.4757V18.801C23.4726 18.2576 23.3769 17.8609 23.1886 17.6108C23.0002 17.3607 22.7038 17.2357 22.2994 17.2357C21.8424 17.2357 21.5028 17.3777 21.2805 17.6617C21.0583 17.9427 20.9471 18.3549 20.9471 18.8982C20.9471 19.4045 21.0583 19.7967 21.2805 20.0745C21.5028 20.3524 21.827 20.4913 22.2531 20.4913C22.5278 20.4913 22.764 20.4311 22.9616 20.3107C23.1623 20.1872 23.3167 20.0097 23.4247 19.7781L24.5269 20.1116C24.3355 20.5623 24.0392 20.9128 23.6378 21.1628C23.2395 21.4129 22.7995 21.538 22.3179 21.538ZM20.5951 19.2085V18.3657H24.036V19.2085H20.5951ZM24.8792 21.399L26.7085 18.8704L24.9162 16.3974H26.2315L27.3568 17.9952L28.4636 16.3974H29.7789L27.9866 18.8704L29.8252 21.399H28.51L27.3568 19.7457L26.1944 21.399H24.8792ZM32.4177 21.399V14.7302H35.1732C35.2381 14.7302 35.3214 14.7334 35.4233 14.7395C35.5252 14.7426 35.6194 14.7519 35.7058 14.7673C36.0918 14.826 36.4097 14.9541 36.6598 15.1517C36.913 15.3493 37.0998 15.5994 37.2202 15.9019C37.3437 16.2014 37.4054 16.5348 37.4054 16.9022C37.4054 17.4456 37.2681 17.9133 36.9933 18.3054C36.7185 18.6945 36.2971 18.9353 35.729 19.0279L35.252 19.0696H33.5338V21.399H32.4177ZM36.2477 21.399L34.9324 18.6852L36.067 18.4351L37.5119 21.399H36.2477ZM33.5338 18.0276H35.1269C35.1887 18.0276 35.2582 18.0245 35.3353 18.0183C35.4125 18.0122 35.4835 17.9998 35.5484 17.9813C35.7336 17.935 35.8788 17.8531 35.9837 17.7358C36.0918 17.6185 36.1674 17.4857 36.2106 17.3375C36.2569 17.1894 36.2801 17.0443 36.2801 16.9022C36.2801 16.7602 36.2569 16.6151 36.2106 16.4669C36.1674 16.3156 36.0918 16.1813 35.9837 16.064C35.8788 15.9467 35.7336 15.8649 35.5484 15.8186C35.4835 15.8 35.4125 15.7892 35.3353 15.7861C35.2582 15.78 35.1887 15.7769 35.1269 15.7769H33.5338V18.0276ZM38.6249 15.6379V14.6145H39.741V15.6379H38.6249ZM38.6249 21.399V16.3974H39.741V21.399H38.6249ZM43.3002 21.538C42.7846 21.538 42.3446 21.4237 41.9803 21.1953C41.616 20.9637 41.3366 20.6488 41.1421 20.2505C40.9507 19.8522 40.8534 19.4015 40.8503 18.8982C40.8534 18.3857 40.9538 17.9319 41.1513 17.5367C41.3521 17.1384 41.6361 16.8266 42.0034 16.6012C42.3709 16.3728 42.8077 16.2585 43.314 16.2585C43.8821 16.2585 44.3623 16.4021 44.7543 16.6892C45.1496 16.9732 45.4073 17.3622 45.5277 17.8562L44.4162 18.1573C44.3298 17.8887 44.1863 17.6803 43.9856 17.5321C43.7849 17.3808 43.5565 17.3051 43.3002 17.3051C43.01 17.3051 42.7707 17.3746 42.5823 17.5135C42.394 17.6494 42.2551 17.8377 42.1655 18.0785C42.076 18.3193 42.0312 18.5926 42.0312 18.8982C42.0312 19.3737 42.1377 19.7581 42.3508 20.0514C42.5638 20.3447 42.8803 20.4913 43.3002 20.4913C43.5965 20.4913 43.8297 20.4234 43.9995 20.2876C44.1724 20.1517 44.3021 19.9556 44.3885 19.6994L45.5277 19.9541C45.3734 20.4635 45.1032 20.8557 44.7173 21.1304C44.3314 21.4021 43.859 21.538 43.3002 21.538ZM49.9152 21.399V18.9909C49.9152 18.8334 49.9044 18.6589 49.8828 18.4675C49.8612 18.2761 49.8102 18.0924 49.73 17.9164C49.6528 17.7373 49.5355 17.5907 49.378 17.4765C49.2236 17.3622 49.0137 17.3051 48.7482 17.3051C48.6061 17.3051 48.4657 17.3283 48.3268 17.3746C48.1878 17.4209 48.0612 17.5012 47.947 17.6154C47.8358 17.7266 47.7463 17.8809 47.6784 18.0785C47.6105 18.273 47.5765 18.5231 47.5765 18.8288L46.9143 18.5463C46.9143 18.1202 46.996 17.7343 47.1597 17.3885C47.3264 17.0427 47.5703 16.7679 47.8914 16.5642C48.2125 16.3573 48.6077 16.2539 49.077 16.2539C49.4475 16.2539 49.7531 16.3156 49.9939 16.4391C50.2348 16.5626 50.4262 16.7201 50.5682 16.9115C50.7102 17.1029 50.8152 17.3067 50.8831 17.5228C50.951 17.7389 50.9943 17.9442 51.0128 18.1387C51.0344 18.3301 51.0452 18.4861 51.0452 18.6065V21.399H49.9152ZM46.4465 21.399V14.7302H47.4422V18.2406H47.5765V21.399H46.4465ZM54.5276 21.538C54.0212 21.538 53.5766 21.4283 53.1938 21.2091C52.811 20.99 52.5115 20.6858 52.2954 20.2968C52.0824 19.9078 51.9759 19.4601 51.9759 18.9538C51.9759 18.4073 52.0808 17.9334 52.2908 17.5321C52.5007 17.1276 52.7924 16.8142 53.166 16.5919C53.5396 16.3697 53.9719 16.2585 54.4628 16.2585C54.9814 16.2585 55.4214 16.3804 55.7826 16.6244C56.1469 16.8652 56.4171 17.2064 56.5931 17.6478C56.769 18.0893 56.8354 18.6096 56.7922 19.2085H55.6854V18.801C55.6823 18.2576 55.5865 17.8609 55.3982 17.6108C55.2099 17.3607 54.9135 17.2357 54.5091 17.2357C54.0521 17.2357 53.7125 17.3777 53.4902 17.6617C53.2679 17.9427 53.1568 18.3549 53.1568 18.8982C53.1568 19.4045 53.2679 19.7967 53.4902 20.0745C53.7125 20.3524 54.0367 20.4913 54.4628 20.4913C54.7375 20.4913 54.9737 20.4311 55.1713 20.3107C55.372 20.1872 55.5263 20.0097 55.6344 19.7781L56.7366 20.1116C56.5452 20.5623 56.2488 20.9128 55.8475 21.1628C55.4492 21.4129 55.0092 21.538 54.5276 21.538ZM52.8048 19.2085V18.3657H56.2457V19.2085H52.8048Z" fill="black"/>
<path d="M38.8371 45.0864V46.5401H32.4022V45.2997L35.4452 42.037C35.751 41.6967 35.9922 41.3974 36.1688 41.1389C36.3454 40.8762 36.4725 40.6414 36.55 40.4347C36.6319 40.2236 36.6727 40.0233 36.6727 39.8338C36.6727 39.5496 36.6254 39.3062 36.5306 39.1038C36.4359 38.897 36.2959 38.7377 36.1107 38.6257C35.9298 38.5136 35.7058 38.4577 35.4387 38.4577C35.1545 38.4577 34.9089 38.5266 34.7022 38.6644C34.4998 38.8022 34.3448 38.994 34.237 39.2394C34.1337 39.4849 34.082 39.7628 34.082 40.0729H32.2148C32.2148 39.513 32.3484 39.0004 32.6154 38.5352C32.8824 38.0658 33.2593 37.6931 33.746 37.4175C34.2327 37.1376 34.8099 36.9976 35.4775 36.9976C36.1365 36.9976 36.6921 37.1052 37.1444 37.3206C37.6009 37.5317 37.9456 37.8374 38.1781 38.238C38.415 38.6343 38.5334 39.1081 38.5334 39.6594C38.5334 39.9695 38.484 40.2731 38.3849 40.5704C38.2858 40.8633 38.1436 41.1562 37.9585 41.449C37.7776 41.7376 37.5579 42.0305 37.2995 42.3277C37.041 42.6249 36.7546 42.9328 36.4402 43.2516L34.8056 45.0864H38.8371ZM46.5901 43.0255V44.4856H39.8127L39.7222 43.3549L43.644 37.1332H45.1235L43.5212 39.8145L41.5701 43.0255H46.5901ZM45.524 37.1332V46.5401H43.6633V37.1332H45.524ZM47.7659 45.6421C47.7659 45.3664 47.8607 45.136 48.0502 44.9508C48.2441 44.7656 48.5003 44.6729 48.819 44.6729C49.1378 44.6729 49.3919 44.7656 49.5815 44.9508C49.7752 45.136 49.8722 45.3664 49.8722 45.6421C49.8722 45.9177 49.7752 46.1482 49.5815 46.3334C49.3919 46.5186 49.1378 46.6112 48.819 46.6112C48.5003 46.6112 48.2441 46.5186 48.0502 46.3334C47.8607 46.1482 47.7659 45.9177 47.7659 45.6421ZM57.7737 43.9623C57.7737 44.5523 57.6359 45.0498 57.3602 45.4547C57.0846 45.8553 56.7055 46.1589 56.2231 46.3657C55.7451 46.5681 55.2024 46.6693 54.595 46.6693C53.9877 46.6693 53.4428 46.5681 52.9604 46.3657C52.478 46.1589 52.0968 45.8553 51.8169 45.4547C51.5369 45.0498 51.3969 44.5523 51.3969 43.9623C51.3969 43.566 51.4766 43.2085 51.6359 42.8898C51.7953 42.5667 52.0172 42.2911 52.3014 42.0628C52.59 41.8302 52.9282 41.6536 53.3158 41.533C53.7034 41.4081 54.1255 41.3456 54.5821 41.3456C55.1937 41.3456 55.7408 41.4533 56.2231 41.6687C56.7055 41.884 57.0846 42.1877 57.3602 42.5797C57.6359 42.9716 57.7737 43.4325 57.7737 43.9623ZM55.9001 43.8395C55.9001 43.551 55.8441 43.3033 55.7321 43.0965C55.6244 42.8855 55.4715 42.724 55.2734 42.612C55.0753 42.5 54.8448 42.444 54.5821 42.444C54.3193 42.444 54.0889 42.5 53.8908 42.612C53.6927 42.724 53.5376 42.8855 53.4256 43.0965C53.3179 43.3033 53.2641 43.551 53.2641 43.8395C53.2641 44.1238 53.3179 44.3693 53.4256 44.576C53.5376 44.7828 53.6927 44.9421 53.8908 45.0541C54.0932 45.1619 54.3279 45.2156 54.595 45.2156C54.862 45.2156 55.0925 45.1619 55.2863 45.0541C55.4845 44.9421 55.6352 44.7828 55.7386 44.576C55.8463 44.3693 55.9001 44.1238 55.9001 43.8395ZM57.5734 39.6271C57.5734 40.1052 57.4464 40.5294 57.1923 40.8999C56.9382 41.266 56.5849 41.5524 56.1327 41.7591C55.6847 41.9659 55.1722 42.0693 54.595 42.0693C54.0135 42.0693 53.4967 41.9659 53.0444 41.7591C52.5921 41.5524 52.239 41.266 51.9849 40.8999C51.7308 40.5294 51.6037 40.1052 51.6037 39.6271C51.6037 39.0585 51.7308 38.5805 51.9849 38.1928C52.2433 37.8009 52.5965 37.5036 53.0444 37.3012C53.4967 37.0988 54.0092 36.9976 54.5821 36.9976C55.1636 36.9976 55.6783 37.0988 56.1262 37.3012C56.5784 37.5036 56.9317 37.8009 57.1858 38.1928C57.4442 38.5805 57.5734 39.0585 57.5734 39.6271ZM55.7127 39.7111C55.7127 39.4569 55.6675 39.2373 55.5771 39.052C55.4866 38.8626 55.3574 38.7161 55.1894 38.6128C55.0257 38.5093 54.8233 38.4577 54.5821 38.4577C54.3495 38.4577 54.1492 38.5072 53.9813 38.6063C53.8176 38.7054 53.6905 38.8497 53.6001 39.0391C53.5139 39.2244 53.4709 39.4483 53.4709 39.7111C53.4709 39.9652 53.5139 40.1892 53.6001 40.383C53.6905 40.5725 53.8197 40.7211 53.9877 40.8288C54.1557 40.9364 54.3581 40.9903 54.595 40.9903C54.8319 40.9903 55.0322 40.9364 55.1959 40.8288C55.3638 40.7211 55.4909 40.5725 55.5771 40.383C55.6675 40.1892 55.7127 39.9652 55.7127 39.7111ZM60.3516 45.1252H60.4743C60.9912 45.1252 61.4348 45.0627 61.8052 44.9378C62.18 44.8086 62.4879 44.6235 62.7291 44.3822C62.9704 44.141 63.1491 43.846 63.2654 43.4971C63.3817 43.1439 63.4398 42.7434 63.4398 42.2954V40.5122C63.4398 40.1719 63.4053 39.8726 63.3365 39.6141C63.2718 39.3557 63.1771 39.1426 63.0522 38.9746C62.9316 38.8022 62.7895 38.673 62.6258 38.5869C62.4664 38.5007 62.2898 38.4577 62.096 38.4577C61.8893 38.4577 61.7062 38.5093 61.5468 38.6128C61.3874 38.7118 61.2518 38.8475 61.1398 39.0198C61.0321 39.192 60.9481 39.3902 60.8878 39.6141C60.8319 39.8338 60.8038 40.0643 60.8038 40.3055C60.8038 40.5467 60.8319 40.7771 60.8878 40.9968C60.9438 41.2121 61.0278 41.4038 61.1398 41.5718C61.2518 41.7354 61.3917 41.8668 61.5597 41.9659C61.7277 42.0607 61.9258 42.108 62.1542 42.108C62.3738 42.108 62.5698 42.0671 62.742 41.9853C62.9187 41.8991 63.0673 41.7872 63.1879 41.6493C63.3128 41.5115 63.4075 41.3586 63.4722 41.1906C63.541 41.0226 63.5755 40.8525 63.5755 40.6802L64.1893 41.0162C64.1893 41.3176 64.1247 41.6148 63.9955 41.9077C63.8663 42.2007 63.6853 42.4677 63.4528 42.7089C63.2245 42.9458 62.9596 43.1353 62.6581 43.2775C62.3566 43.4196 62.0336 43.4906 61.6889 43.4906C61.2496 43.4906 60.8598 43.411 60.5196 43.2516C60.1793 43.0879 59.8907 42.864 59.6538 42.5797C59.4212 42.2911 59.2446 41.9551 59.124 41.5718C59.0034 41.1884 58.9432 40.7728 58.9432 40.3249C58.9432 39.8683 59.0163 39.4397 59.1628 39.0391C59.3135 38.6386 59.5267 38.2854 59.8024 37.9796C60.0824 37.6738 60.4162 37.4347 60.8038 37.2625C61.1958 37.0858 61.6308 36.9976 62.1089 36.9976C62.587 36.9976 63.022 37.0901 63.414 37.2754C63.8059 37.4605 64.1419 37.7233 64.4219 38.0636C64.7019 38.3995 64.9172 38.8022 65.068 39.2718C65.223 39.7412 65.3005 40.2624 65.3005 40.8353V41.4813C65.3005 42.093 65.2338 42.6615 65.1003 43.187C64.9711 43.7125 64.7751 44.1884 64.5123 44.6148C64.2539 45.0369 63.9308 45.3987 63.5432 45.7003C63.1598 46.0017 62.7141 46.2322 62.2058 46.3915C61.6976 46.5509 61.129 46.6306 60.5002 46.6306H60.3516V45.1252Z" fill="black"/>
<path d="M71.7275 45.3553C71.2214 45.3553 70.7768 45.2457 70.3938 45.0265C70.0107 44.8073 69.7117 44.5032 69.4953 44.1142C69.2823 43.7252 69.1758 43.2775 69.1758 42.7712C69.1758 42.2247 69.281 41.7508 69.4907 41.3494C69.7004 40.945 69.9922 40.6316 70.366 40.4093C70.7398 40.187 71.1718 40.0759 71.6627 40.0759C72.1814 40.0759 72.6213 40.1978 72.9825 40.4417C73.3471 40.6826 73.617 41.0237 73.793 41.4652C73.969 41.9067 74.0351 42.427 73.9921 43.0259H72.8853V42.6184C72.882 42.075 72.7867 41.6782 72.5982 41.4282C72.4096 41.1781 72.1132 41.053 71.709 41.053C71.2518 41.053 70.9124 41.1951 70.6902 41.4791C70.4679 41.7601 70.3567 42.1723 70.3567 42.7156C70.3567 43.2219 70.4679 43.614 70.6902 43.8919C70.9124 44.1698 71.2366 44.3087 71.6627 44.3087C71.9372 44.3087 72.1734 44.2485 72.3712 44.1281C72.5717 44.0046 72.7265 43.8271 72.8343 43.5955L73.9365 43.929C73.7454 44.3797 73.449 44.7301 73.0474 44.9802C72.6491 45.2303 72.2092 45.3553 71.7275 45.3553ZM70.0048 43.0259V42.183H73.4457V43.0259H70.0048ZM75.0255 45.2164V38.5476H76.1555L79.2491 43.2482V38.5476H80.3791V45.2164H79.2491L76.1555 40.5158V45.2164H75.0255ZM84.4247 45.3553C83.992 45.3553 83.5864 45.2797 83.2067 45.1284C82.8296 44.9741 82.4981 44.7487 82.211 44.4523C81.9265 44.1559 81.7042 43.7931 81.5441 43.364C81.3834 42.9318 81.3033 42.4377 81.3033 41.882C81.3033 41.1534 81.4389 40.5313 81.7108 40.0157C81.9821 39.497 82.3546 39.1002 82.8269 38.8255C83.2993 38.5476 83.8319 38.4087 84.4247 38.4087C85.2457 38.4087 85.8954 38.6001 86.3744 38.9829C86.856 39.3627 87.1815 39.8968 87.3515 40.5853L86.2123 40.7659C86.0852 40.3708 85.8788 40.0558 85.5917 39.8212C85.3046 39.5835 84.9387 39.4646 84.4941 39.4646C84.0462 39.4584 83.6744 39.5557 83.378 39.7563C83.0816 39.957 82.8574 40.2395 82.7065 40.6038C82.5583 40.9682 82.4842 41.3942 82.4842 41.882C82.4842 42.3698 82.5583 42.7943 82.7065 43.1556C82.8547 43.5137 83.077 43.7931 83.3734 43.9938C83.6724 44.1945 84.0462 44.2979 84.4941 44.3041C84.8302 44.3072 85.1253 44.247 85.3787 44.1235C85.6314 43.9969 85.8385 43.807 85.9992 43.5538C86.1593 43.2976 86.2678 42.9781 86.3234 42.5952H85.1471V41.7199H87.509C87.5149 41.7693 87.5196 41.8419 87.5229 41.9376C87.5255 42.0333 87.5275 42.0904 87.5275 42.1089C87.5275 42.7388 87.4025 43.2991 87.1524 43.79C86.9049 44.2778 86.5503 44.6607 86.0872 44.9385C85.6241 45.2164 85.0697 45.3553 84.4247 45.3553ZM88.4577 45.2164V38.5476H89.5877L92.6813 43.2482V38.5476H93.8112V45.2164H92.6813L89.5877 40.5158V45.2164H88.4577Z" fill="#09090C"/>
<path d="M100.285 83.7076C99.8665 83.7076 99.504 83.615 99.197 83.4298C98.8927 83.2445 98.6558 82.9839 98.4865 82.6478C98.3171 82.3117 98.2324 81.9174 98.2324 81.4649C98.2324 80.9964 98.3158 80.5916 98.4825 80.2502C98.6492 79.9088 98.8834 79.6455 99.1851 79.4602C99.4894 79.275 99.848 79.1824 100.261 79.1824C100.684 79.1824 101.045 79.2803 101.345 79.4761C101.644 79.6693 101.87 79.9472 102.023 80.3097C102.177 80.6723 102.247 81.1049 102.234 81.6078H101.638V81.4013C101.628 80.8456 101.507 80.4262 101.277 80.143C101.049 79.8598 100.716 79.7183 100.277 79.7183C99.8163 79.7183 99.463 79.8678 99.2169 80.1668C98.9734 80.4659 98.8517 80.8919 98.8517 81.445C98.8517 81.9849 98.9734 82.4043 99.2169 82.7033C99.463 82.9997 99.811 83.1479 100.261 83.1479C100.568 83.1479 100.835 83.0778 101.063 82.9375C101.293 82.7946 101.474 82.5895 101.607 82.3223L102.15 82.5326C101.981 82.9058 101.731 83.1956 101.4 83.402C101.072 83.6057 100.7 83.7076 100.285 83.7076ZM98.6453 81.6078V81.1195H101.92V81.6078H98.6453ZM103.115 83.5885V77.8724H103.702L106.85 82.5565V77.8724H107.438V83.5885H106.85L103.702 78.9005V83.5885H103.115ZM110.84 83.7076C110.437 83.7076 110.075 83.6375 109.752 83.4972C109.429 83.357 109.154 83.1572 108.926 82.8978C108.701 82.6385 108.529 82.3262 108.41 81.961C108.291 81.5932 108.232 81.183 108.232 80.7305C108.232 80.1324 108.335 79.6111 108.541 79.1665C108.75 78.7193 109.049 78.3726 109.438 78.1265C109.827 77.8804 110.294 77.7573 110.84 77.7573C111.448 77.7573 111.943 77.9002 112.324 78.186C112.708 78.4692 112.975 78.8503 113.126 79.3293L112.539 79.4722C112.414 79.1228 112.209 78.8437 111.923 78.6346C111.64 78.4255 111.287 78.321 110.863 78.321C110.416 78.3184 110.044 78.4189 109.748 78.6227C109.452 78.8238 109.228 79.107 109.077 79.4722C108.929 79.8347 108.854 80.2541 108.851 80.7305C108.848 81.2068 108.921 81.6263 109.069 81.9888C109.22 82.3487 109.445 82.6319 109.744 82.8383C110.043 83.0421 110.416 83.1453 110.863 83.1479C111.274 83.1479 111.612 83.0685 111.88 82.9098C112.147 82.751 112.349 82.5234 112.487 82.227C112.627 81.9306 112.707 81.58 112.725 81.1751H111.407V80.6749H113.336C113.344 80.7358 113.348 80.8006 113.348 80.8694C113.351 80.9356 113.352 80.9832 113.352 81.0123C113.352 81.5284 113.26 81.9901 113.074 82.3977C112.889 82.8026 112.61 83.1228 112.237 83.3583C111.866 83.5912 111.401 83.7076 110.84 83.7076ZM114.147 83.5885V77.8724H114.734L117.882 82.5565V77.8724H118.47V83.5885H117.882L114.734 78.9005V83.5885H114.147Z" fill="#09090C"/>
<path d="M11.1406 45.8782V40.1621H13.3477C13.4032 40.1621 13.4654 40.1648 13.5342 40.17C13.6057 40.1727 13.6771 40.1806 13.7486 40.1939C14.0476 40.2389 14.3004 40.3434 14.5068 40.5075C14.7158 40.6689 14.8733 40.8727 14.9791 41.1188C15.0876 41.3649 15.1419 41.6374 15.1419 41.9365C15.1419 42.3678 15.0281 42.7423 14.8005 43.0599C14.5729 43.3774 14.2474 43.5772 13.824 43.6593L13.6216 43.7069H11.7241V45.8782H11.1406ZM14.602 45.8782L13.4747 43.5521L14.0344 43.3377L15.2729 45.8782H14.602ZM11.7241 43.1512H13.3318C13.3794 43.1512 13.435 43.1485 13.4985 43.1432C13.562 43.1379 13.6242 43.1287 13.6851 43.1154C13.8809 43.0731 14.041 42.9924 14.1654 42.8733C14.2924 42.7542 14.3864 42.6126 14.4472 42.4485C14.5107 42.2845 14.5425 42.1138 14.5425 41.9365C14.5425 41.7592 14.5107 41.5885 14.4472 41.4244C14.3864 41.2577 14.2924 41.1148 14.1654 40.9957C14.041 40.8766 13.8809 40.7959 13.6851 40.7536C13.6242 40.7403 13.562 40.7324 13.4985 40.7297C13.435 40.7245 13.3794 40.7218 13.3318 40.7218H11.7241V43.1512ZM17.3756 45.9973C17.0528 45.9973 16.7815 45.9391 16.5619 45.8226C16.3449 45.7062 16.1821 45.5514 16.0736 45.3582C15.9651 45.165 15.9109 44.9546 15.9109 44.727C15.9109 44.4942 15.9572 44.2957 16.0498 44.1316C16.1451 43.9649 16.2734 43.8286 16.4348 43.7228C16.5989 43.6169 16.7881 43.5362 17.0025 43.4806C17.2195 43.4277 17.459 43.3814 17.721 43.3417C17.9856 43.2993 18.2436 43.2636 18.495 43.2345C18.7491 43.2028 18.9713 43.1723 19.1619 43.1432L18.9555 43.2702C18.9634 42.8468 18.8814 42.5332 18.7094 42.3295C18.5373 42.1257 18.2383 42.0238 17.8123 42.0238C17.5185 42.0238 17.2698 42.09 17.066 42.2223C16.8649 42.3546 16.7233 42.5637 16.6412 42.8495L16.0736 42.6827C16.1715 42.299 16.3687 42.0013 16.6651 41.7896C16.9615 41.5779 17.3465 41.472 17.8202 41.472C18.2118 41.472 18.544 41.5461 18.8165 41.6943C19.0918 41.8399 19.2863 42.0516 19.4001 42.3295C19.453 42.4538 19.4874 42.5928 19.5033 42.7463C19.5191 42.8997 19.5271 43.0559 19.5271 43.2147V45.8782H19.0071V44.8025L19.1579 44.866C19.0124 45.2338 18.7861 45.5143 18.4791 45.7075C18.1722 45.9007 17.8043 45.9973 17.3756 45.9973ZM17.4431 45.4932C17.7157 45.4932 17.9538 45.4442 18.1576 45.3463C18.3614 45.2484 18.5254 45.1147 18.6498 44.9454C18.7742 44.7734 18.8549 44.5802 18.892 44.3658C18.9237 44.2282 18.9409 44.0774 18.9436 43.9133C18.9462 43.7466 18.9475 43.6222 18.9475 43.5402L19.1698 43.6553C18.9713 43.6817 18.7557 43.7082 18.5228 43.7347C18.2926 43.7611 18.065 43.7916 17.84 43.826C17.6177 43.8604 17.4166 43.9014 17.2367 43.949C17.1149 43.9834 16.9972 44.0324 16.8834 44.0959C16.7696 44.1568 16.6756 44.2388 16.6015 44.342C16.5301 44.4452 16.4944 44.5736 16.4944 44.727C16.4944 44.8514 16.5248 44.9718 16.5857 45.0883C16.6492 45.2047 16.7497 45.3013 16.8874 45.378C17.0276 45.4548 17.2129 45.4932 17.4431 45.4932ZM22.8945 45.8782C22.6537 45.9285 22.4156 45.9483 22.18 45.9377C21.9472 45.9272 21.7381 45.8769 21.5529 45.7869C21.3703 45.6969 21.2313 45.5567 21.1361 45.3661C21.0593 45.2074 21.017 45.0473 21.009 44.8858C21.0037 44.7218 21.0011 44.5352 21.0011 44.3261V40.4003H21.5806V44.3023C21.5806 44.4823 21.582 44.6331 21.5846 44.7548C21.5899 44.8739 21.6177 44.9798 21.668 45.0724C21.7632 45.2497 21.9141 45.3556 22.1205 45.39C22.3296 45.4244 22.5876 45.4164 22.8945 45.3661V45.8782ZM20.0841 42.0913V41.5911H22.8945V42.0913H20.0841ZM25.3982 45.9973C24.9801 45.9973 24.6175 45.9047 24.3105 45.7194C24.0062 45.5342 23.7694 45.2735 23.6 44.9374C23.4306 44.6013 23.346 44.207 23.346 43.7545C23.346 43.2861 23.4293 42.8812 23.596 42.5398C23.7627 42.1985 23.9969 41.9352 24.2986 41.7499C24.603 41.5647 24.9615 41.472 25.3744 41.472C25.7978 41.472 26.159 41.57 26.458 41.7658C26.7571 41.959 26.9833 42.2368 27.1368 42.5994C27.2903 42.9619 27.3605 43.3946 27.3472 43.8974H26.7518V43.691C26.7412 43.1353 26.6208 42.7158 26.3906 42.4327C26.163 42.1495 25.8295 42.0079 25.3902 42.0079C24.9298 42.0079 24.5765 42.1574 24.3304 42.4565C24.0869 42.7555 23.9652 43.1816 23.9652 43.7347C23.9652 44.2745 24.0869 44.694 24.3304 44.993C24.5765 45.2894 24.9245 45.4376 25.3744 45.4376C25.6813 45.4376 25.9486 45.3675 26.1762 45.2272C26.4064 45.0843 26.5877 44.8792 26.72 44.6119L27.2639 44.8223C27.0945 45.1954 26.8444 45.4852 26.5136 45.6916C26.1855 45.8954 25.8137 45.9973 25.3982 45.9973ZM23.7588 43.8974V43.4092H27.0336V43.8974H23.7588ZM28.5457 45.2431V44.5643H29.2245V45.2431H28.5457ZM28.5496 42.905V42.2263H29.2284V42.905H28.5496Z" fill="black"/>
<path d="M11.4058 65.0642L13.3746 59.3481H14.1487L16.1176 65.0642H15.5102L13.6406 59.6736H13.8708L12.0131 65.0642H11.4058ZM12.283 63.6788V63.131H15.2363V63.6788H12.283ZM17.6756 65.0642L16.1196 60.7771H16.711L17.9773 64.302L19.2356 60.7771H19.835L18.279 65.0642H17.6756ZM21.5343 65.1833C21.2114 65.1833 20.9402 65.1251 20.7206 65.0086C20.5036 64.8922 20.3408 64.7374 20.2323 64.5442C20.1238 64.351 20.0696 64.1406 20.0696 63.913C20.0696 63.6802 20.1159 63.4817 20.2085 63.3176C20.3038 63.1509 20.4321 63.0146 20.5935 62.9087C20.7576 62.8029 20.9468 62.7222 21.1612 62.6666C21.3782 62.6137 21.6177 62.5674 21.8796 62.5277C22.1443 62.4853 22.4023 62.4496 22.6537 62.4205C22.9078 62.3887 23.13 62.3583 23.3206 62.3292L23.1142 62.4562C23.1221 62.0328 23.0401 61.7192 22.8681 61.5154C22.696 61.3117 22.397 61.2098 21.9709 61.2098C21.6772 61.2098 21.4284 61.2759 21.2247 61.4083C21.0236 61.5406 20.882 61.7496 20.7999 62.0354L20.2323 61.8687C20.3302 61.485 20.5274 61.1873 20.8238 60.9756C21.1202 60.7639 21.5052 60.658 21.9789 60.658C22.3705 60.658 22.7027 60.7321 22.9752 60.8803C23.2505 61.0259 23.445 61.2376 23.5588 61.5154C23.6117 61.6398 23.6461 61.7788 23.662 61.9322C23.6778 62.0857 23.6858 62.2419 23.6858 62.4006V65.0642H23.1658V63.9884L23.3166 64.052C23.1711 64.4198 22.9448 64.7003 22.6378 64.8935C22.3309 65.0867 21.963 65.1833 21.5343 65.1833ZM21.6018 64.6791C21.8744 64.6791 22.1125 64.6302 22.3163 64.5323C22.5201 64.4344 22.6841 64.3007 22.8085 64.1313C22.9329 63.9593 23.0136 63.7662 23.0507 63.5518C23.0824 63.4142 23.0996 63.2634 23.1023 63.0993C23.1049 62.9326 23.1062 62.8082 23.1062 62.7261L23.3285 62.8413C23.13 62.8677 22.9144 62.8942 22.6815 62.9207C22.4513 62.9471 22.2237 62.9775 21.9987 63.012C21.7764 63.0464 21.5753 63.0874 21.3954 63.135C21.2736 63.1694 21.1559 63.2184 21.0421 63.2819C20.9283 63.3427 20.8343 63.4248 20.7602 63.528C20.6888 63.6312 20.6531 63.7595 20.6531 63.913C20.6531 64.0374 20.6835 64.1578 20.7444 64.2743C20.8079 64.3907 20.9084 64.4873 21.0461 64.564C21.1863 64.6408 21.3716 64.6791 21.6018 64.6791ZM24.7985 59.9634V59.3084H25.382V59.9634H24.7985ZM24.7985 65.0642V60.7771H25.382V65.0642H24.7985ZM26.6515 65.0642V59.229H27.235V65.0642H26.6515ZM29.6516 65.1833C29.3288 65.1833 29.0575 65.1251 28.8379 65.0086C28.6209 64.8922 28.4581 64.7374 28.3496 64.5442C28.2411 64.351 28.1869 64.1406 28.1869 63.913C28.1869 63.6802 28.2332 63.4817 28.3258 63.3176C28.4211 63.1509 28.5494 63.0146 28.7108 62.9087C28.8749 62.8029 29.0641 62.7222 29.2785 62.6666C29.4955 62.6137 29.735 62.5674 29.997 62.5277C30.2616 62.4853 30.5196 62.4496 30.771 62.4205C31.0251 62.3887 31.2474 62.3583 31.4379 62.3292L31.2315 62.4562C31.2394 62.0328 31.1574 61.7192 30.9854 61.5154C30.8134 61.3117 30.5143 61.2098 30.0883 61.2098C29.7945 61.2098 29.5458 61.2759 29.342 61.4083C29.1409 61.5406 28.9993 61.7496 28.9173 62.0354L28.3496 61.8687C28.4475 61.485 28.6447 61.1873 28.9411 60.9756C29.2375 60.7639 29.6225 60.658 30.0962 60.658C30.4879 60.658 30.82 60.7321 31.0926 60.8803C31.3678 61.0259 31.5623 61.2376 31.6761 61.5154C31.729 61.6398 31.7634 61.7788 31.7793 61.9322C31.7952 62.0857 31.8031 62.2419 31.8031 62.4006V65.0642H31.2831V63.9884L31.4339 64.052C31.2884 64.4198 31.0621 64.7003 30.7551 64.8935C30.4482 65.0867 30.0803 65.1833 29.6516 65.1833ZM29.7191 64.6791C29.9917 64.6791 30.2298 64.6302 30.4336 64.5323C30.6374 64.4344 30.8015 64.3007 30.9258 64.1313C31.0502 63.9593 31.1309 63.7662 31.168 63.5518C31.1997 63.4142 31.2169 63.2634 31.2196 63.0993C31.2222 62.9326 31.2236 62.8082 31.2236 62.7261L31.4458 62.8413C31.2474 62.8677 31.0317 62.8942 30.7988 62.9207C30.5686 62.9471 30.341 62.9775 30.1161 63.012C29.8938 63.0464 29.6926 63.0874 29.5127 63.135C29.391 63.1694 29.2732 63.2184 29.1594 63.2819C29.0456 63.3427 28.9517 63.4248 28.8776 63.528C28.8061 63.6312 28.7704 63.7595 28.7704 63.913C28.7704 64.0374 28.8008 64.1578 28.8617 64.2743C28.9252 64.3907 29.0258 64.4873 29.1634 64.564C29.3036 64.6408 29.4889 64.6791 29.7191 64.6791ZM34.7617 65.1833C34.3674 65.1833 34.034 65.084 33.7614 64.8856C33.4888 64.6844 33.2824 64.4132 33.1422 64.0718C33.0019 63.7278 32.9318 63.3427 32.9318 62.9167C32.9318 62.4827 33.0019 62.0963 33.1422 61.7576C33.2851 61.4162 33.4941 61.1476 33.7693 60.9518C34.0446 60.7559 34.3833 60.658 34.7855 60.658C35.1772 60.658 35.5133 60.7573 35.7938 60.9557C36.0743 61.1542 36.2886 61.4241 36.4368 61.7655C36.5877 62.1069 36.6631 62.4906 36.6631 62.9167C36.6631 63.3454 36.5877 63.7304 36.4368 64.0718C36.286 64.4132 36.069 64.6844 35.7858 64.8856C35.5027 65.084 35.1613 65.1833 34.7617 65.1833ZM32.8325 65.0642V59.3481H33.42V61.837H33.3565V65.0642H32.8325ZM34.7022 64.6395C35.0012 64.6395 35.25 64.564 35.4484 64.4132C35.6469 64.2623 35.7951 64.0573 35.893 63.7979C35.9936 63.5359 36.0439 63.2422 36.0439 62.9167C36.0439 62.5938 35.9949 62.3027 35.897 62.0434C35.7991 61.784 35.6496 61.579 35.4484 61.4281C35.25 61.2773 34.9972 61.2019 34.6903 61.2019C34.3912 61.2019 34.1425 61.2746 33.944 61.4202C33.7482 61.5657 33.6013 61.7682 33.5034 62.0275C33.4055 62.2842 33.3565 62.5806 33.3565 62.9167C33.3565 63.2475 33.4055 63.5439 33.5034 63.8059C33.6013 64.0652 33.7495 64.269 33.948 64.4172C34.1464 64.5654 34.3978 64.6395 34.7022 64.6395ZM37.6141 65.0642V59.229H38.1977V65.0642H37.6141ZM41.2018 65.1833C40.7837 65.1833 40.4211 65.0907 40.1141 64.9054C39.8098 64.7202 39.573 64.4595 39.4036 64.1234C39.2342 63.7873 39.1495 63.393 39.1495 62.9405C39.1495 62.4721 39.2329 62.0672 39.3996 61.7258C39.5663 61.3845 39.8005 61.1211 40.1022 60.9359C40.4066 60.7507 40.7651 60.658 41.178 60.658C41.6014 60.658 41.9626 60.7559 42.2616 60.9518C42.5607 61.145 42.7869 61.4228 42.9404 61.7854C43.0939 62.1479 43.164 62.5806 43.1508 63.0834H42.5554V62.877C42.5448 62.3213 42.4244 61.9018 42.1942 61.6186C41.9666 61.3355 41.6331 61.1939 41.1938 61.1939C40.7334 61.1939 40.3801 61.3434 40.134 61.6425C39.8905 61.9415 39.7688 62.3676 39.7688 62.9207C39.7688 63.4605 39.8905 63.88 40.134 64.179C40.3801 64.4754 40.7281 64.6236 41.178 64.6236C41.4849 64.6236 41.7522 64.5534 41.9798 64.4132C42.21 64.2703 42.3913 64.0652 42.5236 63.7979L43.0674 64.0083C42.8981 64.3814 42.648 64.6712 42.3172 64.8776C41.9891 65.0814 41.6173 65.1833 41.2018 65.1833ZM39.5624 63.0834V62.5951H42.8372V63.0834H39.5624ZM45.2242 65.0642L47.193 59.3481H47.9671L49.936 65.0642H49.3286L47.459 59.6736H47.6892L45.8315 65.0642H45.2242ZM46.1014 63.6788V63.131H49.0547V63.6788H46.1014ZM55.7655 65.0642L55.7695 62.2498C55.7695 61.919 55.6769 61.6597 55.4916 61.4718C55.309 61.2812 55.0762 61.186 54.793 61.186C54.6316 61.186 54.4741 61.223 54.3206 61.2971C54.1671 61.3712 54.0401 61.4903 53.9395 61.6544C53.8416 61.8184 53.7927 62.0328 53.7927 62.2974L53.4473 62.1982C53.4394 61.8912 53.4989 61.6226 53.626 61.3924C53.7556 61.1622 53.9329 60.9835 54.1579 60.8565C54.3855 60.7268 54.6421 60.662 54.928 60.662C55.3593 60.662 55.7047 60.7956 55.964 61.0629C56.2233 61.3276 56.353 61.6861 56.353 62.1387L56.349 65.0642H55.7655ZM50.6488 65.0642V60.7771H51.1728V61.833H51.2363V65.0642H50.6488ZM53.2131 65.0642L53.2171 62.2895C53.2171 61.9481 53.1258 61.6795 52.9432 61.4837C52.7632 61.2852 52.5251 61.186 52.2287 61.186C51.9323 61.186 51.6928 61.2879 51.5102 61.4916C51.3276 61.6927 51.2363 61.9614 51.2363 62.2974L50.887 62.1069C50.887 61.8317 50.9518 61.5856 51.0815 61.3686C51.2112 61.1489 51.3885 60.9769 51.6134 60.8525C51.8384 60.7255 52.0937 60.662 52.3795 60.662C52.6521 60.662 52.8942 60.7202 53.1059 60.8367C53.3203 60.9531 53.4883 61.1225 53.6101 61.3448C53.7318 61.567 53.7927 61.837 53.7927 62.1545L53.7887 65.0642H53.2131ZM59.1493 65.1833C58.7233 65.1833 58.3594 65.0867 58.0577 64.8935C57.756 64.7003 57.5245 64.433 57.3631 64.0917C57.2016 63.7503 57.1209 63.3586 57.1209 62.9167C57.1209 62.4668 57.2029 62.0725 57.367 61.7338C57.5311 61.395 57.764 61.1317 58.0657 60.9438C58.37 60.7533 58.7312 60.658 59.1493 60.658C59.578 60.658 59.9432 60.7546 60.2449 60.9478C60.5492 61.1383 60.7808 61.4043 60.9396 61.7457C61.101 62.0844 61.1817 62.4747 61.1817 62.9167C61.1817 63.3666 61.101 63.7622 60.9396 64.1036C60.7782 64.4423 60.5453 64.7069 60.2409 64.8975C59.9366 65.088 59.5728 65.1833 59.1493 65.1833ZM59.1493 64.6236C59.6257 64.6236 59.9803 64.4661 60.2132 64.1512C60.446 63.8336 60.5625 63.4221 60.5625 62.9167C60.5625 62.398 60.4447 61.9852 60.2092 61.6782C59.9763 61.3712 59.623 61.2177 59.1493 61.2177C58.8291 61.2177 58.5645 61.2905 58.3554 61.4361C58.149 61.579 57.9942 61.7788 57.891 62.0354C57.7904 62.2895 57.7402 62.5832 57.7402 62.9167C57.7402 63.4327 57.8592 63.8469 58.0974 64.1591C58.3356 64.4688 58.6862 64.6236 59.1493 64.6236ZM63.6967 65.1714C63.44 65.1714 63.2151 65.1317 63.0219 65.0523C62.8314 64.9729 62.6686 64.8657 62.5337 64.7307C62.4014 64.5958 62.2942 64.4423 62.2121 64.2703C62.1301 64.0956 62.0706 63.9117 62.0335 63.7185C61.9965 63.5227 61.9779 63.3282 61.9779 63.135V60.7771H62.5654V62.9643C62.5654 63.1998 62.5879 63.4182 62.6329 63.6193C62.6779 63.8204 62.7494 63.9964 62.8473 64.1472C62.9478 64.2954 63.0762 64.4105 63.2323 64.4926C63.3911 64.5746 63.5829 64.6156 63.8079 64.6156C64.0143 64.6156 64.1956 64.5799 64.3517 64.5085C64.5105 64.437 64.6428 64.3351 64.7487 64.2028C64.8572 64.0678 64.9392 63.9051 64.9948 63.7146C65.0503 63.5214 65.0781 63.3044 65.0781 63.0636L65.491 63.1549C65.491 63.5941 65.4142 63.9633 65.2607 64.2623C65.1072 64.5614 64.8955 64.7876 64.6256 64.9411C64.3557 65.0946 64.0461 65.1714 63.6967 65.1714ZM65.1377 65.0642V64.0083H65.0781V60.7771H65.6616V65.0642H65.1377ZM69.8674 65.0642V62.877C69.8674 62.6388 69.8449 62.4205 69.7999 62.222C69.7549 62.0209 69.6822 61.8462 69.5816 61.698C69.4837 61.5472 69.3553 61.4308 69.1966 61.3487C69.0404 61.2667 68.8499 61.2257 68.625 61.2257C68.4185 61.2257 68.2359 61.2614 68.0772 61.3328C67.921 61.4043 67.7887 61.5075 67.6802 61.6425C67.5744 61.7748 67.4936 61.9362 67.4381 62.1267C67.3825 62.3173 67.3547 62.5343 67.3547 62.7777L66.9419 62.6864C66.9419 62.2472 67.0186 61.878 67.1721 61.579C67.3256 61.2799 67.5373 61.0537 67.8072 60.9002C68.0772 60.7467 68.3868 60.6699 68.7361 60.6699C68.9928 60.6699 69.2164 60.7096 69.407 60.789C69.6001 60.8684 69.7629 60.9756 69.8952 61.1106C70.0302 61.2455 70.1387 61.4003 70.2207 61.575C70.3027 61.747 70.3623 61.9309 70.3993 62.1267C70.4364 62.3199 70.4549 62.5131 70.4549 62.7063V65.0642H69.8674ZM66.7672 65.0642V60.7771H67.2952V61.833H67.3547V65.0642H66.7672ZM73.8191 65.0642C73.5782 65.1145 73.3401 65.1343 73.1045 65.1237C72.8717 65.1131 72.6626 65.0629 72.4774 64.9729C72.2948 64.8829 72.1558 64.7427 72.0606 64.5521C71.9838 64.3933 71.9415 64.2332 71.9335 64.0718C71.9282 63.9077 71.9256 63.7212 71.9256 63.5121V59.5863H72.5052V63.4883C72.5052 63.6682 72.5065 63.8191 72.5091 63.9408C72.5144 64.0599 72.5422 64.1658 72.5925 64.2584C72.6877 64.4357 72.8386 64.5415 73.045 64.5759C73.2541 64.6103 73.5121 64.6024 73.8191 64.5521V65.0642ZM71.0086 61.2773V60.7771H73.8191V61.2773H71.0086ZM74.9815 64.4291V63.7503H75.6603V64.4291H74.9815ZM74.9854 62.091V61.4122H75.6642V62.091H74.9854Z" fill="black"/>
<path d="M11.8818 83.5883V77.8722H12.4654V83.0286H15.1805V83.5883H11.8818ZM15.9366 78.4875V77.8325H16.5201V78.4875H15.9366ZM15.9366 83.5883V79.3012H16.5201V83.5883H15.9366ZM22.8229 83.5883L22.8269 80.7739C22.8269 80.4431 22.7343 80.1838 22.549 79.9959C22.3664 79.8054 22.1336 79.7101 21.8504 79.7101C21.689 79.7101 21.5315 79.7471 21.378 79.8212C21.2245 79.8953 21.0975 80.0144 20.997 80.1785C20.899 80.3426 20.8501 80.5569 20.8501 80.8216L20.5047 80.7223C20.4968 80.4153 20.5563 80.1467 20.6834 79.9165C20.813 79.6863 20.9903 79.5077 21.2153 79.3806C21.4429 79.251 21.6996 79.1861 21.9854 79.1861C22.4167 79.1861 22.7621 79.3198 23.0214 79.587C23.2808 79.8517 23.4104 80.2103 23.4104 80.6628L23.4065 83.5883H22.8229ZM17.7062 83.5883V79.3012H18.2302V80.3571H18.2937V83.5883H17.7062ZM20.2705 83.5883L20.2745 80.8136C20.2745 80.4722 20.1832 80.2036 20.0006 80.0078C19.8207 79.8093 19.5825 79.7101 19.2861 79.7101C18.9897 79.7101 18.7502 79.812 18.5676 80.0157C18.385 80.2169 18.2937 80.4855 18.2937 80.8216L17.9444 80.631C17.9444 80.3558 18.0092 80.1097 18.1389 79.8927C18.2686 79.673 18.4459 79.501 18.6708 79.3767C18.8958 79.2496 19.1511 79.1861 19.4369 79.1861C19.7095 79.1861 19.9517 79.2443 20.1634 79.3608C20.3777 79.4772 20.5458 79.6466 20.6675 79.8689C20.7892 80.0912 20.8501 80.3611 20.8501 80.6787L20.8461 83.5883H20.2705ZM24.5192 78.4875V77.8325H25.1027V78.4875H24.5192ZM24.5192 83.5883V79.3012H25.1027V83.5883H24.5192ZM28.6268 83.5883C28.3859 83.6386 28.1478 83.6584 27.9122 83.6479C27.6794 83.6373 27.4703 83.587 27.2851 83.497C27.1025 83.407 26.9635 83.2668 26.8683 83.0762C26.7915 82.9175 26.7492 82.7574 26.7412 82.5959C26.7359 82.4319 26.7333 82.2453 26.7333 82.0362V78.1104H27.3129V82.0124C27.3129 82.1924 27.3142 82.3432 27.3168 82.4649C27.3221 82.584 27.3499 82.6899 27.4002 82.7825C27.4955 82.9598 27.6463 83.0657 27.8527 83.1001C28.0618 83.1345 28.3198 83.1265 28.6268 83.0762V83.5883ZM25.8163 79.8014V79.3012H28.6268V79.8014H25.8163ZM29.789 82.9532V82.2744H30.4678V82.9532H29.789ZM29.7929 80.6151V79.9364H30.4717V80.6151H29.7929Z" fill="black"/>
<path d="M78.4639 65.0602L78.4678 64.5283L81.052 62.1942C81.2743 61.9931 81.4212 61.8026 81.4926 61.6226C81.5667 61.44 81.6038 61.2495 81.6038 61.051C81.6038 60.8155 81.5482 60.6025 81.437 60.4119C81.3259 60.2214 81.1764 60.0705 80.9885 59.9594C80.8006 59.8456 80.5902 59.7887 80.3573 59.7887C80.1139 59.7887 79.8969 59.8469 79.7063 59.9634C79.5158 60.0798 79.3649 60.2333 79.2538 60.4238C79.1453 60.6144 79.0924 60.8221 79.095 61.047H78.4996C78.4996 60.7004 78.5816 60.3894 78.7457 60.1142C78.9098 59.839 79.1321 59.6233 79.4126 59.4672C79.6931 59.3084 80.0107 59.229 80.3653 59.229C80.7119 59.229 81.0229 59.311 81.2981 59.4751C81.576 59.6365 81.7943 59.8562 81.9531 60.1341C82.1145 60.4093 82.1952 60.7162 82.1952 61.055C82.1952 61.2932 82.1661 61.5035 82.1079 61.6861C82.0523 61.8661 81.9637 62.0341 81.8419 62.1903C81.7228 62.3437 81.5707 62.5025 81.3854 62.6666L79.091 64.7387L78.9998 64.5005H82.1952V65.0602H78.4639ZM84.1469 65.0642V59.9991L83.0712 60.6461V59.9912L84.1469 59.3481H84.7383V65.0642H84.1469ZM88.1098 65.1833C87.7578 65.1833 87.4403 65.1012 87.1571 64.9372C86.8766 64.7731 86.6543 64.5508 86.4902 64.2703C86.3261 63.9871 86.2441 63.6696 86.2441 63.3176V61.0947C86.2441 60.7427 86.3261 60.4265 86.4902 60.146C86.6543 59.8628 86.8766 59.6392 87.1571 59.4751C87.4403 59.311 87.7578 59.229 88.1098 59.229C88.4617 59.229 88.778 59.311 89.0585 59.4751C89.3417 59.6392 89.5653 59.8628 89.7293 60.146C89.8934 60.4265 89.9755 60.7427 89.9755 61.0947V63.3176C89.9755 63.6696 89.8934 63.9871 89.7293 64.2703C89.5653 64.5508 89.3417 64.7731 89.0585 64.9372C88.778 65.1012 88.4617 65.1833 88.1098 65.1833ZM88.1098 64.6196C88.3453 64.6196 88.5597 64.5627 88.7528 64.4489C88.946 64.3325 89.0995 64.1777 89.2133 63.9845C89.3271 63.7913 89.384 63.5783 89.384 63.3454V61.0669C89.384 60.8314 89.3271 60.617 89.2133 60.4238C89.0995 60.2306 88.946 60.0772 88.7528 59.9634C88.5597 59.8469 88.3453 59.7887 88.1098 59.7887C87.8743 59.7887 87.6599 59.8469 87.4667 59.9634C87.2735 60.0772 87.12 60.2306 87.0063 60.4238C86.8925 60.617 86.8356 60.8314 86.8356 61.0669V63.3454C86.8356 63.5783 86.8925 63.7913 87.0063 63.9845C87.12 64.1777 87.2735 64.3325 87.4667 64.4489C87.6599 64.5627 87.8743 64.6196 88.1098 64.6196ZM91.0102 65.8938L91.0459 65.604C91.1517 65.612 91.2285 65.5908 91.2761 65.5405C91.3238 65.4902 91.3529 65.4228 91.3635 65.3381C91.374 65.2534 91.3767 65.1621 91.3714 65.0642H91.0102V64.2266H91.689V65.223C91.689 65.4664 91.6268 65.649 91.5024 65.7708C91.3807 65.8925 91.2166 65.9335 91.0102 65.8938ZM96.4749 65.1833C96.1785 65.1833 95.9046 65.1224 95.6532 65.0007C95.4018 64.8789 95.1874 64.7109 95.0101 64.4965C94.8328 64.2822 94.7058 64.0361 94.629 63.7582L95.1887 63.6074C95.239 63.8138 95.3303 63.9924 95.4626 64.1433C95.595 64.2915 95.7498 64.4066 95.9271 64.4886C96.107 64.5706 96.2949 64.6117 96.4907 64.6117C96.7448 64.6117 96.9724 64.5508 97.1735 64.4291C97.3773 64.3047 97.5387 64.1406 97.6578 63.9368C97.7769 63.7331 97.8364 63.5095 97.8364 63.266C97.8364 63.0146 97.7742 62.7883 97.6498 62.5872C97.5255 62.3834 97.3614 62.222 97.1576 62.1029C96.9539 61.9838 96.7316 61.9243 96.4907 61.9243C96.2208 61.9243 95.9879 61.9838 95.7921 62.1029C95.5963 62.2194 95.4401 62.3662 95.3237 62.5435L94.7918 62.3213L94.9665 59.3481H98.019V59.9078H95.2245L95.5142 59.6339L95.3594 62.1704L95.2126 61.9759C95.3766 61.788 95.5751 61.6411 95.808 61.5353C96.0409 61.4294 96.2857 61.3765 96.5423 61.3765C96.8943 61.3765 97.2119 61.4612 97.495 61.6306C97.7782 61.7973 98.0031 62.0235 98.1698 62.3093C98.3366 62.5951 98.4199 62.914 98.4199 63.266C98.4199 63.6153 98.3313 63.9355 98.154 64.2266C97.9767 64.5151 97.7411 64.7466 97.4474 64.9213C97.1537 65.0959 96.8295 65.1833 96.4749 65.1833ZM101.235 65.1833C100.883 65.1833 100.565 65.1012 100.282 64.9372C100.002 64.7731 99.7795 64.5508 99.6154 64.2703C99.4513 63.9871 99.3693 63.6696 99.3693 63.3176V61.0947C99.3693 60.7427 99.4513 60.4265 99.6154 60.146C99.7795 59.8628 100.002 59.6392 100.282 59.4751C100.565 59.311 100.883 59.229 101.235 59.229C101.587 59.229 101.903 59.311 102.184 59.4751C102.467 59.6392 102.69 59.8628 102.855 60.146C103.019 60.4265 103.101 60.7427 103.101 61.0947V63.3176C103.101 63.6696 103.019 63.9871 102.855 64.2703C102.69 64.5508 102.467 64.7731 102.184 64.9372C101.903 65.1012 101.587 65.1833 101.235 65.1833ZM101.235 64.6196C101.47 64.6196 101.685 64.5627 101.878 64.4489C102.071 64.3325 102.225 64.1777 102.338 63.9845C102.452 63.7913 102.509 63.5783 102.509 63.3454V61.0669C102.509 60.8314 102.452 60.617 102.338 60.4238C102.225 60.2306 102.071 60.0772 101.878 59.9634C101.685 59.8469 101.47 59.7887 101.235 59.7887C100.999 59.7887 100.785 59.8469 100.592 59.9634C100.399 60.0772 100.245 60.2306 100.131 60.4238C100.018 60.617 99.9608 60.8314 99.9608 61.0669V63.3454C99.9608 63.5783 100.018 63.7913 100.131 63.9845C100.245 64.1777 100.399 64.3325 100.592 64.4489C100.785 64.5627 100.999 64.6196 101.235 64.6196ZM106.081 65.1833C105.729 65.1833 105.412 65.1012 105.128 64.9372C104.848 64.7731 104.626 64.5508 104.462 64.2703C104.297 63.9871 104.215 63.6696 104.215 63.3176V61.0947C104.215 60.7427 104.297 60.4265 104.462 60.146C104.626 59.8628 104.848 59.6392 105.128 59.4751C105.412 59.311 105.729 59.229 106.081 59.229C106.433 59.229 106.749 59.311 107.03 59.4751C107.313 59.6392 107.537 59.8628 107.701 60.146C107.865 60.4265 107.947 60.7427 107.947 61.0947V63.3176C107.947 63.6696 107.865 63.9871 107.701 64.2703C107.537 64.5508 107.313 64.7731 107.03 64.9372C106.749 65.1012 106.433 65.1833 106.081 65.1833ZM106.081 64.6196C106.317 64.6196 106.531 64.5627 106.724 64.4489C106.917 64.3325 107.071 64.1777 107.185 63.9845C107.298 63.7913 107.355 63.5783 107.355 63.3454V61.0669C107.355 60.8314 107.298 60.617 107.185 60.4238C107.071 60.2306 106.917 60.0772 106.724 59.9634C106.531 59.8469 106.317 59.7887 106.081 59.7887C105.846 59.7887 105.631 59.8469 105.438 59.9634C105.245 60.0772 105.091 60.2306 104.978 60.4238C104.864 60.617 104.807 60.8314 104.807 61.0669V63.3454C104.807 63.5783 104.864 63.7913 104.978 63.9845C105.091 64.1777 105.245 64.3325 105.438 64.4489C105.631 64.5627 105.846 64.6196 106.081 64.6196ZM110.491 65.0642V64.9411L113.615 59.9078H110.571V59.3481H114.572V59.4831L111.464 64.5085H114.544V65.0642H110.491ZM115.13 65.0642L117.098 59.3481H117.873L119.841 65.0642H119.234L117.364 59.6736H117.595L115.737 65.0642H115.13ZM116.007 63.6788V63.131H118.96V63.6788H116.007ZM120.559 65.0642V59.3481H122.766C122.821 59.3481 122.883 59.3507 122.952 59.356C123.024 59.3587 123.095 59.3666 123.167 59.3798C123.466 59.4248 123.718 59.5294 123.925 59.6934C124.134 59.8549 124.291 60.0586 124.397 60.3047C124.506 60.5509 124.56 60.8234 124.56 61.1225C124.56 61.5538 124.446 61.9283 124.218 62.2458C123.991 62.5634 123.665 62.7632 123.242 62.8452L123.04 62.8929H121.142V65.0642H120.559ZM124.02 65.0642L122.893 62.7381L123.452 62.5237L124.691 65.0642H124.02ZM121.142 62.3371H122.75C122.797 62.3371 122.853 62.3345 122.916 62.3292C122.98 62.3239 123.042 62.3146 123.103 62.3014C123.299 62.2591 123.459 62.1784 123.583 62.0593C123.71 61.9402 123.804 61.7986 123.865 61.6345C123.929 61.4705 123.96 61.2998 123.96 61.1225C123.96 60.9452 123.929 60.7745 123.865 60.6104C123.804 60.4437 123.71 60.3008 123.583 60.1817C123.459 60.0626 123.299 59.9819 123.103 59.9395C123.042 59.9263 122.98 59.9184 122.916 59.9157C122.853 59.9104 122.797 59.9078 122.75 59.9078H121.142V62.3371Z" fill="black"/>
<path d="M35.984 83.7077C35.6876 83.7077 35.4137 83.6468 35.1623 83.5251C34.9109 83.4034 34.6966 83.2353 34.5193 83.021C34.342 82.8066 34.2149 82.5605 34.1382 82.2826L34.6979 82.1318C34.7482 82.3382 34.8395 82.5168 34.9718 82.6677C35.1041 82.8159 35.2589 82.931 35.4362 83.013C35.6162 83.0951 35.8041 83.1361 35.9999 83.1361C36.2539 83.1361 36.4815 83.0752 36.6826 82.9535C36.8864 82.8291 37.0478 82.665 37.1669 82.4613C37.286 82.2575 37.3456 82.0339 37.3456 81.7904C37.3456 81.539 37.2834 81.3127 37.159 81.1116C37.0346 80.9079 36.8705 80.7464 36.6668 80.6273C36.463 80.5083 36.2407 80.4487 35.9999 80.4487C35.73 80.4487 35.4971 80.5083 35.3013 80.6273C35.1054 80.7438 34.9493 80.8907 34.8329 81.068L34.3009 80.8457L34.4756 77.8725H37.5281V78.4322H34.7336L35.0234 78.1583L34.8686 80.6948L34.7217 80.5003C34.8858 80.3124 35.0843 80.1656 35.3171 80.0597C35.55 79.9539 35.7948 79.9009 36.0515 79.9009C36.4035 79.9009 36.721 79.9856 37.0042 80.155C37.2873 80.3217 37.5123 80.548 37.679 80.8338C37.8457 81.1196 37.9291 81.4384 37.9291 81.7904C37.9291 82.1397 37.8404 82.4599 37.6631 82.751C37.4858 83.0395 37.2503 83.271 36.9565 83.4457C36.6628 83.6204 36.3386 83.7077 35.984 83.7077ZM40.7446 83.7077C40.3927 83.7077 40.0751 83.6256 39.792 83.4616C39.5114 83.2975 39.2892 83.0752 39.1251 82.7947C38.961 82.5115 38.879 82.194 38.879 81.842V79.6191C38.879 79.2671 38.961 78.9509 39.1251 78.6704C39.2892 78.3872 39.5114 78.1636 39.792 77.9995C40.0751 77.8355 40.3927 77.7534 40.7446 77.7534C41.0966 77.7534 41.4128 77.8355 41.6934 77.9995C41.9765 78.1636 42.2001 78.3872 42.3642 78.6704C42.5283 78.9509 42.6103 79.2671 42.6103 79.6191V81.842C42.6103 82.194 42.5283 82.5115 42.3642 82.7947C42.2001 83.0752 41.9765 83.2975 41.6934 83.4616C41.4128 83.6256 41.0966 83.7077 40.7446 83.7077ZM40.7446 83.144C40.9802 83.144 41.1945 83.0871 41.3877 82.9733C41.5809 82.8569 41.7344 82.7021 41.8482 82.5089C41.962 82.3157 42.0189 82.1027 42.0189 81.8698V79.5913C42.0189 79.3558 41.962 79.1414 41.8482 78.9482C41.7344 78.7551 41.5809 78.6016 41.3877 78.4878C41.1945 78.3713 40.9802 78.3131 40.7446 78.3131C40.5091 78.3131 40.2948 78.3713 40.1016 78.4878C39.9084 78.6016 39.7549 78.7551 39.6411 78.9482C39.5273 79.1414 39.4704 79.3558 39.4704 79.5913V81.8698C39.4704 82.1027 39.5273 82.3157 39.6411 82.5089C39.7549 82.7021 39.9084 82.8569 40.1016 82.9733C40.2948 83.0871 40.5091 83.144 40.7446 83.144ZM45.5902 83.7077C45.2383 83.7077 44.9207 83.6256 44.6375 83.4616C44.357 83.2975 44.1347 83.0752 43.9707 82.7947C43.8066 82.5115 43.7246 82.194 43.7246 81.842V79.6191C43.7246 79.2671 43.8066 78.9509 43.9707 78.6704C44.1347 78.3872 44.357 78.1636 44.6375 77.9995C44.9207 77.8355 45.2383 77.7534 45.5902 77.7534C45.9422 77.7534 46.2584 77.8355 46.5389 77.9995C46.8221 78.1636 47.0457 78.3872 47.2098 78.6704C47.3739 78.9509 47.4559 79.2671 47.4559 79.6191V81.842C47.4559 82.194 47.3739 82.5115 47.2098 82.7947C47.0457 83.0752 46.8221 83.2975 46.5389 83.4616C46.2584 83.6256 45.9422 83.7077 45.5902 83.7077ZM45.5902 83.144C45.8258 83.144 46.0401 83.0871 46.2333 82.9733C46.4265 82.8569 46.58 82.7021 46.6938 82.5089C46.8075 82.3157 46.8644 82.1027 46.8644 81.8698V79.5913C46.8644 79.3558 46.8075 79.1414 46.6938 78.9482C46.58 78.7551 46.4265 78.6016 46.2333 78.4878C46.0401 78.3713 45.8258 78.3131 45.5902 78.3131C45.3547 78.3131 45.1404 78.3713 44.9472 78.4878C44.754 78.6016 44.6005 78.7551 44.4867 78.9482C44.3729 79.1414 44.316 79.3558 44.316 79.5913V81.8698C44.316 82.1027 44.3729 82.3157 44.4867 82.5089C44.6005 82.7021 44.754 82.8569 44.9472 82.9733C45.1404 83.0871 45.3547 83.144 45.5902 83.144ZM50.0801 81.3379V80.8377H52.4618V81.3379H50.0801ZM36.2301 94.293C35.8729 94.293 35.5474 94.207 35.2536 94.035C34.9625 93.8604 34.7296 93.6249 34.555 93.3285C34.383 93.0294 34.297 92.6933 34.297 92.3202V90.3394C34.297 89.9557 34.383 89.6143 34.555 89.3153C34.727 89.0136 34.9612 88.7768 35.2576 88.6047C35.5566 88.4301 35.8954 88.3428 36.2738 88.3428C36.5993 88.3428 36.901 88.4142 37.1788 88.5571C37.4593 88.7 37.6883 88.8998 37.8656 89.1565L37.417 89.5257C37.2953 89.3351 37.1338 89.183 36.9327 89.0692C36.7316 88.9554 36.512 88.8985 36.2738 88.8985C36.0065 88.8985 35.7683 88.9633 35.5593 89.093C35.3502 89.2227 35.1861 89.3933 35.0671 89.6051C34.948 89.8141 34.8884 90.0417 34.8884 90.2878V91.5342L34.7416 91.3675C34.9083 91.1055 35.1266 90.8938 35.3965 90.7324C35.6691 90.571 35.9655 90.4903 36.2857 90.4903C36.6403 90.4903 36.9592 90.5749 37.2423 90.7443C37.5255 90.911 37.7504 91.1373 37.9172 91.4231C38.0839 91.7089 38.1672 92.0291 38.1672 92.3837C38.1672 92.7357 38.0786 93.0559 37.9013 93.3443C37.7266 93.6328 37.4924 93.863 37.1987 94.035C36.9076 94.207 36.5847 94.293 36.2301 94.293ZM36.2301 93.7254C36.4789 93.7254 36.7051 93.6659 36.9089 93.5468C37.1153 93.4277 37.2781 93.2663 37.3972 93.0625C37.5189 92.8587 37.5798 92.6325 37.5798 92.3837C37.5798 92.135 37.5189 91.9087 37.3972 91.7049C37.2781 91.4985 37.1166 91.3358 36.9129 91.2167C36.7091 91.0949 36.4828 91.0341 36.2341 91.0341C35.9853 91.0341 35.7591 91.0949 35.5553 91.2167C35.3515 91.3358 35.1888 91.4985 35.0671 91.7049C34.948 91.9087 34.8884 92.135 34.8884 92.3837C34.8884 92.6298 34.948 92.8548 35.0671 93.0585C35.1861 93.2623 35.3476 93.4251 35.5513 93.5468C35.7551 93.6659 35.9814 93.7254 36.2301 93.7254ZM39.1407 95.0036L39.1764 94.7138C39.2823 94.7218 39.359 94.7006 39.4067 94.6503C39.4543 94.6 39.4834 94.5325 39.494 94.4479C39.5046 94.3632 39.5072 94.2719 39.5019 94.174H39.1407V93.3364H39.8195V94.3328C39.8195 94.5762 39.7573 94.7588 39.6329 94.8805C39.5112 95.0023 39.3471 95.0433 39.1407 95.0036ZM43.1946 94.293C42.8426 94.293 42.525 94.211 42.2419 94.0469C41.9614 93.8829 41.7391 93.6606 41.575 93.3801C41.4109 93.0969 41.3289 92.7793 41.3289 92.4274V90.2045C41.3289 89.8525 41.4109 89.5363 41.575 89.2557C41.7391 88.9726 41.9614 88.749 42.2419 88.5849C42.525 88.4208 42.8426 88.3388 43.1946 88.3388C43.5465 88.3388 43.8628 88.4208 44.1433 88.5849C44.4264 88.749 44.65 88.9726 44.8141 89.2557C44.9782 89.5363 45.0602 89.8525 45.0602 90.2045V92.4274C45.0602 92.7793 44.9782 93.0969 44.8141 93.3801C44.65 93.6606 44.4264 93.8829 44.1433 94.0469C43.8628 94.211 43.5465 94.293 43.1946 94.293ZM43.1946 93.7294C43.4301 93.7294 43.6444 93.6725 43.8376 93.5587C44.0308 93.4423 44.1843 93.2874 44.2981 93.0943C44.4119 92.9011 44.4688 92.688 44.4688 92.4552V90.1767C44.4688 89.9411 44.4119 89.7268 44.2981 89.5336C44.1843 89.3404 44.0308 89.1869 43.8376 89.0731C43.6444 88.9567 43.4301 88.8985 43.1946 88.8985C42.959 88.8985 42.7447 88.9567 42.5515 89.0731C42.3583 89.1869 42.2048 89.3404 42.091 89.5336C41.9772 89.7268 41.9203 89.9411 41.9203 90.1767V92.4552C41.9203 92.688 41.9772 92.9011 42.091 93.0943C42.2048 93.2874 42.3583 93.4423 42.5515 93.5587C42.7447 93.6725 42.959 93.7294 43.1946 93.7294ZM48.0401 94.293C47.6882 94.293 47.3706 94.211 47.0875 94.0469C46.807 93.8829 46.5847 93.6606 46.4206 93.3801C46.2565 93.0969 46.1745 92.7793 46.1745 92.4274V90.2045C46.1745 89.8525 46.2565 89.5363 46.4206 89.2557C46.5847 88.9726 46.807 88.749 47.0875 88.5849C47.3706 88.4208 47.6882 88.3388 48.0401 88.3388C48.3921 88.3388 48.7083 88.4208 48.9889 88.5849C49.272 88.749 49.4956 88.9726 49.6597 89.2557C49.8238 89.5363 49.9058 89.8525 49.9058 90.2045V92.4274C49.9058 92.7793 49.8238 93.0969 49.6597 93.3801C49.4956 93.6606 49.272 93.8829 48.9889 94.0469C48.7083 94.211 48.3921 94.293 48.0401 94.293ZM48.0401 93.7294C48.2757 93.7294 48.49 93.6725 48.6832 93.5587C48.8764 93.4423 49.0299 93.2874 49.1437 93.0943C49.2575 92.9011 49.3144 92.688 49.3144 92.4552V90.1767C49.3144 89.9411 49.2575 89.7268 49.1437 89.5336C49.0299 89.3404 48.8764 89.1869 48.6832 89.0731C48.49 88.9567 48.2757 88.8985 48.0401 88.8985C47.8046 88.8985 47.5903 88.9567 47.3971 89.0731C47.2039 89.1869 47.0504 89.3404 46.9366 89.5336C46.8228 89.7268 46.7659 89.9411 46.7659 90.1767V92.4552C46.7659 92.688 46.8228 92.9011 46.9366 93.0943C47.0504 93.2874 47.2039 93.4423 47.3971 93.5587C47.5903 93.6725 47.8046 93.7294 48.0401 93.7294ZM52.8857 94.293C52.5338 94.293 52.2162 94.211 51.933 94.0469C51.6525 93.8829 51.4302 93.6606 51.2662 93.3801C51.1021 93.0969 51.0201 92.7793 51.0201 92.4274V90.2045C51.0201 89.8525 51.1021 89.5363 51.2662 89.2557C51.4302 88.9726 51.6525 88.749 51.933 88.5849C52.2162 88.4208 52.5338 88.3388 52.8857 88.3388C53.2377 88.3388 53.5539 88.4208 53.8344 88.5849C54.1176 88.749 54.3412 88.9726 54.5053 89.2557C54.6694 89.5363 54.7514 89.8525 54.7514 90.2045V92.4274C54.7514 92.7793 54.6694 93.0969 54.5053 93.3801C54.3412 93.6606 54.1176 93.8829 53.8344 94.0469C53.5539 94.211 53.2377 94.293 52.8857 94.293ZM52.8857 93.7294C53.1213 93.7294 53.3356 93.6725 53.5288 93.5587C53.722 93.4423 53.8755 93.2874 53.9893 93.0943C54.103 92.9011 54.1599 92.688 54.1599 92.4552V90.1767C54.1599 89.9411 54.103 89.7268 53.9893 89.5336C53.8755 89.3404 53.722 89.1869 53.5288 89.0731C53.3356 88.9567 53.1213 88.8985 52.8857 88.8985C52.6502 88.8985 52.4359 88.9567 52.2427 89.0731C52.0495 89.1869 51.896 89.3404 51.7822 89.5336C51.6684 89.7268 51.6115 89.9411 51.6115 90.1767V92.4552C51.6115 92.688 51.6684 92.9011 51.7822 93.0943C51.896 93.2874 52.0495 93.4423 52.2427 93.5587C52.4359 93.6725 52.6502 93.7294 52.8857 93.7294Z" fill="black"/>
<path d="M156.69 83.5886V77.8725H158.957C159.343 77.8725 159.659 77.9506 159.905 78.1067C160.154 78.2602 160.338 78.4573 160.457 78.6982C160.579 78.939 160.64 79.1877 160.64 79.4444C160.64 79.7593 160.564 80.0266 160.413 80.2463C160.265 80.4659 160.063 80.6141 159.806 80.6909V80.4924C160.166 80.5744 160.438 80.7451 160.624 81.0044C160.812 81.2638 160.906 81.5589 160.906 81.8896C160.906 82.2284 160.841 82.5248 160.711 82.7788C160.581 83.0329 160.388 83.2313 160.132 83.3742C159.877 83.5172 159.563 83.5886 159.187 83.5886H156.69ZM157.659 82.6875H159.068C159.234 82.6875 159.384 82.6544 159.516 82.5883C159.649 82.5195 159.752 82.4242 159.826 82.3025C159.903 82.1781 159.941 82.0312 159.941 81.8619C159.941 81.7084 159.908 81.5708 159.842 81.449C159.776 81.3273 159.679 81.2307 159.552 81.1593C159.425 81.0852 159.273 81.0481 159.095 81.0481H157.659V82.6875ZM157.659 80.155H158.945C159.082 80.155 159.205 80.1285 159.314 80.0756C159.422 80.0227 159.508 79.9446 159.572 79.8414C159.635 79.7382 159.667 79.6112 159.667 79.4603C159.667 79.2618 159.604 79.0964 159.477 78.9641C159.35 78.8318 159.172 78.7656 158.945 78.7656H157.659V80.155ZM162.897 83.7077C162.587 83.7077 162.325 83.6495 162.111 83.533C161.897 83.4139 161.734 83.2565 161.623 83.0607C161.514 82.8648 161.46 82.6491 161.46 82.4136C161.46 82.2072 161.494 82.022 161.563 81.8579C161.632 81.6912 161.738 81.5483 161.881 81.4292C162.024 81.3075 162.209 81.2082 162.436 81.1315C162.608 81.0759 162.81 81.0256 163.04 80.9806C163.273 80.9356 163.524 80.8946 163.794 80.8576C164.067 80.8179 164.351 80.7755 164.647 80.7306L164.306 80.9251C164.309 80.6287 164.243 80.4103 164.108 80.2701C163.973 80.1298 163.745 80.0597 163.425 80.0597C163.232 80.0597 163.045 80.1047 162.865 80.1947C162.685 80.2846 162.56 80.4395 162.488 80.6591L161.615 80.3852C161.721 80.0227 161.922 79.7316 162.218 79.5119C162.517 79.2923 162.919 79.1824 163.425 79.1824C163.806 79.1824 164.141 79.2446 164.429 79.369C164.72 79.4934 164.936 79.6972 165.076 79.9803C165.153 80.1312 165.199 80.286 165.215 80.4447C165.231 80.6009 165.239 80.7716 165.239 80.9568V83.5886H164.401V82.6597L164.54 82.8106C164.347 83.1202 164.121 83.3478 163.862 83.4933C163.605 83.6362 163.283 83.7077 162.897 83.7077ZM163.087 82.9455C163.304 82.9455 163.49 82.9072 163.643 82.8304C163.797 82.7537 163.918 82.6597 164.008 82.5486C164.101 82.4374 164.163 82.3329 164.195 82.235C164.245 82.1133 164.273 81.9743 164.278 81.8182C164.286 81.6594 164.29 81.5311 164.29 81.4332L164.584 81.5205C164.296 81.5655 164.048 81.6052 163.842 81.6396C163.635 81.674 163.458 81.7071 163.31 81.7388C163.162 81.7679 163.031 81.801 162.917 81.838C162.806 81.8777 162.712 81.9241 162.635 81.977C162.558 82.0299 162.499 82.0908 162.456 82.1596C162.417 82.2284 162.397 82.3091 162.397 82.4017C162.397 82.5076 162.423 82.6015 162.476 82.6836C162.529 82.7629 162.606 82.8265 162.706 82.8741C162.81 82.9217 162.937 82.9455 163.087 82.9455ZM169.238 83.5886V81.5245C169.238 81.3895 169.228 81.24 169.21 81.0759C169.191 80.9118 169.148 80.7544 169.079 80.6035C169.013 80.45 168.912 80.3243 168.777 80.2264C168.645 80.1285 168.465 80.0796 168.237 80.0796C168.116 80.0796 167.995 80.0994 167.876 80.1391C167.757 80.1788 167.648 80.2476 167.551 80.3455C167.455 80.4408 167.379 80.5731 167.32 80.7425C167.262 80.9092 167.233 81.1235 167.233 81.3855L166.665 81.1434C166.665 80.7782 166.735 80.4474 166.876 80.151C167.019 79.8546 167.228 79.6191 167.503 79.4444C167.778 79.2671 168.117 79.1785 168.519 79.1785C168.837 79.1785 169.099 79.2314 169.305 79.3373C169.511 79.4431 169.676 79.5781 169.797 79.7421C169.919 79.9062 170.009 80.0809 170.067 80.2661C170.125 80.4514 170.162 80.6273 170.178 80.7941C170.197 80.9581 170.206 81.0918 170.206 81.195V83.5886H169.238ZM166.264 83.5886V79.3015H167.118V80.6313H167.233V83.5886H166.264ZM171.234 83.5886L171.242 77.8725H172.211V81.3657L173.779 79.3015H174.974L173.31 81.4451L175.116 83.5886H173.85L172.211 81.5245V83.5886H171.234ZM178.477 83.5886V78.7696H176.627V77.8725H181.283V78.7696H179.433V83.5886H178.477ZM181.523 83.5886V79.3015H182.368V80.3455L182.265 80.2105C182.318 80.0676 182.388 79.938 182.475 79.8215C182.565 79.7024 182.672 79.6045 182.797 79.5278C182.903 79.4563 183.019 79.4008 183.146 79.3611C183.276 79.3187 183.408 79.2936 183.543 79.2857C183.678 79.2751 183.809 79.2804 183.936 79.3015V80.1947C183.809 80.1576 183.662 80.1457 183.495 80.1589C183.331 80.1722 183.183 80.2185 183.051 80.2979C182.918 80.3693 182.81 80.4606 182.725 80.5718C182.643 80.6829 182.582 80.8099 182.543 80.9528C182.503 81.0931 182.483 81.2453 182.483 81.4093V83.5886H181.523ZM185.792 83.7077C185.482 83.7077 185.22 83.6495 185.006 83.533C184.791 83.4139 184.629 83.2565 184.518 83.0607C184.409 82.8648 184.355 82.6491 184.355 82.4136C184.355 82.2072 184.389 82.022 184.458 81.8579C184.527 81.6912 184.633 81.5483 184.776 81.4292C184.918 81.3075 185.104 81.2082 185.331 81.1315C185.503 81.0759 185.704 81.0256 185.935 80.9806C186.168 80.9356 186.419 80.8946 186.689 80.8576C186.961 80.8179 187.246 80.7755 187.542 80.7306L187.201 80.9251C187.204 80.6287 187.137 80.4103 187.002 80.2701C186.867 80.1298 186.64 80.0597 186.32 80.0597C186.127 80.0597 185.94 80.1047 185.76 80.1947C185.58 80.2846 185.454 80.4395 185.383 80.6591L184.51 80.3852C184.615 80.0227 184.817 79.7316 185.113 79.5119C185.412 79.2923 185.814 79.1824 186.32 79.1824C186.701 79.1824 187.036 79.2446 187.324 79.369C187.615 79.4934 187.831 79.6972 187.971 79.9803C188.048 80.1312 188.094 80.286 188.11 80.4447C188.126 80.6009 188.134 80.7716 188.134 80.9568V83.5886H187.296V82.6597L187.435 82.8106C187.242 83.1202 187.016 83.3478 186.756 83.4933C186.5 83.6362 186.178 83.7077 185.792 83.7077ZM185.982 82.9455C186.199 82.9455 186.385 82.9072 186.538 82.8304C186.692 82.7537 186.813 82.6597 186.903 82.5486C186.996 82.4374 187.058 82.3329 187.09 82.235C187.14 82.1133 187.168 81.9743 187.173 81.8182C187.181 81.6594 187.185 81.5311 187.185 81.4332L187.479 81.5205C187.19 81.5655 186.943 81.6052 186.737 81.6396C186.53 81.674 186.353 81.7071 186.205 81.7388C186.056 81.7679 185.925 81.801 185.812 81.838C185.7 81.8777 185.607 81.9241 185.53 81.977C185.453 82.0299 185.393 82.0908 185.351 82.1596C185.311 82.2284 185.292 82.3091 185.292 82.4017C185.292 82.5076 185.318 82.6015 185.371 82.6836C185.424 82.7629 185.501 82.8265 185.601 82.8741C185.704 82.9217 185.831 82.9455 185.982 82.9455ZM192.132 83.5886V81.5245C192.132 81.3895 192.123 81.24 192.105 81.0759C192.086 80.9118 192.042 80.7544 191.974 80.6035C191.907 80.45 191.807 80.3243 191.672 80.2264C191.54 80.1285 191.36 80.0796 191.132 80.0796C191.01 80.0796 190.89 80.0994 190.771 80.1391C190.652 80.1788 190.543 80.2476 190.445 80.3455C190.35 80.4408 190.273 80.5731 190.215 80.7425C190.157 80.9092 190.128 81.1235 190.128 81.3855L189.56 81.1434C189.56 80.7782 189.63 80.4474 189.771 80.151C189.913 79.8546 190.123 79.6191 190.398 79.4444C190.673 79.2671 191.012 79.1785 191.414 79.1785C191.731 79.1785 191.993 79.2314 192.2 79.3373C192.406 79.4431 192.57 79.5781 192.692 79.7421C192.814 79.9062 192.904 80.0809 192.962 80.2661C193.02 80.4514 193.057 80.6273 193.073 80.7941C193.092 80.9581 193.101 81.0918 193.101 81.195V83.5886H192.132ZM189.159 83.5886V79.3015H190.013V80.6313H190.128V83.5886H189.159ZM195.792 83.7077C195.263 83.7077 194.833 83.5886 194.502 83.3504C194.171 83.1123 193.97 82.7775 193.899 82.3461L194.875 82.1953C194.926 82.407 195.037 82.5737 195.209 82.6955C195.381 82.8172 195.598 82.8781 195.86 82.8781C196.09 82.8781 196.267 82.8331 196.392 82.7431C196.519 82.6505 196.582 82.5248 196.582 82.366C196.582 82.2681 196.558 82.19 196.511 82.1318C196.466 82.0709 196.365 82.0127 196.209 81.9571C196.053 81.9016 195.813 81.8314 195.491 81.7467C195.131 81.6515 194.845 81.5496 194.633 81.4411C194.421 81.3299 194.269 81.199 194.177 81.0481C194.084 80.8973 194.038 80.7147 194.038 80.5003C194.038 80.233 194.108 80.0002 194.248 79.8017C194.388 79.6032 194.584 79.451 194.836 79.3452C195.087 79.2367 195.383 79.1824 195.725 79.1824C196.058 79.1824 196.353 79.234 196.61 79.3373C196.869 79.4405 197.078 79.5873 197.237 79.7779C197.396 79.9684 197.494 80.192 197.531 80.4487L196.554 80.6234C196.531 80.4408 196.447 80.2966 196.304 80.1907C196.164 80.0848 195.976 80.0253 195.741 80.0121C195.516 79.9988 195.334 80.0332 195.197 80.1153C195.059 80.1947 194.99 80.3071 194.99 80.4527C194.99 80.5347 195.018 80.6049 195.074 80.6631C195.129 80.7213 195.241 80.7795 195.407 80.8377C195.577 80.896 195.828 80.9674 196.161 81.0521C196.503 81.1394 196.775 81.24 196.979 81.3538C197.186 81.4649 197.334 81.5985 197.424 81.7547C197.516 81.9108 197.563 82.1 197.563 82.3223C197.563 82.7537 197.405 83.0924 197.09 83.3385C196.778 83.5846 196.345 83.7077 195.792 83.7077ZM198.805 83.5886V79.234C198.805 79.1255 198.809 79.0065 198.817 78.8768C198.825 78.7445 198.847 78.6135 198.885 78.4838C198.922 78.3541 198.989 78.2364 199.087 78.1305C199.209 77.9956 199.34 77.9029 199.48 77.8527C199.623 77.7997 199.763 77.7706 199.901 77.7653C200.038 77.7574 200.159 77.7534 200.262 77.7534H200.798V78.5314H200.302C200.119 78.5314 199.983 78.5778 199.893 78.6704C199.805 78.7604 199.762 78.8794 199.762 79.0276V83.5886H198.805ZM198.114 80.0518V79.3015H200.798V80.0518H198.114ZM203.227 83.7077C202.793 83.7077 202.411 83.6137 202.083 83.4258C201.755 83.238 201.498 82.9773 201.313 82.6439C201.131 82.3104 201.039 81.9267 201.039 81.4927C201.039 81.0243 201.129 80.6181 201.309 80.2741C201.489 79.9274 201.739 79.6588 202.059 79.4682C202.38 79.2777 202.75 79.1824 203.171 79.1824C203.616 79.1824 203.993 79.287 204.302 79.496C204.615 79.7025 204.846 79.9949 204.997 80.3733C205.148 80.7517 205.205 81.1976 205.168 81.711H204.219V81.3617C204.216 80.896 204.134 80.5559 203.973 80.3415C203.811 80.1272 203.557 80.02 203.211 80.02C202.819 80.02 202.528 80.1417 202.337 80.3852C202.147 80.626 202.052 80.9793 202.052 81.4451C202.052 81.8791 202.147 82.2151 202.337 82.4533C202.528 82.6915 202.806 82.8106 203.171 82.8106C203.406 82.8106 203.609 82.759 203.778 82.6558C203.95 82.5499 204.083 82.3977 204.175 82.1993L205.12 82.4851C204.956 82.8714 204.702 83.1718 204.358 83.3862C204.016 83.6005 203.639 83.7077 203.227 83.7077ZM201.75 81.711V80.9886H204.699V81.711H201.75ZM206.053 83.5886V79.3015H206.898V80.3455L206.795 80.2105C206.848 80.0676 206.918 79.938 207.005 79.8215C207.095 79.7024 207.203 79.6045 207.327 79.5278C207.433 79.4563 207.549 79.4008 207.676 79.3611C207.806 79.3187 207.938 79.2936 208.073 79.2857C208.208 79.2751 208.339 79.2804 208.466 79.3015V80.1947C208.339 80.1576 208.192 80.1457 208.026 80.1589C207.862 80.1722 207.713 80.2185 207.581 80.2979C207.449 80.3693 207.34 80.4606 207.256 80.5718C207.174 80.6829 207.113 80.8099 207.073 80.9528C207.033 81.0931 207.013 81.2453 207.013 81.4093V83.5886H206.053Z" fill="black"/>
<path d="M150.364 20.0763L152.333 15.2652H149.836V14.3602H153.357V15.2652L151.396 20.0763H150.364ZM156.284 20.1954C155.911 20.1954 155.575 20.108 155.275 19.9334C154.979 19.7561 154.744 19.5113 154.569 19.199C154.394 18.8867 154.307 18.5282 154.307 18.1233V16.3846C154.307 15.9506 154.393 15.5735 154.565 15.2533C154.74 14.9331 154.983 14.6857 155.295 14.511C155.61 14.3364 155.975 14.249 156.391 14.249C156.679 14.249 156.953 14.298 157.213 14.3959C157.472 14.4912 157.702 14.6447 157.903 14.8564L157.213 15.5272C157.112 15.4081 156.989 15.3142 156.843 15.2454C156.701 15.1766 156.55 15.1422 156.391 15.1422C156.169 15.1422 155.974 15.1951 155.807 15.3009C155.641 15.4042 155.511 15.5404 155.418 15.7098C155.328 15.8792 155.283 16.0604 155.283 16.2536V17.2023L155.109 17.0118C155.273 16.8213 155.47 16.6731 155.7 16.5672C155.93 16.4587 156.171 16.4045 156.423 16.4045C156.783 16.4045 157.1 16.4865 157.375 16.6506C157.651 16.812 157.868 17.0343 158.026 17.3175C158.185 17.598 158.265 17.9182 158.265 18.2781C158.265 18.6353 158.173 18.9595 157.991 19.2506C157.811 19.5391 157.571 19.7693 157.272 19.9413C156.973 20.1107 156.644 20.1954 156.284 20.1954ZM156.284 19.2784C156.469 19.2784 156.638 19.2347 156.792 19.1474C156.945 19.0574 157.067 18.937 157.157 18.7862C157.25 18.6327 157.296 18.4633 157.296 18.2781C157.296 18.0928 157.251 17.9235 157.161 17.77C157.071 17.6165 156.949 17.4948 156.796 17.4048C156.645 17.3122 156.477 17.2659 156.292 17.2659C156.106 17.2659 155.937 17.3122 155.784 17.4048C155.63 17.4948 155.508 17.6165 155.418 17.77C155.328 17.9235 155.283 18.0928 155.283 18.2781C155.283 18.458 155.327 18.6247 155.414 18.7782C155.504 18.9291 155.625 19.0508 155.776 19.1434C155.929 19.2334 156.099 19.2784 156.284 19.2784ZM162.348 20.0763V14.9199H160.351V14.3602H164.928V14.9199H162.931V20.0763H162.348ZM165.169 20.0763V15.7892H165.693V16.8213L165.59 16.6863C165.637 16.5593 165.699 16.4428 165.776 16.337C165.853 16.2285 165.936 16.1398 166.026 16.071C166.137 15.9731 166.267 15.899 166.415 15.8487C166.563 15.7958 166.713 15.7654 166.864 15.7574C167.015 15.7469 167.152 15.7574 167.277 15.7892V16.337C167.121 16.2973 166.95 16.288 166.765 16.3092C166.579 16.3304 166.409 16.4045 166.253 16.5315C166.11 16.6426 166.002 16.7763 165.931 16.9324C165.86 17.0859 165.812 17.25 165.788 17.4246C165.764 17.5966 165.752 17.7673 165.752 17.9367V20.0763H165.169ZM169.094 20.1954C168.771 20.1954 168.5 20.1371 168.28 20.0207C168.063 19.9043 167.901 19.7494 167.792 19.5563C167.684 19.3631 167.629 19.1527 167.629 18.9251C167.629 18.6922 167.676 18.4938 167.768 18.3297C167.863 18.163 167.992 18.0267 168.153 17.9208C168.317 17.815 168.507 17.7343 168.721 17.6787C168.938 17.6258 169.177 17.5794 169.439 17.5397C169.704 17.4974 169.962 17.4617 170.213 17.4326C170.467 17.4008 170.69 17.3704 170.88 17.3413L170.674 17.4683C170.682 17.0449 170.6 16.7313 170.428 16.5275C170.256 16.3238 169.957 16.2219 169.531 16.2219C169.237 16.2219 168.988 16.288 168.784 16.4203C168.583 16.5527 168.442 16.7617 168.36 17.0475L167.792 16.8808C167.89 16.4971 168.087 16.1994 168.383 15.9877C168.68 15.776 169.065 15.6701 169.539 15.6701C169.93 15.6701 170.262 15.7442 170.535 15.8924C170.81 16.038 171.005 16.2497 171.118 16.5275C171.171 16.6519 171.206 16.7908 171.222 16.9443C171.238 17.0978 171.246 17.2539 171.246 17.4127V20.0763H170.725V19.0005L170.876 19.064C170.731 19.4319 170.505 19.7124 170.198 19.9056C169.891 20.0988 169.523 20.1954 169.094 20.1954ZM169.162 19.6912C169.434 19.6912 169.672 19.6423 169.876 19.5444C170.08 19.4464 170.244 19.3128 170.368 19.1434C170.493 18.9714 170.573 18.7782 170.61 18.5639C170.642 18.4263 170.659 18.2754 170.662 18.1114C170.665 17.9446 170.666 17.8203 170.666 17.7382L170.888 17.8533C170.69 17.8798 170.474 17.9063 170.241 17.9327C170.011 17.9592 169.783 17.9896 169.558 18.024C169.336 18.0584 169.135 18.0995 168.955 18.1471C168.833 18.1815 168.716 18.2304 168.602 18.294C168.488 18.3548 168.394 18.4369 168.32 18.5401C168.249 18.6433 168.213 18.7716 168.213 18.9251C168.213 19.0495 168.243 19.1699 168.304 19.2863C168.368 19.4028 168.468 19.4994 168.606 19.5761C168.746 19.6529 168.931 19.6912 169.162 19.6912ZM175.375 20.0763V17.8891C175.375 17.6509 175.353 17.4326 175.308 17.2341C175.263 17.033 175.19 16.8583 175.089 16.7101C174.991 16.5593 174.863 16.4428 174.704 16.3608C174.548 16.2788 174.358 16.2377 174.133 16.2377C173.926 16.2377 173.744 16.2735 173.585 16.3449C173.429 16.4164 173.296 16.5196 173.188 16.6545C173.082 16.7869 173.001 16.9483 172.946 17.1388C172.89 17.3294 172.862 17.5464 172.862 17.7898L172.45 17.6985C172.45 17.2592 172.526 16.8901 172.68 16.591C172.833 16.292 173.045 16.0657 173.315 15.9122C173.585 15.7588 173.894 15.682 174.244 15.682C174.5 15.682 174.724 15.7217 174.915 15.8011C175.108 15.8805 175.271 15.9877 175.403 16.1226C175.538 16.2576 175.646 16.4124 175.728 16.5871C175.81 16.7591 175.87 16.943 175.907 17.1388C175.944 17.332 175.963 17.5252 175.963 17.7184V20.0763H175.375ZM172.275 20.0763V15.7892H172.803V16.8451H172.862V20.0763H172.275ZM178.592 20.1914C178.09 20.1914 177.675 20.0829 177.35 19.8659C177.027 19.6489 176.829 19.3472 176.755 18.9608L177.35 18.8616C177.413 19.1051 177.558 19.2996 177.783 19.4451C178.01 19.588 178.291 19.6595 178.624 19.6595C178.95 19.6595 179.206 19.592 179.394 19.457C179.582 19.3194 179.676 19.1328 179.676 18.8973C179.676 18.765 179.646 18.6578 179.585 18.5758C179.527 18.4911 179.406 18.413 179.224 18.3416C179.041 18.2701 178.768 18.1855 178.406 18.0875C178.017 17.9817 177.712 17.8758 177.493 17.77C177.273 17.6641 177.117 17.5424 177.024 17.4048C176.932 17.2645 176.886 17.0938 176.886 16.8927C176.886 16.6493 176.954 16.4362 177.092 16.2536C177.23 16.0684 177.42 15.9255 177.664 15.8249C177.907 15.7217 178.19 15.6701 178.513 15.6701C178.836 15.6701 179.124 15.723 179.378 15.8289C179.635 15.9321 179.841 16.0776 179.998 16.2655C180.154 16.4534 180.246 16.6717 180.275 16.9205L179.68 17.0277C179.64 16.7763 179.515 16.5778 179.303 16.4323C179.094 16.2841 178.828 16.2073 178.505 16.202C178.201 16.1941 177.953 16.2523 177.763 16.3767C177.572 16.4984 177.477 16.6612 177.477 16.8649C177.477 16.9787 177.511 17.0766 177.58 17.1587C177.649 17.2381 177.773 17.3135 177.953 17.3849C178.136 17.4564 178.395 17.5345 178.731 17.6191C179.126 17.7197 179.435 17.8256 179.66 17.9367C179.885 18.0478 180.045 18.1788 180.141 18.3297C180.236 18.4805 180.283 18.6671 180.283 18.8894C180.283 19.2943 180.133 19.6132 179.831 19.846C179.532 20.0763 179.119 20.1914 178.592 20.1914ZM182.39 20.1954C182.067 20.1954 181.796 20.1371 181.576 20.0207C181.359 19.9043 181.196 19.7494 181.088 19.5563C180.979 19.3631 180.925 19.1527 180.925 18.9251C180.925 18.6922 180.971 18.4938 181.064 18.3297C181.159 18.163 181.288 18.0267 181.449 17.9208C181.613 17.815 181.802 17.7343 182.017 17.6787C182.234 17.6258 182.473 17.5794 182.735 17.5397C183 17.4974 183.258 17.4617 183.509 17.4326C183.763 17.4008 183.986 17.3704 184.176 17.3413L183.97 17.4683C183.978 17.0449 183.896 16.7313 183.724 16.5275C183.552 16.3238 183.253 16.2219 182.827 16.2219C182.533 16.2219 182.284 16.288 182.08 16.4203C181.879 16.5527 181.738 16.7617 181.656 17.0475L181.088 16.8808C181.186 16.4971 181.383 16.1994 181.679 15.9877C181.976 15.776 182.361 15.6701 182.834 15.6701C183.226 15.6701 183.558 15.7442 183.831 15.8924C184.106 16.038 184.301 16.2497 184.414 16.5275C184.467 16.6519 184.502 16.7908 184.518 16.9443C184.533 17.0978 184.541 17.2539 184.541 17.4127V20.0763H184.021V19.0005L184.172 19.064C184.027 19.4319 183.8 19.7124 183.493 19.9056C183.186 20.0988 182.819 20.1954 182.39 20.1954ZM182.457 19.6912C182.73 19.6912 182.968 19.6423 183.172 19.5444C183.376 19.4464 183.54 19.3128 183.664 19.1434C183.788 18.9714 183.869 18.7782 183.906 18.5639C183.938 18.4263 183.955 18.2754 183.958 18.1114C183.961 17.9446 183.962 17.8203 183.962 17.7382L184.184 17.8533C183.986 17.8798 183.77 17.9063 183.537 17.9327C183.307 17.9592 183.079 17.9896 182.854 18.024C182.632 18.0584 182.431 18.0995 182.251 18.1471C182.129 18.1815 182.011 18.2304 181.898 18.294C181.784 18.3548 181.69 18.4369 181.616 18.5401C181.544 18.6433 181.509 18.7716 181.509 18.9251C181.509 19.0495 181.539 19.1699 181.6 19.2863C181.663 19.4028 181.764 19.4994 181.902 19.5761C182.042 19.6529 182.227 19.6912 182.457 19.6912ZM187.353 20.1954C186.922 20.1954 186.557 20.0988 186.258 19.9056C185.959 19.7124 185.731 19.4464 185.575 19.1077C185.421 18.7663 185.342 18.3747 185.337 17.9327C185.342 17.4829 185.424 17.0885 185.583 16.7498C185.741 16.4084 185.97 16.1438 186.269 15.9559C186.568 15.7654 186.931 15.6701 187.357 15.6701C187.791 15.6701 188.168 15.776 188.488 15.9877C188.811 16.1994 189.032 16.4892 189.151 16.857L188.58 17.0396C188.479 16.7829 188.319 16.5844 188.099 16.4442C187.882 16.3013 187.634 16.2298 187.353 16.2298C187.038 16.2298 186.778 16.3026 186.571 16.4481C186.365 16.591 186.211 16.7908 186.111 17.0475C186.01 17.3042 185.958 17.5993 185.956 17.9327C185.961 18.4461 186.08 18.859 186.313 19.1712C186.546 19.4808 186.893 19.6357 187.353 19.6357C187.644 19.6357 187.892 19.5695 188.095 19.4372C188.302 19.3022 188.458 19.1064 188.564 18.8497L189.151 19.0243C188.993 19.4054 188.76 19.6965 188.453 19.8976C188.146 20.0961 187.779 20.1954 187.353 20.1954ZM192.305 20.0763C192.064 20.1265 191.826 20.1464 191.591 20.1358C191.358 20.1252 191.149 20.0749 190.963 19.985C190.781 19.895 190.642 19.7547 190.547 19.5642C190.47 19.4054 190.428 19.2453 190.42 19.0839C190.414 18.9198 190.412 18.7332 190.412 18.5242V14.5983H190.991V18.5004C190.991 18.6803 190.992 18.8312 190.995 18.9529C191 19.072 191.028 19.1778 191.079 19.2705C191.174 19.4478 191.325 19.5536 191.531 19.588C191.74 19.6224 191.998 19.6145 192.305 19.5642V20.0763ZM189.495 16.2894V15.7892H192.305V16.2894H189.495ZM193.229 14.9754V14.3205H193.812V14.9754H193.229ZM193.229 20.0763V15.7892H193.812V20.0763H193.229ZM196.793 20.1954C196.367 20.1954 196.003 20.0988 195.701 19.9056C195.399 19.7124 195.168 19.4451 195.006 19.1037C194.845 18.7624 194.764 18.3707 194.764 17.9288C194.764 17.4789 194.846 17.0846 195.01 16.7458C195.174 16.4071 195.407 16.1438 195.709 15.9559C196.013 15.7654 196.374 15.6701 196.793 15.6701C197.221 15.6701 197.587 15.7667 197.888 15.9599C198.193 16.1504 198.424 16.4164 198.583 16.7578C198.744 17.0965 198.825 17.4868 198.825 17.9288C198.825 18.3786 198.744 18.7743 198.583 19.1156C198.421 19.4544 198.189 19.719 197.884 19.9095C197.58 20.1001 197.216 20.1954 196.793 20.1954ZM196.793 19.6357C197.269 19.6357 197.624 19.4782 197.856 19.1633C198.089 18.8457 198.206 18.4342 198.206 17.9288C198.206 17.4101 198.088 16.9972 197.852 16.6903C197.62 16.3833 197.266 16.2298 196.793 16.2298C196.472 16.2298 196.208 16.3026 195.999 16.4481C195.792 16.591 195.637 16.7908 195.534 17.0475C195.434 17.3016 195.383 17.5953 195.383 17.9288C195.383 18.4448 195.503 18.859 195.741 19.1712C195.979 19.4808 196.33 19.6357 196.793 19.6357ZM202.797 20.0763V17.8891C202.797 17.6509 202.775 17.4326 202.73 17.2341C202.685 17.033 202.612 16.8583 202.511 16.7101C202.413 16.5593 202.285 16.4428 202.126 16.3608C201.97 16.2788 201.78 16.2377 201.555 16.2377C201.348 16.2377 201.166 16.2735 201.007 16.3449C200.851 16.4164 200.718 16.5196 200.61 16.6545C200.504 16.7869 200.423 16.9483 200.368 17.1388C200.312 17.3294 200.284 17.5464 200.284 17.7898L199.872 17.6985C199.872 17.2592 199.948 16.8901 200.102 16.591C200.255 16.292 200.467 16.0657 200.737 15.9122C201.007 15.7588 201.317 15.682 201.666 15.682C201.923 15.682 202.146 15.7217 202.337 15.8011C202.53 15.8805 202.693 15.9877 202.825 16.1226C202.96 16.2576 203.068 16.4124 203.15 16.5871C203.232 16.7591 203.292 16.943 203.329 17.1388C203.366 17.332 203.385 17.5252 203.385 17.7184V20.0763H202.797ZM199.697 20.0763V15.7892H200.225V16.8451H200.284V20.0763H199.697ZM206.014 20.1914C205.512 20.1914 205.097 20.0829 204.772 19.8659C204.449 19.6489 204.251 19.3472 204.177 18.9608L204.772 18.8616C204.836 19.1051 204.98 19.2996 205.205 19.4451C205.432 19.588 205.713 19.6595 206.046 19.6595C206.372 19.6595 206.628 19.592 206.816 19.457C207.004 19.3194 207.098 19.1328 207.098 18.8973C207.098 18.765 207.068 18.6578 207.007 18.5758C206.949 18.4911 206.828 18.413 206.646 18.3416C206.463 18.2701 206.19 18.1855 205.828 18.0875C205.439 17.9817 205.135 17.8758 204.915 17.77C204.695 17.6641 204.539 17.5424 204.446 17.4048C204.354 17.2645 204.308 17.0938 204.308 16.8927C204.308 16.6493 204.376 16.4362 204.514 16.2536C204.652 16.0684 204.842 15.9255 205.086 15.8249C205.329 15.7217 205.612 15.6701 205.935 15.6701C206.258 15.6701 206.546 15.723 206.8 15.8289C207.057 15.9321 207.264 16.0776 207.42 16.2655C207.576 16.4534 207.668 16.6717 207.698 16.9205L207.102 17.0277C207.062 16.7763 206.937 16.5778 206.725 16.4323C206.516 16.2841 206.25 16.2073 205.927 16.202C205.623 16.1941 205.375 16.2523 205.185 16.3767C204.994 16.4984 204.899 16.6612 204.899 16.8649C204.899 16.9787 204.933 17.0766 205.002 17.1587C205.071 17.2381 205.195 17.3135 205.375 17.3849C205.558 17.4564 205.817 17.5345 206.153 17.6191C206.548 17.7197 206.857 17.8256 207.082 17.9367C207.307 18.0478 207.467 18.1788 207.563 18.3297C207.658 18.4805 207.705 18.6671 207.705 18.8894C207.705 19.2943 207.555 19.6132 207.253 19.846C206.954 20.0763 206.541 20.1914 206.014 20.1914Z" fill="black"/>
<path d="M186.881 33.4274C186.523 33.4274 186.207 33.356 185.932 33.2131C185.659 33.0702 185.445 32.8704 185.289 32.6137C185.135 32.3543 185.059 32.0513 185.059 31.7046C185.059 31.35 185.145 31.0351 185.317 30.7599C185.489 30.482 185.751 30.2717 186.103 30.1287L186.095 30.359C185.801 30.2505 185.577 30.0732 185.424 29.8271C185.27 29.581 185.194 29.3084 185.194 29.0093C185.194 28.6918 185.266 28.4192 185.412 28.1916C185.557 27.9614 185.756 27.7841 186.007 27.6597C186.261 27.5353 186.552 27.4731 186.881 27.4731C187.209 27.4731 187.5 27.5353 187.754 27.6597C188.008 27.7841 188.208 27.9614 188.353 28.1916C188.499 28.4192 188.572 28.6918 188.572 29.0093C188.572 29.3084 188.498 29.5796 188.349 29.8231C188.204 30.0666 187.98 30.2452 187.678 30.359L187.659 30.1287C188.011 30.269 188.274 30.4781 188.449 30.7559C188.626 31.0338 188.715 31.35 188.715 31.7046C188.715 32.0513 188.636 32.3543 188.48 32.6137C188.324 32.8704 188.109 33.0702 187.833 33.2131C187.558 33.356 187.241 33.4274 186.881 33.4274ZM186.881 32.8677C187.241 32.8677 187.533 32.7685 187.758 32.57C187.983 32.3689 188.095 32.0804 188.095 31.7046C188.095 31.3236 187.984 31.0351 187.762 30.8393C187.54 30.6408 187.246 30.5416 186.881 30.5416C186.515 30.5416 186.223 30.6408 186.003 30.8393C185.784 31.0351 185.674 31.3236 185.674 31.7046C185.674 32.0804 185.785 32.3689 186.007 32.57C186.23 32.7685 186.521 32.8677 186.881 32.8677ZM186.881 29.9779C187.198 29.9779 187.456 29.8972 187.655 29.7358C187.853 29.5717 187.952 29.3296 187.952 29.0093C187.952 28.6891 187.853 28.4496 187.655 28.2909C187.456 28.1294 187.198 28.0487 186.881 28.0487C186.563 28.0487 186.305 28.1294 186.107 28.2909C185.911 28.4496 185.813 28.6891 185.813 29.0093C185.813 29.3296 185.911 29.5717 186.107 29.7358C186.305 29.8972 186.563 29.9779 186.881 29.9779ZM191.676 33.4274C191.319 33.4274 190.994 33.3414 190.7 33.1694C190.409 32.9947 190.176 32.7592 190.001 32.4628C189.829 32.1638 189.743 31.8277 189.743 31.4546V29.4738C189.743 29.0901 189.829 28.7487 190.001 28.4496C190.173 28.148 190.408 27.9111 190.704 27.7391C191.003 27.5644 191.342 27.4771 191.72 27.4771C192.046 27.4771 192.347 27.5486 192.625 27.6915C192.906 27.8344 193.135 28.0342 193.312 28.2909L192.863 28.66C192.742 28.4695 192.58 28.3173 192.379 28.2035C192.178 28.0897 191.958 28.0328 191.72 28.0328C191.453 28.0328 191.215 28.0977 191.006 28.2274C190.797 28.357 190.632 28.5277 190.513 28.7394C190.394 28.9485 190.335 29.1761 190.335 29.4222V30.6686L190.188 30.5019C190.355 30.2399 190.573 30.0282 190.843 29.8668C191.115 29.7053 191.412 29.6246 191.732 29.6246C192.087 29.6246 192.405 29.7093 192.689 29.8787C192.972 30.0454 193.197 30.2716 193.363 30.5575C193.53 30.8433 193.614 31.1635 193.614 31.5181C193.614 31.87 193.525 32.1902 193.348 32.4787C193.173 32.7671 192.939 32.9974 192.645 33.1694C192.354 33.3414 192.031 33.4274 191.676 33.4274ZM191.676 32.8598C191.925 32.8598 192.151 32.8002 192.355 32.6811C192.562 32.5621 192.724 32.4006 192.843 32.1969C192.965 31.9931 193.026 31.7668 193.026 31.5181C193.026 31.2693 192.965 31.0431 192.843 30.8393C192.724 30.6329 192.563 30.4701 192.359 30.351C192.155 30.2293 191.929 30.1684 191.68 30.1684C191.432 30.1684 191.205 30.2293 191.002 30.351C190.798 30.4701 190.635 30.6329 190.513 30.8393C190.394 31.0431 190.335 31.2693 190.335 31.5181C190.335 31.7642 190.394 31.9891 190.513 32.1929C190.632 32.3967 190.794 32.5594 190.998 32.6811C191.201 32.8002 191.428 32.8598 191.676 32.8598ZM194.777 33.3083V32.6295H195.456V33.3083H194.777ZM198.548 33.4274C198.196 33.4274 197.878 33.3454 197.595 33.1813C197.314 33.0172 197.092 32.7949 196.928 32.5144C196.764 32.2313 196.682 31.9137 196.682 31.5617V29.3388C196.682 28.9869 196.764 28.6706 196.928 28.3901C197.092 28.1069 197.314 27.8833 197.595 27.7193C197.878 27.5552 198.196 27.4731 198.548 27.4731C198.9 27.4731 199.216 27.5552 199.496 27.7193C199.78 27.8833 200.003 28.1069 200.167 28.3901C200.331 28.6706 200.413 28.9869 200.413 29.3388V31.5617C200.413 31.9137 200.331 32.2313 200.167 32.5144C200.003 32.7949 199.78 33.0172 199.496 33.1813C199.216 33.3454 198.9 33.4274 198.548 33.4274ZM198.548 32.8637C198.783 32.8637 198.998 32.8068 199.191 32.6931C199.384 32.5766 199.537 32.4218 199.651 32.2286C199.765 32.0354 199.822 31.8224 199.822 31.5895V29.311C199.822 29.0755 199.765 28.8612 199.651 28.668C199.537 28.4748 199.384 28.3213 199.191 28.2075C198.998 28.0911 198.783 28.0328 198.548 28.0328C198.312 28.0328 198.098 28.0911 197.905 28.2075C197.711 28.3213 197.558 28.4748 197.444 28.668C197.33 28.8612 197.273 29.0755 197.273 29.311V31.5895C197.273 31.8224 197.33 32.0354 197.444 32.2286C197.558 32.4218 197.711 32.5766 197.905 32.6931C198.098 32.8068 198.312 32.8637 198.548 32.8637ZM202.083 33.3083L201.686 32.9114L207.017 27.5922L207.414 27.9852L202.083 33.3083ZM206.223 33.4274C205.961 33.4274 205.722 33.3639 205.505 33.2369C205.291 33.1072 205.119 32.9352 204.989 32.7208C204.859 32.5038 204.794 32.263 204.794 31.9984C204.794 31.739 204.861 31.5009 204.993 31.2839C205.125 31.0669 205.3 30.8935 205.517 30.7639C205.734 30.6342 205.969 30.5694 206.223 30.5694C206.485 30.5694 206.725 30.6342 206.942 30.7639C207.159 30.8909 207.331 31.0629 207.458 31.2799C207.588 31.4943 207.652 31.7338 207.652 31.9984C207.652 32.263 207.588 32.5038 207.458 32.7208C207.331 32.9352 207.159 33.1072 206.942 33.2369C206.725 33.3639 206.485 33.4274 206.223 33.4274ZM206.223 32.8995C206.385 32.8995 206.534 32.8584 206.672 32.7764C206.81 32.6944 206.919 32.5859 207.001 32.4509C207.083 32.3133 207.124 32.1625 207.124 31.9984C207.124 31.8343 207.083 31.6848 207.001 31.5498C206.919 31.4122 206.81 31.3024 206.672 31.2204C206.534 31.1383 206.385 31.0973 206.223 31.0973C206.059 31.0973 205.908 31.1383 205.771 31.2204C205.636 31.3024 205.526 31.4122 205.441 31.5498C205.359 31.6848 205.318 31.8343 205.318 31.9984C205.318 32.1625 205.359 32.3133 205.441 32.4509C205.526 32.5859 205.636 32.6944 205.771 32.7764C205.908 32.8584 206.059 32.8995 206.223 32.8995ZM202.877 30.3312C202.615 30.3312 202.376 30.2677 202.159 30.1407C201.942 30.011 201.768 29.839 201.639 29.6246C201.512 29.4076 201.448 29.1668 201.448 28.9022C201.448 28.6428 201.514 28.4047 201.647 28.1877C201.779 27.9707 201.953 27.7973 202.17 27.6676C202.387 27.538 202.623 27.4731 202.877 27.4731C203.139 27.4731 203.377 27.538 203.592 27.6676C203.809 27.7947 203.982 27.9667 204.112 28.1837C204.241 28.398 204.306 28.6375 204.306 28.9022C204.306 29.1668 204.241 29.4076 204.112 29.6246C203.982 29.839 203.809 30.011 203.592 30.1407C203.377 30.2677 203.139 30.3312 202.877 30.3312ZM202.877 29.8032C203.041 29.8032 203.191 29.7622 203.326 29.6802C203.463 29.5982 203.573 29.4897 203.655 29.3547C203.737 29.2171 203.778 29.0662 203.778 28.9022C203.778 28.7381 203.737 28.5886 203.655 28.4536C203.573 28.316 203.463 28.2062 203.326 28.1241C203.191 28.0421 203.041 28.0011 202.877 28.0011C202.713 28.0011 202.562 28.0421 202.425 28.1241C202.29 28.2062 202.181 28.316 202.099 28.4536C202.017 28.5886 201.976 28.7381 201.976 28.9022C201.976 29.0662 202.017 29.2171 202.099 29.3547C202.181 29.4897 202.29 29.5982 202.425 29.6802C202.562 29.7622 202.713 29.8032 202.877 29.8032Z" fill="black"/>
<path d="M129.009 96.1587H87.9909C85.0679 96.1587 82.6982 98.5283 82.6982 101.451V119.314C82.6982 122.237 85.0679 124.607 87.9909 124.607H129.009C131.932 124.607 134.302 122.237 134.302 119.314V101.451C134.302 98.5283 131.932 96.1587 129.009 96.1587Z" fill="#327528"/>
<path d="M99.8394 114.021V106.323H102.531C103.067 106.323 103.509 106.416 103.858 106.601C104.206 106.784 104.466 107.031 104.636 107.341C104.807 107.65 104.891 107.992 104.891 108.368C104.891 108.699 104.832 108.972 104.715 109.187C104.599 109.403 104.447 109.574 104.256 109.699C104.068 109.824 103.864 109.916 103.643 109.977V110.052C103.879 110.067 104.116 110.15 104.354 110.3C104.592 110.45 104.791 110.666 104.951 110.946C105.112 111.228 105.192 111.57 105.192 111.976C105.192 112.362 105.104 112.71 104.929 113.018C104.754 113.326 104.477 113.57 104.099 113.751C103.72 113.931 103.227 114.021 102.621 114.021H99.8394ZM100.772 113.194H102.621C103.23 113.194 103.663 113.077 103.918 112.841C104.176 112.603 104.305 112.315 104.305 111.976C104.305 111.716 104.239 111.476 104.106 111.255C103.973 111.032 103.784 110.854 103.538 110.721C103.293 110.586 103.002 110.518 102.666 110.518H100.772V113.194ZM100.772 109.706H102.501C102.781 109.706 103.035 109.651 103.26 109.541C103.488 109.431 103.669 109.275 103.802 109.075C103.937 108.874 104.005 108.639 104.005 108.368C104.005 108.029 103.887 107.742 103.651 107.507C103.415 107.269 103.042 107.15 102.531 107.15H100.772V109.706ZM110.243 111.661V108.248H111.129V114.021H110.243V113.044H110.183C110.047 113.337 109.837 113.587 109.551 113.792C109.265 113.995 108.904 114.097 108.468 114.097C108.107 114.097 107.786 114.017 107.506 113.86C107.225 113.699 107.005 113.459 106.844 113.138C106.684 112.815 106.604 112.408 106.604 111.916V108.248H107.491V111.856C107.491 112.278 107.608 112.613 107.845 112.864C108.082 113.114 108.386 113.239 108.754 113.239C108.975 113.239 109.199 113.183 109.427 113.07C109.657 112.958 109.85 112.785 110.006 112.551C110.163 112.319 110.243 112.021 110.243 111.661ZM113.326 116.187C113.176 116.187 113.041 116.174 112.924 116.149C112.806 116.127 112.724 116.104 112.679 116.082L112.905 115.3C113.12 115.355 113.311 115.374 113.476 115.36C113.641 115.345 113.788 115.271 113.916 115.138C114.046 115.008 114.165 114.796 114.273 114.502L114.439 114.051L112.304 108.248H113.266L114.859 112.848H114.92L116.513 108.248H117.476L115.025 114.864C114.915 115.161 114.778 115.409 114.615 115.604C114.452 115.802 114.263 115.949 114.048 116.044C113.835 116.139 113.594 116.187 113.326 116.187Z" fill="white"/>
</g>
<defs>
<clipPath id="clip0_583_270">
<rect width="217" height="134.963" fill="white" transform="translate(0 0.890137)"/>
</clipPath>
</defs>
</svg>
