<svg width="145" height="111" viewBox="0 0 145 111" fill="none" xmlns="http://www.w3.org/2000/svg">
<path d="M72.2919 111C103.257 111 128.359 109.534 128.359 107.726C128.359 105.919 103.257 104.453 72.2919 104.453C41.327 104.453 16.2251 105.919 16.2251 107.726C16.2251 109.534 41.327 111 72.2919 111Z" fill="#F5F5F5"/>
<path d="M68.9378 81.7767H13.1023C12.6646 81.7759 12.2451 81.6017 11.9356 81.2922C11.6261 80.9827 11.4519 80.5632 11.4512 80.1255V1.63669C11.4557 1.20153 11.6316 0.785692 11.9407 0.479323C12.2498 0.172954 12.6671 0.000736884 13.1023 0H68.9378C69.3752 0.000766044 69.7944 0.175064 70.1034 0.484632C70.4125 0.794199 70.586 1.21374 70.586 1.65115V80.1255C70.586 80.563 70.4125 80.9825 70.1034 81.2921C69.7944 81.6016 69.3752 81.7759 68.9378 81.7767ZM13.1023 0.0578338C12.6838 0.0585982 12.2827 0.225187 11.9867 0.521114C11.6908 0.817042 11.5242 1.21819 11.5235 1.63669V80.1255C11.5242 80.544 11.6908 80.9452 11.9867 81.2411C12.2827 81.537 12.6838 81.7036 13.1023 81.7044H68.9378C69.356 81.7036 69.7568 81.5369 70.0523 81.2409C70.3478 80.9449 70.5137 80.5438 70.5137 80.1255V1.63669C70.5137 1.21845 70.3478 0.817302 70.0523 0.521292C69.7568 0.225282 69.356 0.0585998 68.9378 0.0578338H13.1023Z" fill="#E6E6E6"/>
<path d="M131.485 81.7767H75.6463C75.2089 81.7759 74.7897 81.6016 74.4806 81.2921C74.1716 80.9825 73.998 80.563 73.998 80.1255V1.63669C74.0019 1.20179 74.1771 0.785953 74.4857 0.479505C74.7943 0.173056 75.2114 0.000745009 75.6463 0H131.485C131.92 0.000745009 132.337 0.173056 132.645 0.479505C132.954 0.785953 133.129 1.20179 133.133 1.63669V80.1255C133.133 80.563 132.959 80.9825 132.65 81.2921C132.341 81.6016 131.922 81.7759 131.485 81.7767ZM75.6463 0.0578338C75.2281 0.0585998 74.8272 0.225282 74.5318 0.521292C74.2363 0.817302 74.0703 1.21845 74.0703 1.63669V80.1255C74.0703 80.5438 74.2363 80.9449 74.5318 81.2409C74.8272 81.5369 75.2281 81.7036 75.6463 81.7044H131.485C131.903 81.7036 132.305 81.5371 132.601 81.2413C132.898 80.9454 133.065 80.5443 133.066 80.1255V1.63669C133.065 1.21792 132.898 0.816782 132.601 0.520937C132.305 0.225091 131.903 0.0585952 131.485 0.0578338H75.6463Z" fill="#E6E6E6"/>
<path d="M24.8512 96.4316H12.9346V96.5039H24.8512V96.4316Z" fill="#E0E0E0"/>
<path d="M49.1413 95.8535H37.1899V95.9258H49.1413V95.8535Z" fill="#E0E0E0"/>
<path d="M64.6925 95.8535H61.8008V95.9258H64.6925V95.8535Z" fill="#E0E0E0"/>
<path d="M35.7905 98.3228H22.4165V98.395H35.7905V98.3228Z" fill="#E0E0E0"/>
<path d="M82.0488 96.394H75.8027V96.4663H82.0488V96.394Z" fill="#E0E0E0"/>
<path d="M92.6985 96.394H84.6221V96.4663H92.6985V96.394Z" fill="#E0E0E0"/>
<path d="M131.649 97.6172H113.594V97.6895H131.649V97.6172Z" fill="#E0E0E0"/>
<path d="M144.584 93.5952H0V93.6675H144.584V93.5952Z" fill="#EBEBEB"/>
<path opacity="0.8" d="M96.8219 6.00047L96.1019 15.9131C96.0774 16.2491 95.9351 16.5655 95.6999 16.8067C95.566 16.9496 95.4043 17.0638 95.2249 17.1423C95.0455 17.2208 94.8519 17.2621 94.656 17.2636H86.7068C86.5332 17.2653 86.3611 17.2309 86.2015 17.1624C86.0419 17.0939 85.8983 16.9929 85.7799 16.8659C85.6616 16.7388 85.571 16.5884 85.514 16.4244C85.457 16.2604 85.4349 16.0862 85.4489 15.9131L86.1719 6.00047C86.2014 5.63573 86.3659 5.29514 86.6334 5.04537C86.9008 4.7956 87.2518 4.65462 87.6177 4.65005H95.5669C95.7407 4.64734 95.9131 4.68118 96.073 4.74938C96.2329 4.81758 96.3767 4.91862 96.495 5.04594C96.6133 5.17326 96.7035 5.32403 96.7599 5.48846C96.8162 5.6529 96.8373 5.82734 96.8219 6.00047Z" fill="#E0E0E0"/>
<path d="M93.3177 10.9296C93.6193 9.48839 92.9172 8.12195 91.7495 7.87758C90.5818 7.63321 89.3907 8.60346 89.0891 10.0447C88.7875 11.4859 89.4896 12.8524 90.6573 13.0968C91.8249 13.3411 93.016 12.3709 93.3177 10.9296Z" fill="white"/>
<path d="M94.3784 16.5806H87.103C86.6403 16.5806 86.3222 16.358 86.3106 16.0486C86.2933 15.5975 88.6529 13.6456 90.8911 13.8162H90.9431C92.3181 13.8649 93.6369 14.3741 94.6878 15.262C95.7693 16.1122 94.7486 16.5806 94.3784 16.5806Z" fill="white"/>
<path d="M55.8093 16.9017C55.049 16.8987 54.317 16.6133 53.7553 16.1008C53.1937 15.5884 52.8426 14.8855 52.7702 14.1286C52.7365 13.7692 52.7779 13.4067 52.8919 13.0641C53.0058 12.7215 53.1898 12.4065 53.4321 12.1388C53.6745 11.8712 53.9698 11.657 54.2994 11.5097C54.629 11.3624 54.9856 11.2852 55.3466 11.2832C56.1069 11.2862 56.839 11.5716 57.4006 12.0841C57.9622 12.5966 58.3134 13.2995 58.3858 14.0563C58.4195 14.4158 58.378 14.7783 58.2641 15.1208C58.1501 15.4634 57.9661 15.7785 57.7238 16.0461C57.4815 16.3137 57.1861 16.528 56.8565 16.6753C56.527 16.8226 56.1703 16.8997 55.8093 16.9017ZM55.471 12.7753C55.3015 12.7753 55.1339 12.8108 54.9789 12.8794C54.824 12.9481 54.6851 13.0485 54.5712 13.174C54.4574 13.2996 54.3711 13.4476 54.3179 13.6085C54.2647 13.7694 54.2457 13.9397 54.2623 14.1084C54.2979 14.4628 54.463 14.7916 54.7261 15.0317C54.9892 15.2719 55.3317 15.4064 55.6879 15.4096C55.8571 15.4092 56.0244 15.3735 56.179 15.3046C56.3336 15.2358 56.4721 15.1354 56.5857 15.0099C56.6992 14.8843 56.7853 14.7365 56.8383 14.5758C56.8913 14.415 56.9102 14.245 56.8937 14.0766C56.8583 13.7236 56.6943 13.396 56.4331 13.1561C56.1718 12.9161 55.8314 12.7806 55.4768 12.7753H55.471Z" fill="#E0E0E0"/>
<path d="M55.9541 12.5583L54.89 12.5728L54.3232 5.71372L55.3903 5.70215L55.9541 12.5583Z" fill="#E0E0E0"/>
<path d="M56.3993 6.00892L54.3983 6.03495L54.3115 4.96792L56.3126 4.94189L56.3993 6.00892Z" fill="#E0E0E0"/>
<path d="M56.5151 7.37953L54.6326 7.40266L54.5459 6.33563L56.4255 6.3125L56.5151 7.37953Z" fill="#E0E0E0"/>
<path d="M56.6769 9.31121L55.0345 9.33145L54.9448 8.26731L56.5873 8.24707L56.6769 9.31121Z" fill="#E0E0E0"/>
<path d="M22.9338 75.1954C22.94 75.2817 22.9506 75.3676 22.9656 75.4527C23.0653 76.0075 23.3423 76.5148 23.7551 76.8986C24.2239 77.3435 24.8438 77.5945 25.4901 77.6013H49.9219C50.5008 77.6106 51.0601 77.3911 51.4781 76.9904C51.8961 76.5897 52.1391 76.0403 52.1542 75.4614C52.1608 75.1184 52.0994 74.7776 51.9737 74.4584C51.848 74.1392 51.6604 73.848 51.4218 73.6016C51.1831 73.3551 50.8981 73.1583 50.5832 73.0224C50.2682 72.8865 49.9294 72.8143 49.5864 72.8097H25.1575C24.8505 72.8059 24.546 72.8662 24.2637 72.9869C23.9813 73.1076 23.7273 73.286 23.5179 73.5106C23.3085 73.7352 23.1484 74.0011 23.0478 74.2913C22.9472 74.5814 22.9084 74.8894 22.9338 75.1954Z" fill="#F0F0F0"/>
<path d="M52.1632 75.4524C52.1613 75.53 52.1536 75.6074 52.14 75.6838C52.0695 75.0527 51.7707 74.4692 51.2999 74.0431C50.8291 73.617 50.2187 73.3778 49.5838 73.3704L23.6021 73.4109C24.0218 73.0087 24.5822 72.7866 25.1636 72.7921H49.5954C49.9404 72.7895 50.2825 72.8569 50.6007 72.9903C50.919 73.1237 51.2068 73.3203 51.4469 73.5682C51.687 73.8161 51.8742 74.1102 51.9973 74.4326C52.1205 74.7549 52.1769 75.0989 52.1632 75.4438V75.4524Z" fill="#E0E0E0"/>
<path d="M47.9818 73.9546L48.0627 75.1113L49.1587 74.7035L49.4074 75.2819L48.2912 75.6636L49.0719 76.6438L48.5803 77.014L47.8198 75.9961L47.2126 77.014L46.6718 76.6438L47.3051 75.6636L46.1484 75.2963L46.3133 74.718L47.4699 75.1113L47.389 73.9546H47.9818Z" fill="white"/>
<path d="M41.299 73.9549L41.3828 75.1116L42.4759 74.7038L42.7246 75.2822L41.6055 75.6494L42.3891 76.6297L41.8831 76.9998L41.1226 75.982L40.5153 76.9998L39.9746 76.6297L40.6078 75.6494L39.4512 75.2822L39.6189 74.7038L40.7756 75.0971L40.6946 73.9404L41.299 73.9549Z" fill="white"/>
<path d="M34.6192 73.9549L34.7002 75.1116L35.7961 74.7038L36.0448 75.2822L34.9257 75.6494L35.7065 76.6297L35.2005 76.9998L34.4399 75.982L33.8327 76.9998L33.2919 76.6297L33.9252 75.6494L32.7686 75.2822L32.9363 74.7038L34.0929 75.0971L34.012 73.9404L34.6192 73.9549Z" fill="white"/>
<path d="M27.9366 73.9546L28.0175 75.1113L29.1135 74.7035L29.3622 75.2819L28.2431 75.6491L29.0238 76.6294L28.5207 76.9995L27.7602 75.9961L27.15 77.014L26.6035 76.6438L27.2397 75.6636L26.083 75.2963L26.2507 74.718L27.4074 75.1113L27.3264 73.9546H27.9366Z" fill="white"/>
<path d="M44.1676 71.9566H43.0283L43.0312 71.6675H44.1705L44.1676 71.9566Z" fill="#E0E0E0"/>
<path d="M49.063 71.9566H45.3472L45.3529 71.6675H49.0688L49.063 71.9566Z" fill="#E0E0E0"/>
<g opacity="0.8">
<path d="M77.896 70.4991L82.5053 77.5924L97.704 62.3937C97.7188 62.3806 97.7309 62.3647 97.7396 62.347C97.7482 62.3292 97.7533 62.3099 97.7545 62.2901C97.7557 62.2704 97.753 62.2506 97.7466 62.2319C97.7402 62.2132 97.7301 62.196 97.717 62.1812C97.7039 62.1664 97.688 62.1543 97.6702 62.1456C97.6525 62.1369 97.6332 62.1319 97.6134 62.1307C97.5937 62.1294 97.5739 62.1321 97.5552 62.1386C97.5365 62.145 97.5193 62.1551 97.5045 62.1682L83.0201 73.5267L80.2845 69.1169L77.896 70.4991Z" fill="#E0E0E0"/>
</g>
<path opacity="0.1" d="M75.1432 20.0161L64.23 60.8351H67.8995L78.6913 20.0161H75.1432Z" fill="white"/>
<path opacity="0.1" d="M80.8082 20.0161L69.895 60.8351H77.1763L87.968 20.0161H80.8082Z" fill="white"/>
<path d="M120.094 56.8447L122.408 24.082C122.429 23.8303 122.398 23.5768 122.315 23.3381C122.232 23.0993 122.1 22.8806 121.928 22.6961C121.755 22.5115 121.546 22.3653 121.313 22.2668C121.081 22.1683 120.83 22.1198 120.577 22.1243L63.3971 22.1735C62.8652 22.1808 62.355 22.3855 61.9655 22.7477C61.576 23.11 61.3349 23.6041 61.2891 24.134L58.9902 56.8997C58.9691 57.1515 59.0011 57.405 59.0841 57.6438C59.1671 57.8825 59.2993 58.1012 59.472 58.2857C59.6448 58.4702 59.8543 58.6164 60.0871 58.7148C60.3199 58.8133 60.5708 58.8618 60.8235 58.8573L117.98 58.8082C118.514 58.8028 119.026 58.5986 119.417 58.2355C119.808 57.8723 120.05 57.3764 120.094 56.8447Z" fill="#263238"/>
<path d="M119.36 56.1304L121.673 23.3677C121.695 23.1159 121.664 22.8622 121.582 22.6233C121.499 22.3843 121.367 22.1654 121.195 21.9808C121.022 21.7962 120.812 21.6499 120.579 21.5516C120.347 21.4532 120.096 21.405 119.843 21.41L62.6628 21.4592C62.131 21.4659 61.6208 21.6705 61.2317 22.0329C60.8425 22.3954 60.6022 22.8898 60.5577 23.4197L58.2443 56.1854C58.2228 56.4371 58.2544 56.6905 58.3371 56.9293C58.4198 57.168 58.5516 57.3867 58.7242 57.5713C58.8967 57.7558 59.1061 57.9021 59.3388 58.0006C59.5714 58.099 59.8222 58.1476 60.0748 58.143L117.252 58.0939C117.784 58.0871 118.295 57.8823 118.685 57.5193C119.075 57.1563 119.315 56.6611 119.36 56.1304Z" fill="#3C8C30"/>
<path opacity="0.6" d="M117.845 56.616C117.727 56.724 117.574 56.7838 117.414 56.7837L60.2339 56.8329C60.1422 56.8318 60.0516 56.8122 59.9676 56.7752C59.8836 56.7382 59.808 56.6846 59.7453 56.6176C59.6826 56.5506 59.6341 56.4716 59.6028 56.3853C59.5715 56.2991 59.558 56.2074 59.5631 56.1157L61.8764 23.353C61.8853 23.1939 61.9559 23.0446 62.073 22.9366C62.1898 22.8274 62.3441 22.7673 62.5039 22.7689L119.684 22.7197C119.776 22.7208 119.866 22.7404 119.95 22.7774C120.034 22.8144 120.11 22.868 120.173 22.935C120.235 23.002 120.284 23.081 120.315 23.1673C120.346 23.2535 120.36 23.3452 120.355 23.4369L118.041 56.1996C118.031 56.3583 117.961 56.5071 117.845 56.616Z" fill="white"/>
<path d="M98.826 38.604H78.7549C78.578 38.607 78.4081 38.6739 78.2768 38.7925C78.1455 38.911 78.0616 39.0732 78.0406 39.2489L77.7312 42.1839C77.7214 42.2655 77.729 42.3482 77.7536 42.4266C77.7782 42.505 77.8193 42.5772 77.874 42.6385C77.9287 42.6998 77.9959 42.7487 78.071 42.782C78.1461 42.8153 78.2274 42.8322 78.3096 42.8317H98.3807C98.5582 42.8281 98.7284 42.7606 98.8602 42.6416C98.9919 42.5226 99.0763 42.3601 99.0979 42.1839L99.4044 39.2489C99.4138 39.1675 99.4058 39.0851 99.381 39.0071C99.3562 38.929 99.3151 38.8572 99.2604 38.7962C99.2057 38.7352 99.1387 38.6866 99.0639 38.6535C98.989 38.6203 98.9079 38.6035 98.826 38.604Z" fill="white"/>
<path d="M81.1436 50.5899H78.0119C77.8344 50.5934 77.6641 50.6609 77.5324 50.7799C77.4007 50.8989 77.3163 51.0614 77.2947 51.2376L76.9882 54.1727C76.9788 54.254 76.9868 54.3364 77.0116 54.4144C77.0364 54.4925 77.0775 54.5644 77.1322 54.6253C77.1868 54.6863 77.2538 54.7349 77.3287 54.7681C77.4036 54.8012 77.4847 54.818 77.5665 54.8175H80.6982C80.8753 54.814 81.0452 54.747 81.1768 54.6286C81.3085 54.5102 81.3932 54.3483 81.4154 54.1727L81.7219 51.2376C81.7318 51.156 81.7241 51.0733 81.6995 50.9949C81.6749 50.9165 81.6339 50.8443 81.5791 50.783C81.5244 50.7217 81.4573 50.6728 81.3822 50.6395C81.3071 50.6062 81.2257 50.5893 81.1436 50.5899Z" fill="white"/>
<path d="M86.5508 50.5899H83.4191C83.2416 50.5934 83.0714 50.6609 82.9396 50.7799C82.8079 50.8989 82.7235 51.0614 82.702 51.2376L82.3954 54.1727C82.386 54.254 82.394 54.3364 82.4188 54.4144C82.4436 54.4925 82.4847 54.5644 82.5394 54.6253C82.5941 54.6863 82.6611 54.7349 82.7359 54.7681C82.8108 54.8012 82.8919 54.818 82.9738 54.8175H86.1055C86.2825 54.814 86.4524 54.747 86.5841 54.6286C86.7157 54.5102 86.8004 54.3483 86.8226 54.1727L87.1291 51.2376C87.139 51.156 87.1314 51.0733 87.1067 50.9949C87.0821 50.9165 87.0411 50.8443 86.9864 50.783C86.9316 50.7217 86.8645 50.6728 86.7894 50.6395C86.7143 50.6062 86.6329 50.5893 86.5508 50.5899Z" fill="white"/>
<path d="M91.9556 50.5899H88.8268C88.6493 50.5934 88.4791 50.6609 88.3473 50.7799C88.2156 50.8989 88.1312 51.0614 88.1097 51.2376L87.8032 54.1727C87.7937 54.254 87.8017 54.3364 87.8265 54.4144C87.8513 54.4925 87.8924 54.5644 87.9471 54.6253C88.0018 54.6863 88.0688 54.7349 88.1437 54.7681C88.2185 54.8012 88.2996 54.818 88.3815 54.8175H91.5132C91.6902 54.814 91.8601 54.747 91.9918 54.6286C92.1235 54.5102 92.2081 54.3483 92.2303 54.1727L92.5339 51.2376C92.5438 51.156 92.5362 51.0733 92.5115 50.9949C92.4869 50.9165 92.4459 50.8443 92.3912 50.783C92.3365 50.7217 92.2693 50.6728 92.1942 50.6395C92.1191 50.6062 92.0378 50.5893 91.9556 50.5899Z" fill="white"/>
<path d="M97.3657 50.5899H94.234C94.0566 50.5934 93.8863 50.6609 93.7546 50.7799C93.6228 50.8989 93.5384 51.0614 93.5169 51.2376L93.2104 54.1727C93.201 54.254 93.2089 54.3364 93.2337 54.4144C93.2586 54.4925 93.2997 54.5644 93.3543 54.6253C93.409 54.6863 93.476 54.7349 93.5509 54.7681C93.6258 54.8012 93.7068 54.818 93.7887 54.8175H96.9204C97.0975 54.814 97.2673 54.747 97.399 54.6286C97.5307 54.5102 97.6154 54.3483 97.6375 54.1727L97.9441 51.2376C97.9539 51.156 97.9463 51.0733 97.9217 50.9949C97.8971 50.9165 97.856 50.8443 97.8013 50.783C97.7466 50.7217 97.6794 50.6728 97.6043 50.6395C97.5292 50.6062 97.4479 50.5893 97.3657 50.5899Z" fill="white"/>
<path d="M93.8262 48.7362H81.2735C81.1127 48.74 80.953 48.709 80.8054 48.6454C80.6577 48.5817 80.5255 48.4869 80.4179 48.3675C80.3102 48.248 80.2297 48.1067 80.1817 47.9533C80.1337 47.7998 80.1195 47.6378 80.1399 47.4783L80.2903 46.0324C80.332 45.6977 80.4929 45.3892 80.7436 45.1635C80.9943 44.9377 81.3179 44.8099 81.6552 44.8035H94.2079C94.3688 44.8001 94.5286 44.8315 94.6762 44.8954C94.8239 44.9594 94.956 45.0544 95.0636 45.1741C95.1712 45.2938 95.2517 45.4352 95.2997 45.5889C95.3476 45.7425 95.3619 45.9046 95.3415 46.0642L95.1911 47.5101C95.1488 47.8443 94.9876 48.1521 94.737 48.3773C94.4864 48.6024 94.1631 48.7298 93.8262 48.7362ZM81.6552 45.0955C81.3889 45.1017 81.1336 45.2031 80.9357 45.3814C80.7378 45.5596 80.6104 45.8029 80.5766 46.0671L80.4262 47.513C80.4102 47.6323 80.4204 47.7537 80.456 47.8686C80.4916 47.9836 80.5518 48.0895 80.6324 48.1789C80.713 48.2683 80.8121 48.3391 80.9228 48.3864C81.0335 48.4337 81.1531 48.4564 81.2735 48.4528H93.8262C94.0923 48.4473 94.3475 48.3465 94.5455 48.1687C94.7434 47.9909 94.8709 47.748 94.9048 47.4841L95.0552 46.0382C95.0712 45.9189 95.061 45.7975 95.0254 45.6825C94.9898 45.5675 94.9297 45.4617 94.849 45.3723C94.7684 45.2829 94.6693 45.212 94.5586 45.1648C94.4479 45.1175 94.3283 45.0948 94.2079 45.0984L81.6552 45.0955Z" fill="#3C8C30"/>
<path d="M99.5488 32.4907H79.4777C79.3007 32.495 79.1312 32.5628 79 32.6817C78.8689 32.8006 78.7849 32.9627 78.7634 33.1385L78.454 36.0735C78.4446 36.1549 78.4526 36.2373 78.4774 36.3153C78.5022 36.3933 78.5433 36.4652 78.598 36.5262C78.6527 36.5871 78.7197 36.6358 78.7945 36.6689C78.8694 36.7021 78.9505 36.7189 79.0324 36.7184H99.1006C99.2777 36.7149 99.4476 36.6478 99.5792 36.5294C99.7109 36.411 99.7956 36.2492 99.8178 36.0735L100.124 33.1385C100.134 33.0571 100.127 32.9747 100.102 32.8965C100.078 32.8183 100.037 32.7462 99.9825 32.685C99.9281 32.6237 99.8613 32.5747 99.7865 32.5412C99.7118 32.5078 99.6308 32.4905 99.5488 32.4907Z" fill="white"/>
<path d="M81.1954 40.7178C81.2075 40.6271 81.1999 40.5349 81.173 40.4475C81.1461 40.3601 81.1006 40.2795 81.0396 40.2114C80.9786 40.1432 80.9035 40.0891 80.8196 40.0527C80.7357 40.0164 80.6449 39.9986 80.5535 40.0006C80.357 40.0053 80.1688 40.0802 80.0229 40.2118C79.877 40.3434 79.7831 40.5229 79.7582 40.7178C79.747 40.8084 79.7554 40.9003 79.7829 40.9874C79.8103 41.0744 79.8562 41.1546 79.9174 41.2223C79.9786 41.2901 80.0536 41.3439 80.1374 41.3801C80.2212 41.4162 80.3118 41.434 80.4031 41.432C80.5989 41.428 80.7868 41.3536 80.9322 41.2224C81.0777 41.0913 81.1711 40.9121 81.1954 40.7178Z" fill="#263238"/>
<path d="M83.4048 40.7178C83.4165 40.627 83.4084 40.5347 83.3811 40.4473C83.3539 40.3599 83.3081 40.2794 83.2469 40.2113C83.1856 40.1432 83.1104 40.0891 83.0264 40.0528C82.9424 40.0164 82.8515 39.9986 82.7599 40.0006C82.5637 40.0048 82.3755 40.0796 82.2299 40.2113C82.0844 40.3431 81.9912 40.5229 81.9676 40.7178C81.9559 40.8082 81.9639 40.9001 81.991 40.9872C82.0181 41.0742 82.0637 41.1544 82.1247 41.2222C82.1856 41.29 82.2605 41.3439 82.3442 41.3801C82.4279 41.4163 82.5184 41.434 82.6096 41.432C82.8057 41.4281 82.9939 41.3538 83.1399 41.2227C83.2859 41.0916 83.3799 40.9124 83.4048 40.7178Z" fill="#263238"/>
<path d="M85.6109 40.7178C85.6226 40.627 85.6146 40.5347 85.5873 40.4473C85.56 40.3599 85.5142 40.2794 85.453 40.2113C85.3918 40.1432 85.3166 40.0891 85.2326 40.0528C85.1485 40.0164 85.0576 39.9986 84.9661 40.0006C84.7698 40.0048 84.5816 40.0796 84.4361 40.2113C84.2905 40.3431 84.1974 40.5229 84.1738 40.7178C84.1625 40.8084 84.171 40.9003 84.1984 40.9874C84.2259 41.0744 84.2717 41.1546 84.3329 41.2223C84.3941 41.2901 84.4691 41.3439 84.5529 41.38C84.6367 41.4162 84.7274 41.434 84.8186 41.432C85.0145 41.428 85.2023 41.3536 85.3478 41.2224C85.4933 41.0913 85.5867 40.9121 85.6109 40.7178Z" fill="#263238"/>
<path d="M87.8175 40.7178C87.8297 40.6271 87.822 40.5349 87.7951 40.4475C87.7682 40.3601 87.7227 40.2795 87.6617 40.2114C87.6007 40.1432 87.5256 40.0891 87.4417 40.0527C87.3578 40.0164 87.267 39.9986 87.1756 40.0006C86.9793 40.0048 86.7911 40.0796 86.6456 40.2113C86.5 40.3431 86.4069 40.5229 86.3833 40.7178C86.3713 40.8093 86.3796 40.9024 86.4075 40.9904C86.4355 41.0784 86.4824 41.1592 86.545 41.227C86.6076 41.2949 86.6844 41.3482 86.7699 41.3831C86.8553 41.418 86.9474 41.4337 87.0397 41.4291C87.2325 41.4218 87.4165 41.3463 87.559 41.216C87.7014 41.0858 87.793 40.9092 87.8175 40.7178Z" fill="#263238"/>
<path d="M90.0703 40.7178C90.082 40.627 90.0739 40.5347 90.0467 40.4473C90.0194 40.3599 89.9736 40.2794 89.9124 40.2113C89.8512 40.1432 89.776 40.0891 89.6919 40.0528C89.6079 40.0164 89.517 39.9986 89.4255 40.0006C89.2292 40.0048 89.041 40.0796 88.8955 40.2113C88.7499 40.3431 88.6568 40.5229 88.6331 40.7178C88.6215 40.8082 88.6295 40.9001 88.6566 40.9872C88.6837 41.0742 88.7293 41.1544 88.7902 41.2222C88.8512 41.29 88.926 41.3439 89.0097 41.3801C89.0934 41.4163 89.1839 41.434 89.2751 41.432C89.4713 41.4281 89.6595 41.3538 89.8054 41.2227C89.9514 41.0916 90.0454 40.9124 90.0703 40.7178Z" fill="#263238"/>
<path d="M81.9184 34.6046C81.9306 34.5141 81.923 34.422 81.8961 34.3347C81.8691 34.2475 81.8236 34.1671 81.7625 34.0991C81.7015 34.0312 81.6264 33.9773 81.5425 33.9413C81.4585 33.9053 81.3678 33.8879 81.2765 33.8904C81.0806 33.8944 80.8928 33.9688 80.7473 34.1C80.6018 34.2311 80.5084 34.4103 80.4841 34.6046C80.472 34.6951 80.4796 34.7872 80.5065 34.8745C80.5334 34.9618 80.579 35.0422 80.6401 35.1101C80.7011 35.178 80.7762 35.2319 80.8601 35.2679C80.944 35.304 81.0348 35.3214 81.1261 35.3189C81.3221 35.3154 81.5103 35.2412 81.6559 35.11C81.8015 34.9787 81.8947 34.7992 81.9184 34.6046Z" fill="#263238"/>
<path d="M84.1276 34.6045C84.1388 34.5139 84.1304 34.422 84.103 34.3349C84.0755 34.2479 84.0296 34.1678 83.9684 34.1C83.9073 34.0322 83.8322 33.9784 83.7484 33.9423C83.6646 33.9061 83.574 33.8883 83.4828 33.8903C83.2889 33.897 83.1039 33.9727 82.9608 34.1036C82.8177 34.2345 82.7259 34.4121 82.702 34.6045C82.6903 34.695 82.6983 34.7869 82.7254 34.8739C82.7525 34.961 82.7981 35.0412 82.8591 35.109C82.92 35.1768 82.9949 35.2306 83.0786 35.2669C83.1623 35.3031 83.2528 35.3208 83.3439 35.3188C83.5383 35.3127 83.724 35.2374 83.8677 35.1064C84.0114 34.9754 84.1036 34.7974 84.1276 34.6045Z" fill="#263238"/>
<path d="M86.334 34.6045C86.3457 34.5141 86.3377 34.4222 86.3106 34.3352C86.2835 34.2481 86.2379 34.1679 86.1769 34.1001C86.116 34.0323 86.0411 33.9784 85.9574 33.9422C85.8737 33.906 85.7832 33.8883 85.692 33.8903C85.4959 33.8942 85.3077 33.9685 85.1617 34.0997C85.0158 34.2308 84.9217 34.4099 84.8968 34.6045C84.8851 34.6952 84.8932 34.7874 84.9204 34.8746C84.9477 34.9619 84.9936 35.0422 85.0548 35.1101C85.1161 35.178 85.1913 35.2318 85.2754 35.2678C85.3594 35.3038 85.4503 35.3212 85.5417 35.3188C85.7377 35.3153 85.9258 35.2411 86.0714 35.1099C86.2171 34.9786 86.3103 34.7991 86.334 34.6045Z" fill="#263238"/>
<path d="M88.5405 34.6046C88.5527 34.5141 88.545 34.422 88.5181 34.3347C88.4912 34.2475 88.4456 34.1671 88.3846 34.0991C88.3235 34.0312 88.2484 33.9773 88.1645 33.9413C88.0806 33.9053 87.9898 33.8879 87.8985 33.8904C87.7027 33.8944 87.5149 33.9688 87.3694 34.1C87.2239 34.2311 87.1305 34.4103 87.1062 34.6046C87.094 34.6951 87.1017 34.7872 87.1286 34.8745C87.1555 34.9618 87.2011 35.0422 87.2621 35.1101C87.3232 35.178 87.3983 35.2319 87.4822 35.2679C87.5661 35.304 87.6569 35.3214 87.7482 35.3189C87.9442 35.3154 88.1323 35.2412 88.2779 35.11C88.4236 34.9787 88.5168 34.7992 88.5405 34.6046Z" fill="#263238"/>
<path d="M90.7495 34.6045C90.7607 34.5139 90.7523 34.422 90.7249 34.3349C90.6974 34.2479 90.6515 34.1678 90.5904 34.1C90.5292 34.0322 90.4542 33.9784 90.3704 33.9423C90.2866 33.9061 90.1959 33.8883 90.1047 33.8903C89.9089 33.8943 89.721 33.9687 89.5755 34.0999C89.43 34.231 89.3366 34.4102 89.3124 34.6045C89.3006 34.6952 89.3087 34.7874 89.336 34.8746C89.3632 34.9619 89.4091 35.0422 89.4704 35.1101C89.5316 35.178 89.6069 35.2318 89.6909 35.2678C89.775 35.3038 89.8658 35.3212 89.9572 35.3188C90.1532 35.3153 90.3414 35.2411 90.487 35.1099C90.6326 34.9786 90.7258 34.7991 90.7495 34.6045Z" fill="#263238"/>
<path d="M92.9561 34.6045C92.9677 34.5141 92.9598 34.4222 92.9327 34.3352C92.9055 34.2481 92.86 34.1679 92.799 34.1001C92.738 34.0323 92.6632 33.9784 92.5795 33.9422C92.4958 33.906 92.4053 33.8883 92.3141 33.8903C92.118 33.8942 91.9298 33.9685 91.7838 34.0997C91.6378 34.2308 91.5438 34.4099 91.5189 34.6045C91.5072 34.6952 91.5152 34.7874 91.5425 34.8746C91.5698 34.9619 91.6156 35.0422 91.6769 35.1101C91.7382 35.178 91.8134 35.2318 91.8975 35.2678C91.9815 35.3038 92.0723 35.3212 92.1637 35.3188C92.3598 35.3153 92.5479 35.2411 92.6935 35.1099C92.8391 34.9786 92.9324 34.7991 92.9561 34.6045Z" fill="#263238"/>
<path d="M91.0878 26.0193L90.9317 27.5027C90.9206 27.5672 90.888 27.6261 90.8392 27.6697C90.7903 27.7133 90.7281 27.739 90.6627 27.7427C90.6319 27.7438 90.6012 27.7382 90.5728 27.7262C90.5444 27.7142 90.519 27.6961 90.4983 27.6733C90.4777 27.6504 90.4622 27.6233 90.4532 27.5938C90.4441 27.5643 90.4416 27.5332 90.4459 27.5027L90.602 26.0193C90.6157 25.9094 90.6056 25.7979 90.5725 25.6923C90.5393 25.5867 90.4838 25.4895 90.4098 25.4072C90.3357 25.3249 90.2448 25.2595 90.1433 25.2155C90.0418 25.1714 89.9319 25.1497 89.8213 25.1518H89.2863C89.0486 25.1574 88.8208 25.248 88.6442 25.4072C88.4675 25.5663 88.3537 25.7834 88.3234 26.0193L88.1875 27.3957H87.7017L87.8376 26.0193C87.8834 25.6513 88.0604 25.3122 88.3361 25.0641C88.6117 24.8161 88.9676 24.6757 89.3384 24.6688H89.8704C90.0431 24.6645 90.2147 24.6976 90.3733 24.7658C90.532 24.834 90.6741 24.9357 90.7897 25.064C90.9054 25.1923 90.9919 25.3441 91.0434 25.509C91.0948 25.6739 91.11 25.848 91.0878 26.0193Z" fill="#3C8C30"/>
<path d="M91.088 27.4477L90.7843 30.3394C90.7726 30.4292 90.7291 30.5118 90.6618 30.5722C90.5944 30.6327 90.5076 30.667 90.4171 30.669H87.5254C87.4838 30.6695 87.4426 30.6609 87.4045 30.6439C87.3665 30.6269 87.3326 30.6019 87.3052 30.5706C87.2777 30.5393 87.2574 30.5024 87.2455 30.4625C87.2336 30.4226 87.2304 30.3806 87.2362 30.3394L87.5399 27.4477C87.5455 27.3883 87.5653 27.3311 87.5975 27.2808C87.6297 27.2305 87.6733 27.1886 87.7249 27.1586C87.7802 27.1262 87.8431 27.1092 87.9071 27.1094H90.7988C90.8579 27.1088 90.9161 27.1248 90.9665 27.1557C91.0129 27.1873 91.0491 27.2317 91.0707 27.2836C91.0923 27.3355 91.0983 27.3925 91.088 27.4477Z" fill="#3C8C30"/>
<path d="M106.666 21.4044C106.627 21.4044 106.59 21.3891 106.563 21.362C106.536 21.3349 106.521 21.2981 106.521 21.2598C106.521 21.2214 106.536 21.1847 106.563 21.1575C106.59 21.1304 106.627 21.1152 106.666 21.1152L113.733 21.0747C113.771 21.0747 113.808 21.0899 113.835 21.1171C113.862 21.1442 113.877 21.1809 113.877 21.2193C113.877 21.2576 113.862 21.2944 113.835 21.3215C113.808 21.3486 113.771 21.3639 113.733 21.3639L106.668 21.4044H106.666Z" fill="#263238"/>
<path d="M115.089 21.3551C115.051 21.3551 115.014 21.3399 114.987 21.3127C114.96 21.2856 114.944 21.2488 114.944 21.2105C114.944 21.1722 114.96 21.1354 114.987 21.1083C115.014 21.0811 115.051 21.0659 115.089 21.0659H117.587C117.626 21.0659 117.662 21.0811 117.69 21.1083C117.717 21.1354 117.732 21.1722 117.732 21.2105C117.732 21.2488 117.717 21.2856 117.69 21.3127C117.662 21.3399 117.626 21.3551 117.587 21.3551H115.089Z" fill="#263238"/>
<g opacity="0.3">
<path d="M67.9837 22.7603H76.0804L67.8478 56.8329H61.3213C61.1329 56.8292 60.9479 56.783 60.78 56.6976C60.6121 56.6123 60.4657 56.4901 60.3516 56.3402C60.2376 56.1903 60.159 56.0166 60.1216 55.832C60.0842 55.6474 60.089 55.4568 60.1357 55.2743L67.9837 22.7603Z" fill="white"/>
<path d="M79.6658 22.7603H83.0983L74.8743 56.8329H71.4419L79.6658 22.7603Z" fill="white"/>
</g>
<path d="M25.0561 12.1244H26.6986C26.3138 12.119 25.9321 12.1942 25.5782 12.3454C25.2243 12.4965 24.9061 12.7202 24.6439 13.0019C24.3818 13.2836 24.1817 13.6172 24.0564 13.9811C23.9312 14.345 23.8836 14.731 23.9168 15.1144L27.4013 64.9381C27.4673 65.7448 27.8315 66.4981 28.4228 67.0508C29.0141 67.6037 29.7901 67.9164 30.5995 67.9281H28.9599C28.1502 67.9165 27.3738 67.6038 26.7821 67.0511C26.1903 66.4983 25.8255 65.7451 25.7588 64.9381L22.2656 15.1144C22.2324 14.7303 22.2802 14.3435 22.4059 13.979C22.5317 13.6145 22.7326 13.2805 22.9957 12.9986C23.2587 12.7168 23.5781 12.4933 23.933 12.3427C24.288 12.1921 24.6706 12.1177 25.0561 12.1244Z" fill="#3C8C30"/>
<path d="M25.0561 12.1248H26.6986C26.3138 12.1193 25.9321 12.1946 25.5782 12.3457C25.2243 12.4968 24.9061 12.7205 24.6439 13.0022C24.3818 13.284 24.1817 13.6176 24.0564 13.9814C23.9312 14.3453 23.8836 14.7314 23.9168 15.1148L27.4013 64.9384C27.4673 65.7452 27.8315 66.4984 28.4228 67.0512C29.0141 67.604 29.7901 67.9167 30.5995 67.9284H28.9599C27.3087 67.9284 25.6431 66.5896 25.5275 64.9384L22.043 15.1148C21.9273 13.4636 23.405 12.1248 25.0561 12.1248Z" fill="#263238"/>
<path d="M29.4485 67.9313H49.5457C49.9315 67.9384 50.3144 67.8643 50.6697 67.7139C51.025 67.5635 51.3447 67.3401 51.6081 67.0582C51.8715 66.7762 52.0726 66.4421 52.1986 66.0774C52.3245 65.7127 52.3724 65.3257 52.3391 64.9413L48.843 15.1148C48.7776 14.307 48.4133 13.5527 47.8214 12.9992C47.2294 12.4457 46.4523 12.1329 45.642 12.1219H25.5477C25.1626 12.1163 24.7807 12.1917 24.4266 12.343C24.0725 12.4943 23.754 12.7182 23.4919 13.0003C23.2297 13.2824 23.0296 13.6163 22.9046 13.9805C22.7795 14.3447 22.7323 14.7311 22.7659 15.1148L26.2359 64.9384C26.3021 65.7479 26.6683 66.5034 27.2626 67.0571C27.8568 67.6107 28.6364 67.9224 29.4485 67.9313Z" fill="#3C8C30"/>
<g opacity="0.6">
<path d="M45.5902 13.0905C46.1532 13.0994 46.6928 13.3175 47.1039 13.7023C47.5149 14.0872 47.768 14.6113 47.8139 15.1725L51.2984 64.9961C51.3221 65.2504 51.2918 65.5068 51.2095 65.7485C51.1272 65.9903 50.9947 66.2119 50.8208 66.3989C50.6469 66.5859 50.4355 66.734 50.2004 66.8337C49.9652 66.9333 49.7117 66.9821 49.4564 66.9769H29.3621C28.7988 66.9681 28.2589 66.7501 27.8473 66.3653C27.4358 65.9805 27.1821 65.4564 27.1355 64.8949L23.6655 15.0713C23.642 14.8182 23.6719 14.5631 23.7533 14.3224C23.8348 14.0816 23.9659 13.8607 24.1382 13.674C24.3106 13.4872 24.5202 13.3387 24.7536 13.2382C24.987 13.1377 25.2389 13.0874 25.493 13.0905H45.5902Z" fill="white"/>
</g>
<g opacity="0.3">
<path d="M39.905 66.971H31.8979L38.5083 13.0903H44.9597C45.2382 13.0893 45.5141 13.1458 45.7698 13.2562C46.0256 13.3667 46.2558 13.5288 46.446 13.7323L39.905 66.971Z" fill="white"/>
<path d="M30.4607 66.9709H28.6562L35.2666 13.0845H37.071L30.4607 66.9709Z" fill="white"/>
</g>
<path d="M44.3927 36.7735H29.836C29.7976 36.7735 29.7609 36.7583 29.7338 36.7312C29.7066 36.7041 29.6914 36.6673 29.6914 36.629C29.6914 36.5906 29.7066 36.5538 29.7338 36.5267C29.7609 36.4996 29.7976 36.4844 29.836 36.4844H44.3927C44.4308 36.4851 44.4672 36.5006 44.4941 36.5275C44.5211 36.5545 44.5365 36.5908 44.5373 36.629C44.5373 36.6673 44.5221 36.7041 44.4949 36.7312C44.4678 36.7583 44.4311 36.7735 44.3927 36.7735Z" fill="white"/>
<path d="M43.1148 38.9278H31.7129C31.6746 38.9278 31.6378 38.9126 31.6107 38.8855C31.5836 38.8584 31.5684 38.8216 31.5684 38.7833C31.5684 38.7449 31.5836 38.7081 31.6107 38.681C31.6378 38.6539 31.6746 38.6387 31.7129 38.6387H43.1148C43.1532 38.6387 43.19 38.6539 43.2171 38.681C43.2442 38.7081 43.2594 38.7449 43.2594 38.7833C43.2594 38.8216 43.2442 38.8584 43.2171 38.8855C43.19 38.9126 43.1532 38.9278 43.1148 38.9278Z" fill="white"/>
<path d="M30.2701 26.7046L30.2903 27.283H29.9173L29.8971 26.7046L29.2349 25.6665H29.631L30.0879 26.3836L30.4927 25.6665H30.86L30.2701 26.7046Z" fill="#3C8C30"/>
<path d="M30.8743 26.4675C30.8694 26.3538 30.8887 26.2404 30.9311 26.1348C30.9734 26.0292 31.0377 25.9338 31.1198 25.855C31.2019 25.7762 31.2998 25.7158 31.4071 25.6778C31.5143 25.6398 31.6284 25.6251 31.7418 25.6347C31.8564 25.6288 31.9711 25.6458 32.0792 25.6846C32.1872 25.7235 32.2865 25.7833 32.3712 25.8608C32.4559 25.9383 32.5244 26.0318 32.5727 26.1359C32.6211 26.2401 32.6482 26.3527 32.6527 26.4675C32.658 26.5814 32.639 26.6951 32.5968 26.8011C32.5547 26.907 32.4904 27.0028 32.4083 27.0819C32.3261 27.161 32.2281 27.2217 32.1206 27.2598C32.0132 27.298 31.8988 27.3128 31.7852 27.3032C31.6703 27.309 31.5554 27.2919 31.4472 27.2529C31.3389 27.2139 31.2395 27.1538 31.1548 27.076C31.07 26.9982 31.0016 26.9044 30.9534 26.7999C30.9053 26.6954 30.8784 26.5824 30.8743 26.4675ZM32.2623 26.4675C32.2627 26.399 32.2494 26.3312 32.2231 26.268C32.1968 26.2048 32.1582 26.1475 32.1094 26.0995C32.0606 26.0515 32.0026 26.0138 31.939 25.9886C31.8754 25.9634 31.8073 25.9512 31.7389 25.9527C31.6718 25.9499 31.605 25.9615 31.5428 25.9868C31.4806 26.0121 31.4246 26.0504 31.3785 26.0993C31.3325 26.1481 31.2974 26.2062 31.2758 26.2697C31.2541 26.3332 31.2464 26.4007 31.2531 26.4675C31.2523 26.5361 31.2653 26.6043 31.2914 26.6678C31.3175 26.7314 31.3561 26.789 31.405 26.8373C31.4538 26.8856 31.5119 26.9236 31.5757 26.949C31.6395 26.9744 31.7078 26.9866 31.7765 26.9851C31.8436 26.987 31.9103 26.9747 31.9722 26.9489C32.0342 26.9231 32.0899 26.8845 32.1359 26.8356C32.1818 26.7867 32.2168 26.7285 32.2386 26.6651C32.2604 26.6016 32.2685 26.5343 32.2623 26.4675Z" fill="#3C8C30"/>
<path d="M32.9103 26.5657L32.8813 25.6606H33.2544L33.2833 26.5513C33.2833 26.8578 33.4337 26.985 33.6592 26.985C33.8848 26.985 34.012 26.8578 34.0033 26.5513L33.9715 25.6606H34.3388L34.3706 26.5657C34.3858 26.663 34.3784 26.7625 34.349 26.8565C34.3196 26.9505 34.269 27.0364 34.201 27.1077C34.1331 27.179 34.0497 27.2337 33.9572 27.2676C33.8648 27.3014 33.7658 27.3136 33.6679 27.3031C33.5679 27.3121 33.4671 27.2993 33.3725 27.2657C33.2779 27.2321 33.1917 27.1784 33.1198 27.1084C33.0478 27.0384 32.9918 26.9536 32.9557 26.86C32.9195 26.7663 32.904 26.6659 32.9103 26.5657Z" fill="#3C8C30"/>
<path d="M35.7929 27.2771L35.4661 26.826H35.122L35.1394 27.2771H34.7663L34.7085 25.6606H35.4083C35.8391 25.6606 36.1167 25.8862 36.1283 26.239C36.1377 26.3465 36.112 26.4541 36.0552 26.5458C35.9984 26.6375 35.9135 26.7084 35.8131 26.7479L36.1948 27.2684L35.7929 27.2771ZM35.3967 25.9672H35.1075L35.1278 26.5281H35.417C35.6454 26.5281 35.7553 26.424 35.7495 26.239C35.7437 26.0539 35.6252 25.9672 35.3967 25.9672Z" fill="#3C8C30"/>
<path d="M36.9845 26.4674C36.9785 26.3555 36.9964 26.2435 37.0369 26.139C37.0773 26.0345 37.1395 25.9397 37.2193 25.861C37.2991 25.7823 37.3947 25.7214 37.4998 25.6824C37.6049 25.6434 37.7171 25.6271 37.8289 25.6346C37.9555 25.6307 38.0814 25.6545 38.1978 25.7045C38.3142 25.7545 38.4183 25.8293 38.5027 25.9238L38.2713 26.1435C38.2202 26.0841 38.1567 26.0365 38.0853 26.004C38.0139 25.9716 37.9362 25.955 37.8578 25.9556C37.7901 25.952 37.7223 25.963 37.6592 25.9879C37.5961 26.0127 37.539 26.0508 37.4919 26.0996C37.4447 26.1484 37.4086 26.2067 37.3859 26.2707C37.3632 26.3346 37.3546 26.4027 37.3604 26.4703C37.36 26.5399 37.3737 26.6088 37.4006 26.673C37.4276 26.7371 37.4672 26.7951 37.5172 26.8435C37.5672 26.8919 37.6265 26.9296 37.6915 26.9544C37.7565 26.9793 37.8259 26.9906 37.8954 26.9879C37.9722 26.9895 38.0483 26.973 38.1176 26.9399C38.1869 26.9068 38.2475 26.8578 38.2945 26.7971L38.5402 27.0168C38.4616 27.1128 38.3615 27.189 38.2479 27.2393C38.1344 27.2895 38.0107 27.3124 37.8867 27.306C37.7723 27.3106 37.6581 27.2926 37.5507 27.2529C37.4433 27.2131 37.3448 27.1526 37.261 27.0746C37.1771 26.9967 37.1095 26.9029 37.062 26.7986C37.0146 26.6944 36.9882 26.5818 36.9845 26.4674Z" fill="#3C8C30"/>
<path d="M38.6384 26.4674C38.6337 26.355 38.6527 26.2429 38.6942 26.1384C38.7356 26.0338 38.7987 25.9392 38.8791 25.8607C38.9596 25.7821 39.0557 25.7214 39.1612 25.6824C39.2667 25.6435 39.3792 25.6271 39.4914 25.6346C39.6061 25.6287 39.7208 25.6457 39.8288 25.6845C39.9368 25.7233 40.0361 25.7832 40.1208 25.8607C40.2056 25.9382 40.2741 26.0317 40.3224 26.1358C40.3707 26.2399 40.3979 26.3526 40.4023 26.4674C40.4075 26.5799 40.3888 26.6924 40.3475 26.7972C40.3062 26.9021 40.2432 26.9971 40.1627 27.076C40.0822 27.1549 39.9859 27.2159 39.8802 27.255C39.7745 27.2941 39.6617 27.3105 39.5493 27.303C39.4344 27.3089 39.3195 27.2918 39.2113 27.2528C39.103 27.2138 39.0037 27.1537 38.9189 27.0759C38.8341 26.9981 38.7657 26.9043 38.7175 26.7998C38.6694 26.6953 38.6425 26.5823 38.6384 26.4674ZM40.0235 26.4674C40.0243 26.399 40.0113 26.3313 39.9854 26.2681C39.9594 26.2049 39.921 26.1476 39.8725 26.0996C39.8239 26.0515 39.7662 26.0138 39.7027 25.9885C39.6392 25.9633 39.5713 25.9511 39.503 25.9526C39.436 25.9498 39.3691 25.9614 39.3069 25.9867C39.2447 26.012 39.1887 26.0503 39.1427 26.0991C39.0966 26.1479 39.0615 26.2061 39.0399 26.2696C39.0183 26.3331 39.0105 26.4006 39.0172 26.4674C39.016 26.5359 39.0287 26.604 39.0545 26.6675C39.0802 26.731 39.1186 26.7887 39.1672 26.837C39.2158 26.8854 39.2737 26.9234 39.3374 26.9488C39.401 26.9742 39.4692 26.9865 39.5377 26.985C39.6049 26.9874 39.6718 26.9753 39.734 26.9497C39.7962 26.9241 39.8521 26.8855 39.8982 26.8365C39.9442 26.7875 39.9792 26.7292 40.0008 26.6655C40.0224 26.6018 40.0302 26.5343 40.0235 26.4674Z" fill="#3C8C30"/>
<path d="M40.6567 25.6607H41.3883C41.5023 25.6496 41.6173 25.662 41.7263 25.6971C41.8353 25.7323 41.9358 25.7895 42.0218 25.8651C42.1078 25.9408 42.1772 26.0333 42.226 26.1369C42.2747 26.2405 42.3016 26.353 42.305 26.4675C42.3114 26.5805 42.2929 26.6936 42.2507 26.7987C42.2085 26.9038 42.1437 26.9983 42.061 27.0756C41.9782 27.1528 41.8794 27.211 41.7717 27.2458C41.6639 27.2806 41.5498 27.2913 41.4375 27.2772H40.703L40.6567 25.6607ZM41.4172 26.9706C41.4855 26.9777 41.5544 26.9696 41.6191 26.947C41.6838 26.9243 41.7427 26.8876 41.7916 26.8396C41.8405 26.7915 41.8782 26.7332 41.902 26.6689C41.9257 26.6046 41.935 26.5358 41.9291 26.4675C41.9289 26.3978 41.9143 26.329 41.8862 26.2653C41.8581 26.2016 41.817 26.1444 41.7657 26.0974C41.7143 26.0503 41.6537 26.0145 41.5878 25.9921C41.5218 25.9697 41.4519 25.9612 41.3825 25.9672H41.0413L41.076 26.9706H41.4172Z" fill="#3C8C30"/>
<path d="M43.8549 26.9703V27.2595H42.6057L42.5479 25.6431H43.7681V25.9322H42.9411V26.2821H43.6901V26.5713H42.9411V26.9443L43.8549 26.9703Z" fill="#3C8C30"/>
<path d="M33.075 33.2773V33.9251H30.0417V33.4132L31.6552 31.8546C32.0485 31.47 32.115 31.23 32.1121 30.9871C32.1121 30.6112 31.8403 30.3914 31.3342 30.3914C31.1515 30.3822 30.9693 30.4165 30.8024 30.4914C30.6355 30.5663 30.4888 30.6797 30.3742 30.8223L29.8306 30.4088C30.0175 30.1802 30.2559 29.9991 30.5264 29.8805C30.7968 29.7619 31.0915 29.709 31.3863 29.7264C32.2827 29.7264 32.8697 30.1804 32.8813 30.9119C32.8813 31.311 32.783 31.6782 32.222 32.2161L31.1376 33.2658L33.075 33.2773Z" fill="#263238"/>
<path d="M36.4349 32.6871C36.4349 33.3811 35.9317 33.9826 34.8242 33.9826C34.2664 33.9925 33.7197 33.8255 33.2627 33.5055L33.5837 32.9098C33.9321 33.1787 34.361 33.3223 34.8011 33.3175C35.3476 33.3175 35.6686 33.0746 35.6686 32.6929C35.6686 32.3112 35.3794 32.077 34.7606 32.077H34.3847V31.5536L35.2782 30.4403H33.4015V29.7983H36.218V30.3131L35.2348 31.5044C36.0242 31.597 36.4349 32.0654 36.4349 32.6871Z" fill="#263238"/>
<path d="M40.2924 32.7539C40.2924 33.5202 39.6476 33.9973 38.6211 33.9973C37.5945 33.9973 36.9294 33.5202 36.9179 32.7539C36.9092 32.5432 36.9663 32.3351 37.0814 32.1583C37.1964 31.9816 37.3636 31.8451 37.5598 31.7678C37.3997 31.6867 37.2654 31.5625 37.1719 31.4093C37.0784 31.2561 37.0295 31.0798 37.0306 30.9003C37.0306 30.1919 37.6321 29.7437 38.5459 29.7437C39.4596 29.7437 40.0987 30.1861 40.1103 30.9003C40.1192 31.0788 40.0758 31.256 39.9854 31.4101C39.895 31.5642 39.7615 31.6886 39.6013 31.7678C39.8024 31.8435 39.976 31.9781 40.0993 32.1541C40.2226 32.33 40.2899 32.5391 40.2924 32.7539ZM39.5175 32.7308C39.5175 32.323 39.1531 32.0686 38.5864 32.0686C38.0196 32.0686 37.6813 32.323 37.6899 32.7308C37.6986 33.1385 38.0427 33.3958 38.6095 33.3958C39.1763 33.3958 39.5261 33.1356 39.5175 32.7163V32.7308ZM37.7825 30.9379C37.7825 31.2907 38.0716 31.5163 38.5719 31.5163C39.0722 31.5163 39.3584 31.2907 39.3498 30.9379C39.3411 30.5851 39.023 30.3596 38.5488 30.3596C38.0745 30.3596 37.7825 30.5504 37.7882 30.9235L37.7825 30.9379Z" fill="#263238"/>
<path d="M44.1387 32.7539C44.1387 33.5202 43.4938 33.9973 42.4673 33.9973C41.4407 33.9973 40.7728 33.5057 40.7728 32.7539C40.7645 32.5433 40.8218 32.3353 40.9368 32.1587C41.0518 31.9821 41.2188 31.8455 41.4147 31.7678C41.2545 31.6871 41.1202 31.5629 41.0272 31.4096C40.9341 31.2562 40.886 31.0797 40.8884 30.9003C40.874 30.1919 41.487 29.7437 42.4008 29.7437C43.3145 29.7437 43.9536 30.1861 43.9652 30.9003C43.9741 31.0788 43.9307 31.256 43.8403 31.4101C43.7499 31.5642 43.6164 31.6886 43.4562 31.7678C43.6557 31.8449 43.8274 31.9801 43.9491 32.1559C44.0708 32.3317 44.1368 32.5401 44.1387 32.7539ZM43.3637 32.7308C43.3637 32.323 42.9993 32.0686 42.4326 32.0686C41.8658 32.0686 41.5275 32.323 41.5362 32.7308C41.5448 33.1385 41.8889 33.3958 42.4557 33.3958C43.0225 33.3958 43.3753 33.1356 43.3753 32.7163L43.3637 32.7308ZM41.6287 30.9379C41.6287 31.2907 41.9323 31.5163 42.4181 31.5163C42.9039 31.5163 43.2047 31.2907 43.1989 30.9379C43.1931 30.5851 42.8692 30.3596 42.3979 30.3596C41.9265 30.3596 41.6403 30.5504 41.6403 30.9235L41.6287 30.9379Z" fill="#263238"/>
<path d="M22.6967 26.4818C22.6598 26.4818 22.6243 26.4678 22.5975 26.4425C22.5706 26.4173 22.5544 26.3827 22.5522 26.3459L22.0403 19.3567C22.0379 19.3188 22.0505 19.2815 22.0754 19.2528C22.1003 19.2241 22.1355 19.2064 22.1733 19.2034C22.2115 19.201 22.2492 19.2135 22.2783 19.2383C22.3075 19.2632 22.3258 19.2983 22.3295 19.3364L22.8442 26.3256C22.8458 26.3446 22.8436 26.3638 22.8378 26.3819C22.8319 26.4 22.8226 26.4169 22.8102 26.4314C22.7978 26.4459 22.7827 26.4578 22.7657 26.4665C22.7487 26.4751 22.7302 26.4803 22.7112 26.4818H22.6967Z" fill="#3C8C30"/>
<path d="M22.0865 18.151C22.0501 18.1512 22.015 18.1375 21.9882 18.1129C21.9613 18.0882 21.9448 18.0543 21.9419 18.018L21.806 16.1731C21.8047 16.1541 21.8071 16.1351 21.8132 16.117C21.8192 16.099 21.8287 16.0823 21.8412 16.0679C21.8664 16.0389 21.9021 16.0211 21.9405 16.0184C21.9788 16.0157 22.0167 16.0284 22.0457 16.0536C22.0747 16.0788 22.0925 16.1145 22.0952 16.1529L22.2311 17.9978C22.2335 18.0357 22.2209 18.073 22.196 18.1017C22.1711 18.1303 22.1359 18.1481 22.0981 18.151H22.0865Z" fill="#3C8C30"/>
<path d="M35.6744 9.35728C35.636 9.35728 35.5992 9.34205 35.5721 9.31493C35.545 9.28782 35.5298 9.25104 35.5298 9.2127V4.95904C35.5298 4.92069 35.545 4.88392 35.5721 4.8568C35.5992 4.82969 35.636 4.81445 35.6744 4.81445C35.7127 4.81445 35.7495 4.82969 35.7766 4.8568C35.8037 4.88392 35.819 4.92069 35.819 4.95904V9.2127C35.819 9.25104 35.8037 9.28782 35.7766 9.31493C35.7495 9.34205 35.7127 9.35728 35.6744 9.35728Z" fill="#3C8C30"/>
<path d="M32.3056 10.2593C32.2804 10.2592 32.2556 10.2524 32.2338 10.2397C32.212 10.227 32.1939 10.2089 32.1813 10.187L30.053 6.50302C30.0338 6.46966 30.0287 6.43005 30.0387 6.3929C30.0487 6.35575 30.0731 6.32411 30.1065 6.30494C30.1398 6.28577 30.1795 6.28063 30.2166 6.29066C30.2537 6.3007 30.2854 6.32507 30.3046 6.35843L32.4299 10.0424C32.4397 10.0587 32.4461 10.0767 32.4488 10.0955C32.4515 10.1143 32.4504 10.1334 32.4455 10.1518C32.4407 10.1701 32.4322 10.1873 32.4206 10.2023C32.4089 10.2173 32.3944 10.2298 32.3779 10.2391C32.3558 10.2515 32.331 10.2584 32.3056 10.2593Z" fill="#3C8C30"/>
<path d="M39.0373 10.2593C39.0122 10.2594 38.9874 10.2535 38.965 10.242C38.932 10.2221 38.9081 10.1901 38.8983 10.1528C38.8886 10.1155 38.8939 10.0759 38.913 10.0424L41.0384 6.35843C41.0575 6.32507 41.0892 6.3007 41.1263 6.29066C41.1635 6.28063 41.2031 6.28577 41.2364 6.30494C41.2698 6.32411 41.2942 6.35575 41.3042 6.3929C41.3142 6.43005 41.3091 6.46966 41.2899 6.50302L39.1674 10.1986C39.1529 10.2192 39.1333 10.2356 39.1104 10.2462C39.0876 10.2569 39.0624 10.2614 39.0373 10.2593Z" fill="#3C8C30"/>
<path d="M88.8701 102.695C88.5668 96.643 89.1592 90.5792 90.6282 84.7002L90.9174 84.7696C89.4559 90.6213 88.8654 96.6566 89.165 102.681L88.8701 102.695Z" fill="#3C8C30"/>
<path d="M89.4163 84.4862C89.4163 85.024 89.9137 86.9354 90.4544 86.921C90.9952 86.9065 91.3856 84.9778 91.3711 84.437C91.3679 84.3087 91.3394 84.1822 91.2873 84.0648C91.2352 83.9475 91.1605 83.8416 91.0675 83.7531C90.9744 83.6646 90.8649 83.5953 90.745 83.5492C90.6252 83.5031 90.4975 83.481 90.3691 83.4842C90.2408 83.4874 90.1143 83.5159 89.997 83.568C89.8796 83.6201 89.7737 83.6948 89.6852 83.7878C89.5967 83.8809 89.5275 83.9904 89.4813 84.1103C89.4352 84.2301 89.4131 84.3578 89.4163 84.4862Z" fill="#3C8C30"/>
<path d="M91.5185 90.5559C91.5185 90.0152 91.0211 88.1066 90.4833 88.1182C89.9454 88.1298 89.5522 90.0614 89.5637 90.6022C89.5668 90.7305 89.5951 90.857 89.647 90.9744C89.6989 91.0919 89.7734 91.1979 89.8664 91.2865C89.9593 91.3751 90.0687 91.4446 90.1885 91.4909C90.3082 91.5372 90.4359 91.5595 90.5642 91.5564C90.6926 91.5534 90.8191 91.5251 90.9365 91.4732C91.0539 91.4213 91.16 91.3467 91.2486 91.2538C91.3372 91.1609 91.4066 91.0514 91.453 90.9317C91.4993 90.8119 91.5215 90.6843 91.5185 90.5559Z" fill="#3C8C30"/>
<path d="M87.4329 88.5636C87.9737 88.5636 89.8822 88.0662 89.8677 87.5255C89.8533 86.9847 87.9274 86.5943 87.3867 86.6088C87.2583 86.6118 87.1318 86.6401 87.0144 86.692C86.897 86.744 86.7909 86.8185 86.7023 86.9114C86.6137 87.0043 86.5443 87.1138 86.498 87.2335C86.4516 87.3533 86.4294 87.481 86.4324 87.6093C86.4354 87.7377 86.4637 87.8642 86.5157 87.9816C86.5676 88.099 86.6421 88.205 86.735 88.2937C86.8279 88.3823 86.9374 88.4517 87.0571 88.498C87.1769 88.5443 87.3046 88.5666 87.4329 88.5636Z" fill="#3C8C30"/>
<path d="M93.5023 86.47C92.9644 86.47 91.053 86.9674 91.0675 87.5053C91.0819 88.0431 93.0107 88.4364 93.5514 88.4248C93.6798 88.4216 93.8062 88.3931 93.9236 88.341C94.0409 88.2889 94.1469 88.2142 94.2353 88.1212C94.3238 88.0281 94.3931 87.9186 94.4392 87.7987C94.4854 87.6789 94.5075 87.5512 94.5042 87.4228C94.501 87.2945 94.4725 87.168 94.4204 87.0507C94.3683 86.9333 94.2936 86.8274 94.2006 86.7389C94.1075 86.6504 93.998 86.5812 93.8782 86.535C93.7583 86.4889 93.6306 86.4668 93.5023 86.47Z" fill="#3C8C30"/>
<path d="M87.5773 86.1173C87.9706 86.4903 89.6622 87.4995 90.0353 87.1062C90.4083 86.713 89.3181 85.082 88.9277 84.7032C88.7402 84.5242 88.4893 84.4269 88.23 84.4329C87.9708 84.4388 87.7246 84.5475 87.5455 84.7351C87.3664 84.9226 87.2692 85.1735 87.2752 85.4328C87.2811 85.692 87.3898 85.9382 87.5773 86.1173Z" fill="#3C8C30"/>
<path d="M93.358 88.9221C92.9676 88.5491 91.276 87.5428 90.9029 87.9332C90.5299 88.3235 91.6172 89.9573 92.0075 90.3391C92.1006 90.4277 92.2102 90.4972 92.3301 90.5435C92.45 90.5898 92.5778 90.6121 92.7063 90.609C92.8348 90.6059 92.9614 90.5775 93.0789 90.5255C93.1964 90.4735 93.3025 90.3988 93.3912 90.3058C93.4799 90.2128 93.5494 90.1032 93.5957 89.9833C93.642 89.8634 93.6642 89.7356 93.6612 89.6071C93.6581 89.4786 93.6297 89.352 93.5777 89.2344C93.5257 89.1169 93.451 89.0108 93.358 88.9221Z" fill="#3C8C30"/>
<path d="M89.0636 90.411C89.4366 90.0177 90.4429 88.3261 90.0526 87.9531C89.6622 87.58 88.0284 88.6702 87.6467 89.0606C87.4676 89.2485 87.3705 89.4998 87.3767 89.7593C87.383 90.0188 87.492 90.2652 87.6799 90.4442C87.8678 90.6233 88.1192 90.7204 88.3787 90.7142C88.6381 90.7079 88.8845 90.5989 89.0636 90.411Z" fill="#3C8C30"/>
<path d="M91.8713 84.6306C91.4983 85.0209 90.4891 86.7126 90.8824 87.0856C91.2757 87.4586 92.9066 86.3713 93.2854 85.981C93.374 85.8881 93.4436 85.7787 93.4899 85.659C93.5363 85.5393 93.5587 85.4116 93.5557 85.2833C93.5528 85.1549 93.5246 85.0284 93.4727 84.911C93.4209 84.7935 93.3464 84.6874 93.2536 84.5987C93.1607 84.5101 93.0513 84.4406 92.9316 84.3942C92.8119 84.3478 92.6842 84.3254 92.5559 84.3284C92.4275 84.3313 92.301 84.3595 92.1835 84.4114C92.0661 84.4632 91.96 84.5377 91.8713 84.6306Z" fill="#3C8C30"/>
<path d="M89.3095 87.5487C89.3152 87.7772 89.3886 87.9989 89.5203 88.1858C89.652 88.3727 89.8361 88.5163 90.0494 88.5986C90.2627 88.6809 90.4956 88.6981 90.7187 88.6481C90.9418 88.5981 91.145 88.4832 91.3028 88.3177C91.4606 88.1523 91.5658 87.9438 91.6052 87.7186C91.6445 87.4934 91.6163 87.2616 91.5239 87.0524C91.4316 86.8433 91.2794 86.6662 91.0865 86.5435C90.8936 86.4208 90.6687 86.358 90.4401 86.3631C90.2879 86.3665 90.1379 86.3998 89.9987 86.4613C89.8595 86.5227 89.7337 86.6111 89.6287 86.7212C89.5237 86.8313 89.4414 86.9611 89.3866 87.1031C89.3318 87.2451 89.3056 87.3965 89.3095 87.5487Z" fill="white"/>
<path d="M89.1445 96.154C89.1445 96.154 89.3441 93.2016 90.9663 92.736C92.5885 92.2704 93.1813 91.6343 93.1813 91.6343C93.1813 91.6343 93.0165 96.2118 89.1445 96.154Z" fill="#3C8C30"/>
<path opacity="0.5" d="M89.1445 96.154C89.1445 96.154 89.3441 93.2016 90.9663 92.736C92.5885 92.2704 93.1813 91.6343 93.1813 91.6343C93.1813 91.6343 93.0165 96.2118 89.1445 96.154Z" fill="white"/>
<path d="M88.9303 98.4152C88.9303 98.4152 88.7308 95.4628 87.1086 94.9943C85.4863 94.5259 84.8936 93.8955 84.8936 93.8955C84.8936 93.8955 85.0584 98.473 88.9303 98.4152Z" fill="#3C8C30"/>
<path opacity="0.5" d="M88.9303 98.4152C88.9303 98.4152 88.7308 95.4628 87.1086 94.9943C85.4863 94.5259 84.8936 93.8955 84.8936 93.8955C84.8936 93.8955 85.0584 98.473 88.9303 98.4152Z" fill="white"/>
<path d="M95.0494 104.566C95.0494 106.88 92.3052 108.736 88.9219 108.736C85.5386 108.736 82.7944 106.871 82.7944 104.566C82.7944 103.41 83.4971 102.345 84.6335 101.591C85.3496 101.124 86.1456 100.792 86.9816 100.613H90.8622C91.7198 100.798 92.535 101.142 93.2652 101.628C94.3698 102.383 95.0494 103.418 95.0494 104.566Z" fill="#3C8C30"/>
<path opacity="0.8" d="M90.8622 100.613C91.7198 100.798 92.535 101.142 93.2652 101.628C94.3698 102.383 95.0494 103.418 95.0494 104.566C95.0494 106.88 92.3052 108.736 88.9219 108.736C85.5386 108.736 82.7944 106.871 82.7944 104.566C82.7944 103.41 83.4971 102.345 84.6335 101.591C85.3496 101.124 86.1456 100.792 86.9816 100.613H90.8622Z" fill="white"/>
<path d="M89.0841 100.989H88.7949V103.051H89.0841V100.989Z" fill="#3C8C30"/>
<path d="M93.534 100.549L93.2102 101.561L93.2044 101.573H84.6363L84.619 101.518L84.3096 100.549H93.534Z" fill="#3C8C30"/>
<path d="M94.3267 105.405C93.7127 106.256 92.9062 106.949 91.9728 107.429C90.501 108.21 84.3099 108.409 83.6014 104.899C83.6014 104.849 83.5754 104.8 83.5667 104.751C83.5357 104.534 83.5546 104.312 83.622 104.103C83.6894 103.894 83.8036 103.703 83.9557 103.545C84.1079 103.387 84.2941 103.265 84.5003 103.189C84.7065 103.114 84.9272 103.086 85.1456 103.109C85.7325 103.148 86.322 103.115 86.9008 103.01C89.1236 102.674 91.3918 102.795 93.5662 103.366C93.7722 103.421 93.9621 103.524 94.12 103.667C94.2779 103.81 94.3991 103.989 94.4736 104.189C94.5481 104.388 94.5737 104.603 94.5481 104.815C94.5225 105.026 94.4466 105.228 94.3267 105.405Z" fill="#263238"/>
<path d="M49.8841 104.236C49.9382 104.215 49.9862 104.181 50.0235 104.136C50.0609 104.092 50.0866 104.039 50.0981 103.982C50.1091 103.947 50.1106 103.911 50.1025 103.876C50.0943 103.84 50.0768 103.808 50.0518 103.782C49.8291 103.551 48.924 103.716 48.8228 103.736C48.8111 103.737 48.7999 103.742 48.7911 103.749C48.7822 103.757 48.7761 103.768 48.7737 103.779C48.7714 103.791 48.7723 103.802 48.7764 103.813C48.7805 103.824 48.7876 103.833 48.7968 103.84C48.9773 103.972 49.1711 104.084 49.3751 104.175C49.5324 104.255 49.7126 104.276 49.8841 104.236ZM49.965 103.863C49.9757 103.875 49.9829 103.89 49.986 103.906C49.989 103.921 49.9878 103.938 49.9824 103.953C49.9758 103.991 49.9595 104.026 49.9352 104.056C49.9109 104.086 49.8794 104.109 49.8436 104.123C49.6788 104.184 49.3636 104.071 48.9761 103.834C49.352 103.771 49.8465 103.739 49.965 103.863Z" fill="#3C8C30"/>
<path d="M48.8404 103.852C49.1296 103.817 49.7542 103.49 49.8091 103.207C49.8188 103.161 49.8119 103.112 49.7897 103.071C49.7675 103.029 49.7314 102.996 49.6877 102.978C49.647 102.956 49.6019 102.942 49.5554 102.939C49.509 102.935 49.4624 102.942 49.4188 102.958C49.0718 103.077 48.7884 103.742 48.7768 103.771C48.7727 103.78 48.7705 103.79 48.7705 103.8C48.7705 103.81 48.7727 103.819 48.7768 103.829C48.7836 103.837 48.7925 103.844 48.8028 103.849L48.8404 103.852ZM49.627 103.082C49.6964 103.12 49.6993 103.158 49.6935 103.184C49.6588 103.357 49.2337 103.626 48.9359 103.71C49.0429 103.493 49.2511 103.132 49.4593 103.068C49.5056 103.049 49.5575 103.049 49.6038 103.068L49.627 103.082Z" fill="#3C8C30"/>
<path d="M46.0962 102.686L48.45 103.638L50.506 98.1984L48.1493 97.2471L46.0962 102.686Z" fill="#FF9A6C"/>
<path d="M48.7479 103.444L46.1049 102.377C46.0598 102.357 46.0092 102.354 45.9624 102.369C45.9156 102.384 45.8758 102.416 45.8504 102.458L44.6937 104.395C44.6664 104.445 44.65 104.5 44.6457 104.557C44.6414 104.613 44.6492 104.67 44.6686 104.724C44.688 104.777 44.7187 104.826 44.7584 104.866C44.7981 104.907 44.8461 104.939 44.899 104.959C45.8301 105.318 46.2957 105.442 47.4582 105.913C48.1753 106.203 49.1932 106.697 50.1763 107.099C51.1595 107.501 51.6222 106.558 51.2434 106.304C49.5633 105.167 49.5084 104.511 49.0891 103.747C49.0143 103.609 48.8936 103.502 48.7479 103.444Z" fill="#263238"/>
<path d="M50.4741 100.867L46.3853 99.2132L46.7612 97.7153L51.1479 99.3202L50.4741 100.867Z" fill="#3C8C30"/>
<path d="M54.5688 37.91C53.7389 40.313 51.2838 45.9691 49.3898 43.6124C49.0488 43.1961 48.7702 42.7324 48.5628 42.236C47.7618 40.2552 47.5622 37.0454 47.461 36.3427L46.8162 34.1422C46.8048 34.1047 46.7989 34.0657 46.7988 34.0265V32.7686C46.7988 32.2597 47.2094 31.956 47.7646 32.0023C47.7646 32.0023 48.6611 31.8982 48.6611 32.4332L48.8346 34.3214C48.9242 34.9779 48.664 35.8916 48.8172 36.4931C49.3956 38.7573 50.1908 38.8614 50.691 41.1979C51.3879 39.512 52.6342 36.5943 52.6342 36.5943C53.4613 36.6984 54.8406 37.1206 54.5688 37.91Z" fill="#FF9A6C"/>
<path d="M51.6021 44.4739C51.472 44.6768 51.2946 44.8451 51.0851 44.9643C50.8756 45.0835 50.6404 45.1501 50.3995 45.1583C50.1586 45.1666 49.9193 45.1162 49.7022 45.0116C49.485 44.907 49.2965 44.7513 49.1528 44.5578C48.8101 44.1023 48.5408 43.5958 48.3547 43.057C47.6029 40.5904 47.1373 39.0636 47.0737 36.4871C47.3402 36.2178 47.6768 36.0287 48.0454 35.9413C48.414 35.8539 48.7997 35.8717 49.1586 35.9926L50.3905 40.1653C50.3905 40.1653 52.8976 33.9337 53.9126 33.7111C55.1068 33.4479 55.6042 34.5149 56.1102 35.8278C56.4746 36.7705 53.2359 41.9552 51.6021 44.4739Z" fill="#3C8C30"/>
<path d="M61.7317 27.4736C61.4425 28.9195 60.8121 32.0772 61.8242 33.043C61.8242 33.043 61.428 34.5091 58.7417 34.5091C55.7835 34.5091 57.3276 33.043 57.3276 33.043C58.9412 32.6584 58.8978 31.4613 58.6173 30.3364L61.7317 27.4736Z" fill="#FF9A6C"/>
<path d="M57.2118 24.0789C57.2291 24.0816 57.2466 24.0816 57.2639 24.0789C57.2906 24.0642 57.3106 24.0398 57.3197 24.0107C57.3289 23.9816 57.3265 23.9501 57.313 23.9228C57.2358 23.7566 57.1194 23.6117 56.9738 23.5004C56.8283 23.3891 56.6579 23.3148 56.4774 23.2837C56.4623 23.2817 56.447 23.2827 56.4324 23.2868C56.4177 23.2908 56.4041 23.2978 56.3922 23.3072C56.3803 23.3167 56.3705 23.3284 56.3632 23.3418C56.356 23.3551 56.3515 23.3698 56.3501 23.3849C56.3481 23.4 56.3492 23.4153 56.3532 23.4299C56.3572 23.4445 56.3642 23.4582 56.3736 23.4701C56.3831 23.482 56.3948 23.4918 56.4082 23.499C56.4215 23.5063 56.4362 23.5107 56.4513 23.5122C56.5937 23.5399 56.7274 23.601 56.8415 23.6905C56.9556 23.78 57.0468 23.8953 57.1077 24.0269C57.1189 24.044 57.1345 24.0578 57.1528 24.0669C57.1711 24.0761 57.1914 24.0802 57.2118 24.0789Z" fill="#263238"/>
<path d="M56.3296 25.3281C56.1008 25.7509 55.8147 26.1402 55.4795 26.4848C55.5703 26.568 55.6781 26.6305 55.7954 26.6679C55.9127 26.7054 56.0368 26.7169 56.159 26.7017L56.3296 25.3281Z" fill="#ED893E"/>
<path d="M56.561 24.906C56.6044 25.0969 56.535 25.2761 56.4107 25.3022C56.2863 25.3282 56.1475 25.1952 56.107 25.013C56.0666 24.8308 56.1331 24.6429 56.2603 24.614C56.3875 24.585 56.5205 24.7123 56.561 24.906Z" fill="#263238"/>
<path d="M56.3182 24.605L55.8267 24.5703C55.8267 24.5703 56.1419 24.8797 56.3182 24.605Z" fill="#263238"/>
<path opacity="0.2" d="M54.4646 36.6781C54.9765 36.2067 55.3321 36.3484 55.5577 36.7215C55.7919 37.803 54.401 40.07 53.8545 40.9289L54.4646 36.6781Z" fill="black"/>
<path d="M66.3063 38.1037C66.2398 39.295 66.127 40.7958 65.9448 42.6841C65.754 44.6764 65.4822 47.0968 65.1091 50.0376C61.1793 50.0376 57.0645 49.9769 55.1531 49.9769C55.315 46.0702 55.3729 42.1115 53.6205 34.3387C53.5985 34.2423 53.5962 34.1425 53.6135 34.0452C53.6309 33.9479 53.6676 33.8551 53.7216 33.7723C53.7755 33.6895 53.8456 33.6184 53.9276 33.5632C54.0096 33.508 54.1018 33.4698 54.1988 33.451C55.3412 33.2439 56.4952 33.1077 57.6544 33.0432C59.1513 32.9361 60.654 32.9361 62.1509 33.0432C64.0797 33.2196 66.2716 33.6678 66.2716 33.6678C66.2716 33.6678 66.5087 34.385 66.3063 38.1037Z" fill="#3C8C30"/>
<path opacity="0.2" d="M66.3064 38.1034C66.2399 39.2948 66.1271 40.7956 65.9449 42.6838C64.8865 41.4578 63.886 37.2359 64.2099 35.793C64.9988 36.3764 65.6924 37.0788 66.2659 37.875C66.2835 37.9503 66.297 38.0266 66.3064 38.1034Z" fill="black"/>
<path d="M76.511 43.3953L78.5352 42.2617L78.9111 44.3235C78.9111 44.3235 77.205 44.9799 76.3086 44.5201L76.511 43.3953Z" fill="#FF9A6C"/>
<path d="M79.8739 42.4959L80.0156 43.1696C80.0364 43.2729 80.0264 43.3801 79.9868 43.4778C79.9472 43.5755 79.8798 43.6594 79.7929 43.719L78.9023 44.3205L78.5264 42.2587L79.2233 42.0852C79.293 42.0678 79.3656 42.0647 79.4366 42.076C79.5076 42.0874 79.5756 42.1131 79.6364 42.1515C79.6972 42.1898 79.7496 42.2401 79.7904 42.2993C79.8312 42.3585 79.8596 42.4254 79.8739 42.4959Z" fill="#FF9A6C"/>
<path d="M64.3687 36.0563C65.0135 37.3691 67.3789 42.3283 68.417 43.4734L68.6223 43.6874L68.7235 43.7944C68.7582 43.8291 68.7871 43.8609 68.8421 43.9101C69.0287 44.0873 69.2343 44.2435 69.4551 44.3756C69.8495 44.6034 70.2739 44.7748 70.7159 44.8846C71.4908 45.0643 72.2864 45.1392 73.0813 45.1072C74.5624 45.048 76.0298 44.7992 77.4477 44.367L77.2077 43.164C76.5397 43.2219 75.8399 43.2623 75.1633 43.2739C74.4927 43.2937 73.8216 43.2724 73.1536 43.2103C72.5342 43.1658 71.9225 43.0464 71.3318 42.8546C71.0932 42.7744 70.8673 42.6605 70.6609 42.5163C70.5819 42.4608 70.5092 42.3968 70.4441 42.3254C70.4212 42.3018 70.4 42.2767 70.3805 42.2503L70.3053 42.1606L70.152 41.9813C69.3539 40.9808 67.2459 36.1575 66.6126 34.9517L64.3687 36.0563Z" fill="#FF9A6C"/>
<path d="M76.479 45.4484C74.8124 46.3341 72.8628 46.5233 71.0571 45.9747C69.3345 45.4207 67.8813 44.2428 66.9827 42.6724C65.9388 41.1369 63.1599 36.7936 63.5127 35.6716C63.9262 34.3299 64.8053 33.4971 66.2742 33.8585C67.3066 34.1072 69.2758 39.1214 70.23 41.1253C70.6031 41.6834 71.3202 42.5711 72.1212 42.843C73.5352 43.3317 74.5762 43.1321 76.0568 42.9095C76.3286 43.0714 76.3083 43.323 76.4443 43.6035C76.5902 43.888 76.6692 44.2022 76.6752 44.5219C76.6812 44.8416 76.6141 45.1585 76.479 45.4484Z" fill="#3C8C30"/>
<path d="M63.1891 25.1577C62.7467 27.5346 62.6108 28.5496 61.2459 29.6311C59.1986 31.2562 56.3734 30.1921 56.0987 27.7284C55.85 25.5105 56.6163 21.9942 59.08 21.332C59.6226 21.1831 60.1941 21.1754 60.7404 21.3097C61.2868 21.4439 61.7897 21.7156 62.2014 22.0989C62.6132 22.4823 62.9201 22.9646 63.0929 23.4999C63.2658 24.0353 63.2989 24.6059 63.1891 25.1577Z" fill="#FF9A6C"/>
<path d="M71.627 38.3176C71.173 38.8352 71.0313 39.1359 70.398 39.4164C69.7647 39.6969 68.3941 39.4511 67.9574 38.9161C68.0991 39.3325 68.9261 40.0728 69.3599 40.1393C68.8703 40.4078 68.3039 40.5014 67.7541 40.4046C67.2042 40.3079 66.7037 40.0267 66.3352 39.6073C66.3957 39.8681 66.5221 40.109 66.7024 40.3069C66.8826 40.5049 67.1106 40.6533 67.3646 40.7379C61.8242 40.8825 64.1577 38.2742 60.6877 34.5642C56.8476 30.458 57.6804 27.0632 57.6804 27.0632C57.6896 26.2176 57.4248 25.3918 56.9257 24.7093C56.3705 23.998 56.5324 23.0379 56.7088 22.5001C56.9661 21.7107 57.7498 21.4331 58.5016 21.3868C58.6346 20.6089 60.2366 20.7506 60.4304 20.8807C60.6241 21.0109 60.6472 20.9848 60.8236 20.8807C61.214 20.6292 62.1972 20.3689 63.2498 21.2191C63.8917 21.7396 64.5799 22.6649 64.6031 24.6544C64.6262 26.7162 63.6401 29.1654 67.0523 32.2971C69.062 34.1362 68.0991 38.1007 71.627 38.3176Z" fill="#263238"/>
<path d="M57.2235 25.3367C56.9547 25.718 56.8428 26.1881 56.9112 26.6495C57.0095 27.2597 57.6023 27.3002 58.0332 26.9098C58.4641 26.5194 58.84 25.8138 58.5219 25.3078C58.2038 24.8018 57.559 24.8741 57.2235 25.3367Z" fill="#FF9A6C"/>
<path d="M62.5905 50.0349C62.5905 50.0349 61.4078 66.636 60.0776 77.5839C59.6776 80.8696 58.6758 84.0534 57.1223 86.9761L50.6045 99.2831L47.2617 97.9674C47.2617 97.9674 49.5751 86.2705 54.0832 79.8915C54.0832 79.8915 50.7115 60.8266 55.1242 49.9771L62.5905 50.0349Z" fill="#263238"/>
<path opacity="0.2" d="M58.0445 54.0571C58.0445 54.0571 59.0392 61.5755 59.5829 66.0489C57.5442 63.3597 55.9625 59.6063 58.0445 54.0571Z" fill="black"/>
<path d="M71.0311 105.795C71.0699 105.752 71.0968 105.699 71.109 105.642C71.1211 105.586 71.1182 105.527 71.1005 105.471C71.0938 105.436 71.0776 105.403 71.0537 105.376C71.0298 105.349 70.999 105.329 70.9646 105.318C70.6552 105.214 69.9351 105.778 69.8542 105.841C69.8452 105.849 69.8386 105.859 69.835 105.87C69.8315 105.882 69.8311 105.894 69.8339 105.905C69.8376 105.916 69.8441 105.925 69.8528 105.932C69.8614 105.939 69.8719 105.944 69.8831 105.945C70.1079 105.98 70.3359 105.988 70.5626 105.971C70.7345 105.969 70.9 105.906 71.0311 105.795ZM70.9241 105.431C70.9395 105.435 70.9533 105.444 70.9636 105.457C70.9739 105.469 70.9803 105.484 70.9819 105.5C70.9946 105.536 70.9976 105.575 70.9905 105.613C70.9834 105.65 70.9665 105.685 70.9414 105.714C70.8258 105.844 70.4961 105.891 70.045 105.844C70.34 105.624 70.7621 105.373 70.9241 105.431Z" fill="#3C8C30"/>
<path d="M69.9263 105.937C70.1547 105.778 70.5625 105.196 70.4757 104.922C70.4619 104.876 70.4329 104.836 70.3934 104.809C70.3539 104.783 70.3064 104.77 70.2588 104.774C70.2128 104.773 70.167 104.782 70.1246 104.799C70.0822 104.817 70.0441 104.844 70.013 104.878C69.7615 105.144 69.828 105.861 69.8309 105.893C69.8326 105.904 69.8366 105.913 69.8426 105.922C69.8486 105.93 69.8565 105.937 69.8656 105.942C69.876 105.945 69.8869 105.945 69.8974 105.942C69.9074 105.943 69.9175 105.941 69.9263 105.937ZM70.2559 104.893C70.334 104.893 70.3542 104.927 70.3629 104.953C70.4121 105.124 70.1663 105.555 69.9436 105.766C69.91 105.487 69.9646 105.205 70.0998 104.959C70.1326 104.923 70.1781 104.9 70.227 104.896L70.2559 104.893Z" fill="#3C8C30"/>
<path d="M66.9483 106.171L69.4814 105.928L68.7065 100.173L66.1733 100.419L66.9483 106.171Z" fill="#FF9A6C"/>
<path d="M69.6517 105.624L66.8063 105.899C66.7573 105.902 66.7114 105.924 66.6773 105.959C66.6432 105.994 66.6232 106.041 66.6212 106.09L66.5171 108.337C66.5171 108.394 66.5292 108.45 66.5526 108.502C66.5759 108.554 66.61 108.601 66.6526 108.639C66.6952 108.677 66.7453 108.705 66.7997 108.722C66.8541 108.74 66.9115 108.745 66.9682 108.739C67.9571 108.629 68.414 108.525 69.6806 108.403C70.4498 108.328 71.5833 108.299 72.6474 108.198C73.7116 108.097 73.6624 107.056 73.2258 107.004C71.2016 106.775 70.8286 106.226 70.1057 105.737C69.972 105.648 69.8115 105.608 69.6517 105.624Z" fill="#263238"/>
<path d="M65.0947 50.0317C65.0947 50.0317 68.3363 69.8426 68.958 81.5771L69.0766 102.6L66.4538 103.111C66.4538 103.111 62.6571 89.6998 62.2175 81.9472C61.0609 61.3816 54.3608 61.3469 58.3918 49.9941L65.0947 50.0317Z" fill="#263238"/>
<path d="M69.9469 102.686L65.6065 103.279L65.1641 101.614L69.8052 101.009L69.9469 102.686Z" fill="#3C8C30"/>
<path d="M46.5561 28.7778H46.721C46.6817 28.7778 46.6429 28.7857 46.6069 28.8011C46.5708 28.8166 46.5382 28.8392 46.5112 28.8676C46.4841 28.896 46.4632 28.9296 46.4495 28.9664C46.4359 29.0031 46.4298 29.0423 46.4318 29.0815L46.6978 34.1159C46.7057 34.1949 46.7426 34.2682 46.8013 34.3216C46.8601 34.375 46.9365 34.4047 47.0159 34.405H46.8453C46.7661 34.4041 46.69 34.3741 46.6314 34.3208C46.5727 34.2676 46.5357 34.1946 46.5272 34.1159L46.267 29.0815C46.265 29.0423 46.271 29.0031 46.2847 28.9664C46.2983 28.9296 46.3193 28.896 46.3464 28.8676C46.3734 28.8392 46.406 28.8166 46.442 28.8011C46.4781 28.7857 46.5169 28.7778 46.5561 28.7778Z" fill="#3C8C30"/>
<path opacity="0.1" d="M46.5561 28.7778H46.721C46.6817 28.7778 46.6429 28.7857 46.6069 28.8011C46.5708 28.8166 46.5382 28.8392 46.5112 28.8676C46.4841 28.896 46.4632 28.9296 46.4495 28.9664C46.4359 29.0031 46.4298 29.0423 46.4318 29.0815L46.6978 34.1159C46.7057 34.1949 46.7426 34.2682 46.8013 34.3216C46.8601 34.375 46.9365 34.4047 47.0159 34.405H46.8453C46.7661 34.4041 46.69 34.3741 46.6314 34.3208C46.5727 34.2676 46.5357 34.1946 46.5272 34.1159L46.267 29.0815C46.265 29.0423 46.271 29.0031 46.2847 28.9664C46.2983 28.9296 46.3193 28.896 46.3464 28.8676C46.3734 28.8392 46.406 28.8166 46.442 28.8011C46.4781 28.7857 46.5169 28.7778 46.5561 28.7778Z" fill="white"/>
<path d="M46.8887 34.4197H48.9129C48.9896 34.4197 49.0631 34.3892 49.1174 34.335C49.1716 34.2808 49.2021 34.2072 49.2021 34.1305L48.9389 29.0961C48.9338 29.0148 48.8983 28.9383 48.8393 28.882C48.7803 28.8258 48.7023 28.7938 48.6208 28.7925H46.5967C46.5574 28.7924 46.5186 28.8004 46.4826 28.8158C46.4465 28.8312 46.4139 28.8538 46.3869 28.8822C46.3599 28.9106 46.3389 28.9442 46.3252 28.981C46.3116 29.0178 46.3055 29.0569 46.3075 29.0961L46.5706 34.1305C46.5791 34.2093 46.6162 34.2822 46.6748 34.3355C46.7334 34.3888 46.8095 34.4187 46.8887 34.4197Z" fill="#3C8C30"/>
<path opacity="0.4" d="M46.8887 34.4197H48.9129C48.9896 34.4197 49.0631 34.3892 49.1174 34.335C49.1716 34.2808 49.2021 34.2072 49.2021 34.1305L48.9389 29.0961C48.9338 29.0148 48.8983 28.9383 48.8393 28.882C48.7803 28.8258 48.7023 28.7938 48.6208 28.7925H46.5967C46.5574 28.7924 46.5186 28.8004 46.4826 28.8158C46.4465 28.8312 46.4139 28.8538 46.3869 28.8822C46.3599 28.9106 46.3389 28.9442 46.3252 28.981C46.3116 29.0178 46.3055 29.0569 46.3075 29.0961L46.5706 34.1305C46.5791 34.2093 46.6162 34.2822 46.6748 34.3355C46.7334 34.3888 46.8095 34.4187 46.8887 34.4197Z" fill="white"/>
<path d="M49.0802 34.0117C49.0818 34.037 49.0783 34.0623 49.0698 34.0862C49.0614 34.11 49.0482 34.1319 49.0311 34.1505C48.9947 34.1859 48.9459 34.2057 48.8952 34.2055H46.9259C46.8709 34.2048 46.8181 34.1832 46.7784 34.1451C46.7386 34.107 46.7149 34.0552 46.712 34.0002L46.4546 29.1161C46.4527 29.0913 46.4561 29.0663 46.4646 29.0429C46.4731 29.0195 46.4864 28.9981 46.5038 28.9802C46.5211 28.9616 46.5422 28.9469 46.5656 28.9369C46.589 28.9269 46.6142 28.922 46.6397 28.9224H48.6089C48.664 28.923 48.7167 28.9446 48.7565 28.9827C48.7962 29.0209 48.82 29.0727 48.8229 29.1277L48.8402 29.4776L49.0802 34.0117Z" fill="#263238"/>
<g opacity="0.1">
<path d="M48.8405 29.4775L48.187 34.1996H47.4033L48.1436 28.9165H48.6092C48.6642 28.9172 48.717 28.9387 48.7567 28.9769C48.7965 29.015 48.8202 29.0668 48.8231 29.1218L48.8405 29.4775Z" fill="white"/>
<path d="M47.1198 34.2055H46.9434L47.6836 28.9224H47.86L47.1198 34.2055Z" fill="white"/>
</g>
<path d="M54.514 50.5954C53.0417 53.4972 52.2505 56.6965 52.2007 59.95C57.1165 63.7641 61.6941 59.2965 67.3213 60.0512C67.1246 57.5094 66.26 52.822 65.2364 50.474C61.509 50.633 58.0274 50.26 54.514 50.5954Z" fill="#3C8C30"/>
<path d="M55.0258 49.5634C55.0258 49.5634 54.6296 50.5841 54.7366 50.5841H65.0628C65.1524 50.5841 65.2247 50.5408 65.2305 50.4829L65.3201 49.6154C65.3201 49.5547 65.2479 49.5027 65.1524 49.5027H55.1877C55.1578 49.4986 55.1273 49.502 55.0991 49.5126C55.0708 49.5232 55.0456 49.5406 55.0258 49.5634Z" fill="white"/>
<path d="M56.4803 50.6824H56.2143C56.1593 50.6824 56.1188 50.6535 56.1217 50.6188L56.249 49.4621C56.249 49.4274 56.2981 49.4014 56.3502 49.4014H56.6191C56.6711 49.4014 56.7116 49.4274 56.7087 49.4621L56.5844 50.6188C56.5763 50.6392 56.5618 50.6565 56.543 50.668C56.5242 50.6795 56.5022 50.6845 56.4803 50.6824Z" fill="#3C8C30"/>
<path d="M62.9462 50.6824H62.6801C62.6281 50.6824 62.5876 50.6535 62.5905 50.6188L62.7148 49.4621C62.7148 49.4274 62.764 49.4014 62.8189 49.4014H63.085C63.137 49.4014 63.1775 49.4274 63.1746 49.4621L63.0503 50.6188C63.0387 50.6419 63.0011 50.6824 62.9462 50.6824Z" fill="#3C8C30"/>
</svg>
