<svg width="43" height="29" viewBox="0 0 43 29" fill="none" xmlns="http://www.w3.org/2000/svg">
<path d="M0.940675 1.15851C3.35988 1.56171 6.26068 1.76331 9.64307 1.76331C13.0255 1.76331 16.5647 1.36011 20.2607 0.553711C19.8799 3.39851 18.4351 4.95531 15.9263 5.22411C15.1423 5.33611 13.9327 5.44811 12.2975 5.56011C12.2527 6.20971 11.8831 9.05451 11.1887 14.0945C10.4943 19.1121 10.1471 22.5729 10.1471 24.4769C10.1471 26.3809 10.3039 27.7025 10.6175 28.4417C8.71347 27.9489 7.41428 27.2993 6.71988 26.4929C6.02548 25.6641 5.67828 24.6449 5.67828 23.4353C5.67828 22.2257 5.95828 19.6049 6.51828 15.5729C7.10068 11.5185 7.44787 8.25931 7.55987 5.79531C5.74548 5.88491 3.96467 5.92971 2.21747 5.92971C1.18707 5.92971 0.671875 5.01131 0.671875 3.17451C0.716675 2.30091 0.806275 1.62891 0.940675 1.15851Z" fill="#327528"/>
<path d="M28.2577 12.6835C28.1905 13.0643 27.7313 14.0387 26.8801 15.6067C24.1921 20.4451 22.7697 24.5667 22.6129 27.9715L20.4623 28.3075C20.3279 27.9491 20.2607 27.3555 20.2607 26.5267C20.2607 24.5331 21.5601 20.8931 24.1585 15.6067C23.3073 15.9427 22.6129 16.1107 22.0753 16.1107C21.5377 16.1107 21.0337 16.0211 20.5633 15.8419L21.3025 14.1283C21.5713 14.1955 21.8401 14.2291 22.1089 14.2291C22.8257 14.2291 23.5537 14.0051 24.2929 13.5571C25.0321 13.1091 25.6033 12.6051 26.0065 12.0451C26.4097 11.4851 26.7569 11.2051 27.0481 11.2051C27.3393 11.2051 27.6193 11.3059 27.8881 11.5075C28.1793 11.7091 28.3249 11.9331 28.3249 12.1795C28.3249 12.4259 28.3025 12.5939 28.2577 12.6835ZM38.834 12.0451C40.0884 12.0451 41.0852 12.4035 41.8244 13.1203C42.586 13.8371 42.9668 14.8787 42.9668 16.2451C42.9668 17.5891 42.3956 19.2355 41.2532 21.1843C40.1108 23.1331 38.6212 24.8355 36.7844 26.2915C34.97 27.7251 33.234 28.4419 31.5764 28.4419C28.866 28.4419 27.5108 26.9299 27.5108 23.9059C27.5108 22.1363 28.0708 20.3331 29.1908 18.4963C30.3332 16.6371 31.7892 15.1027 33.5588 13.8931C35.3508 12.6611 37.1092 12.0451 38.834 12.0451ZM36.5492 24.8131C37.6692 23.7379 38.5652 22.4499 39.2372 20.9491C39.9316 19.4483 40.2788 18.1379 40.2788 17.0179C40.2788 15.8755 40.0212 15.0131 39.506 14.4307C38.9908 13.8259 38.2852 13.5235 37.3892 13.5235C35.8212 13.5235 34.2532 14.5427 32.6852 16.5811C31.1396 18.5971 30.3668 20.6243 30.3668 22.6627C30.3668 23.7603 30.6244 24.6675 31.1396 25.3843C31.6548 26.0787 32.4052 26.4259 33.3908 26.4259C34.3988 26.4259 35.4516 25.8883 36.5492 24.8131Z" fill="#BFE89E"/>
</svg>
